<svg width="21" height="21" viewBox="0 0 21 21" fill="none" xmlns="http://www.w3.org/2000/svg">
<path d="M20.5292 16.61L17.2861 13.3592C16.6401 12.7143 15.5704 12.7339 14.9019 13.4041L13.268 15.0414C13.1648 14.9844 13.0579 14.9248 12.9456 14.8616C11.9138 14.2886 10.5016 13.5033 9.01561 12.0128C7.52518 10.5191 6.74087 9.10158 6.16741 8.06679C6.1069 7.95716 6.04892 7.85146 5.99167 7.75109L7.08825 6.65365L7.62738 6.11264C8.29688 5.44144 8.31534 4.36958 7.67088 3.72287L4.42775 0.471677C3.78329 -0.174124 2.71307 -0.154532 2.04357 0.516665L1.12955 1.43802L1.15453 1.46287C0.848041 1.85483 0.591934 2.30689 0.401346 2.79438C0.225661 3.25842 0.11628 3.70123 0.066265 4.14494C-0.361968 7.70314 1.26035 10.9551 5.6631 15.3678C11.749 21.4672 16.6535 21.0064 16.8651 20.9839C17.3259 20.9287 17.7675 20.8183 18.2163 20.6436C18.6985 20.4549 19.1493 20.1985 19.5401 19.892L19.5601 19.9098L20.486 19.001C21.1541 18.3299 21.1734 17.2577 20.5292 16.61Z" fill="#DE3737"/>
</svg>
