<svg width="26" height="26" viewBox="0 0 26 26" fill="none" xmlns="http://www.w3.org/2000/svg">
<path fill-rule="evenodd" clip-rule="evenodd" d="M8.125 0H17.875C22.3616 0 26 3.63837 26 8.125V17.875C26 22.3616 22.3616 26 17.875 26H8.125C3.63837 26 0 22.3616 0 17.875V8.125C0 3.63837 3.63837 0 8.125 0ZM17.875 23.5625C21.0112 23.5625 23.5625 21.0112 23.5625 17.875V8.125C23.5625 4.98875 21.0112 2.4375 17.875 2.4375H8.125C4.98875 2.4375 2.4375 4.98875 2.4375 8.125V17.875C2.4375 21.0112 4.98875 23.5625 8.125 23.5625H17.875Z" fill="#DE3737"/>
<path fill-rule="evenodd" clip-rule="evenodd" d="M7 13.5C7 9.91038 9.91038 7 13.5 7C17.0896 7 20 9.91038 20 13.5C20 17.0896 17.0896 20 13.5 20C9.91038 20 7 17.0896 7 13.5ZM9.4375 13.5C9.4375 15.7393 11.2607 17.5625 13.5 17.5625C15.7393 17.5625 17.5625 15.7393 17.5625 13.5C17.5625 11.2591 15.7393 9.4375 13.5 9.4375C11.2607 9.4375 9.4375 11.2591 9.4375 13.5Z" fill="#DE3737"/>
<path d="M20 7C20.5523 7 21 6.55228 21 6C21 5.44772 20.5523 5 20 5C19.4477 5 19 5.44772 19 6C19 6.55228 19.4477 7 20 7Z" fill="#DE3737"/>
</svg>
