<svg width="254" height="45" viewBox="0 0 254 45" fill="none" xmlns="http://www.w3.org/2000/svg">
<path fill-rule="evenodd" clip-rule="evenodd" d="M70.851 1.29749C74.0718 1.30979 77.2815 1.67704 80.4227 2.39266H80.3654V6.94628C77.1889 5.87701 73.8566 5.35095 70.5071 5.38998C65.8073 5.38998 62.0817 5.96639 62.0817 10.0589C62.0817 13.1138 63.8012 13.9785 67.2975 14.7854L73.9461 16.3994C79.7349 17.7827 83.1739 19.8578 83.1739 26.0254C83.1739 34.6138 75.4936 36.1701 66.9536 36.1701C63.2677 36.1859 59.5992 35.6616 56.0636 34.6138V29.8297C59.9167 31.1762 63.9635 31.8772 68.0426 31.9047C72.6851 31.9047 76.7545 31.4436 76.7545 26.8323C76.7545 23.5468 75.2643 22.6246 71.94 21.8176L64.8329 20.0307C58.9294 18.5897 55.6051 16.7452 55.6051 10.8082C55.6051 3.37255 62.4256 1.29749 70.851 1.29749ZM95.0382 7.58033H88.9054V1.70097H95.0382V7.58033ZM94.9236 35.5937H88.9628V12.3069H94.9236V35.5937ZM178.432 24.0656C178.432 33.6916 183.075 36.1125 190.927 36.1125C198.779 36.1125 203.479 33.4034 203.479 23.9503C203.479 14.3243 198.722 11.7881 190.927 11.7881C183.132 11.7881 178.432 14.6125 178.432 24.0656ZM184.737 23.8927C184.737 30.0026 185.826 32.7117 191.042 32.7117C196.258 32.7117 197.232 29.8873 197.289 23.8927C197.289 17.7827 196.086 15.0736 190.87 15.0736C185.654 15.0736 184.737 17.9557 184.737 23.8927ZM208.58 35.5937H214.541V23.0857C214.541 18.1286 216.318 17.6675 223.998 17.6675V12.0763C218.439 12.0763 215.573 14.1514 214.541 18.1862V12.3069H208.58V35.5937ZM234.086 44.2975H228.125L228.068 12.1916H234.029V16.3994C234.029 16.3994 234.716 11.6728 242.397 11.6728C249.848 11.6728 253 15.3042 253 23.835C253 32.6541 249.561 35.9972 241.823 35.9972C234.602 35.9972 234.086 31.9624 234.086 31.9624V44.2975ZM240.391 32.4235C235.118 32.4235 234.2 29.4838 234.2 23.8927C234.2 18.5321 235.289 15.65 240.391 15.65C245.32 15.65 246.81 18.5321 246.81 23.8927C246.753 29.772 245.09 32.4235 240.391 32.4235ZM174.076 3.08435C174.076 3.08435 170.408 1.41277 164.677 1.41277C153.615 1.41277 146.45 6.48515 146.45 18.7626C146.45 31.0401 152.125 36.1701 164.677 36.1701C171.153 36.1701 174.822 34.268 174.822 34.268V29.4838C174.822 29.4838 171.555 31.6165 165.594 31.6165C157.455 31.6165 153.042 28.7345 153.042 18.4168C153.042 8.9637 156.137 5.79346 165.193 5.79346C168.22 5.83071 171.213 6.43674 174.019 7.58033L174.076 3.08435ZM108.565 16.5146C108.565 16.5146 108.966 11.7305 116.646 11.7305C121.002 11.7305 123.467 12.9986 124.441 16.5146C124.441 16.5146 125.473 11.7305 133.038 11.7305C138.942 11.7305 141.464 14.0361 141.464 20.8377V35.5361H135.503V21.9329C135.503 16.6876 134.127 15.7653 130.574 15.7653C127.25 15.7653 125.014 17.4945 125.014 23.4892V35.5361H119.053V21.9329C119.053 16.6876 117.678 15.7653 114.124 15.7653C110.743 15.7653 108.507 17.4369 108.507 23.4892V35.5361H102.547V12.3069H108.565V16.5146ZM26.5461 15.4195H16V26.0254H26.5461V15.4195ZM20.2414 23.835H24.4254V19.6272H20.2414V23.835Z" fill="black"/>
<path d="M80.4227 2.39266V2.76266L80.5049 2.0319L80.4227 2.39266ZM70.851 1.29749L70.8524 0.927485H70.851V1.29749ZM80.3654 2.39266V2.02266H79.9954V2.39266H80.3654ZM80.3654 6.94628L80.2474 7.29694L80.7354 7.46123V6.94628H80.3654ZM70.5071 5.38998V5.76L70.5114 5.75995L70.5071 5.38998ZM67.2975 14.7854L67.3848 14.4258L67.3807 14.4249L67.2975 14.7854ZM73.9461 16.3994L73.8588 16.7589L73.8601 16.7592L73.9461 16.3994ZM66.9536 36.1701V35.8001L66.952 35.8001L66.9536 36.1701ZM56.0636 34.6138H55.6936V34.8901L55.9585 34.9686L56.0636 34.6138ZM56.0636 29.8297L56.1857 29.4804L55.6936 29.3084V29.8297H56.0636ZM68.0426 31.9047L68.0401 32.2747H68.0426V31.9047ZM71.94 21.8176L71.8498 22.1764L71.8527 22.1772L71.94 21.8176ZM64.8329 20.0307L64.9231 19.6719L64.9206 19.6713L64.8329 20.0307ZM88.9054 7.58033H88.5354V7.95033H88.9054V7.58033ZM95.0382 7.58033V7.95033H95.4082V7.58033H95.0382ZM88.9054 1.70097V1.33097H88.5354V1.70097H88.9054ZM95.0382 1.70097H95.4082V1.33097H95.0382V1.70097ZM88.9628 35.5937H88.5928V35.9637H88.9628V35.5937ZM94.9236 35.5937V35.9637H95.2936V35.5937H94.9236ZM88.9628 12.3069V11.9369H88.5928V12.3069H88.9628ZM94.9236 12.3069H95.2936V11.9369H94.9236V12.3069ZM197.289 23.8927L197.659 23.8962V23.8927H197.289ZM214.541 35.5937V35.9637H214.911V35.5937H214.541ZM208.58 35.5937H208.21V35.9637H208.58V35.5937ZM223.998 17.6675V18.0375H224.368V17.6675H223.998ZM223.998 12.0763H224.368V11.7063H223.998V12.0763ZM214.541 18.1862H214.171L214.9 18.2779L214.541 18.1862ZM214.541 12.3069H214.911V11.9369H214.541V12.3069ZM208.58 12.3069V11.9369H208.21V12.3069H208.58ZM228.125 44.2975L227.755 44.2981L227.756 44.6675H228.125V44.2975ZM234.086 44.2975V44.6675H234.456V44.2975H234.086ZM228.068 12.1916V11.8216H227.697L227.698 12.1922L228.068 12.1916ZM234.029 12.1916H234.399V11.8216H234.029V12.1916ZM234.029 16.3994H233.659L234.395 16.4526L234.029 16.3994ZM234.086 31.9624L234.453 31.9154L233.716 31.9624H234.086ZM246.81 23.8927L247.18 23.8963V23.8927H246.81ZM174.076 3.08435L174.446 3.08906L174.449 2.84774L174.23 2.74766L174.076 3.08435ZM174.822 34.268L174.992 34.5965L175.192 34.4929V34.268H174.822ZM174.822 29.4838H175.192V28.8004L174.619 29.174L174.822 29.4838ZM165.193 5.79346L165.197 5.42346H165.193V5.79346ZM174.019 7.58033L173.879 7.92296L174.382 8.12785L174.389 7.58504L174.019 7.58033ZM108.565 16.5146H108.195L108.933 16.5456L108.565 16.5146ZM124.441 16.5146L124.085 16.6135L124.803 16.5926L124.441 16.5146ZM141.464 35.5361V35.9061H141.834V35.5361H141.464ZM135.503 35.5361H135.133V35.9061H135.503V35.5361ZM125.014 35.5361V35.9061H125.384V35.5361H125.014ZM119.053 35.5361H118.683V35.9061H119.053V35.5361ZM108.507 35.5361V35.9061H108.877V35.5361H108.507ZM102.547 35.5361H102.177V35.9061H102.547V35.5361ZM102.547 12.3069V11.9369H102.177V12.3069H102.547ZM108.565 12.3069H108.935V11.9369H108.565V12.3069ZM16 15.4195V15.0495H15.63V15.4195H16ZM26.5461 15.4195H26.9161V15.0495H26.5461V15.4195ZM16 26.0254H15.63V26.3954H16V26.0254ZM26.5461 26.0254V26.3954H26.9161V26.0254H26.5461ZM24.4254 23.835V24.205H24.7954V23.835H24.4254ZM20.2414 23.835H19.8714V24.205H20.2414V23.835ZM24.4254 19.6272H24.7954V19.2572H24.4254V19.6272ZM20.2414 19.6272V19.2572H19.8714V19.6272H20.2414ZM80.5049 2.0319C77.3372 1.31024 74.1004 0.939893 70.8524 0.927488L70.8496 1.66748C74.0432 1.67968 77.2258 2.04383 80.3405 2.75342L80.5049 2.0319ZM80.3654 2.76266H80.4227V2.02266H80.3654V2.76266ZM80.7354 6.94628V2.39266H79.9954V6.94628H80.7354ZM70.5114 5.75995C73.8193 5.72141 77.1103 6.24093 80.2474 7.29694L80.4835 6.59561C77.2676 5.51308 73.8939 4.98049 70.5028 5.02L70.5114 5.75995ZM62.4517 10.0589C62.4517 9.09324 62.6708 8.36561 63.0445 7.8091C63.4186 7.25195 63.9678 6.83631 64.6786 6.52944C66.1193 5.90752 68.1543 5.75998 70.5071 5.75998V5.01998C68.1601 5.01998 65.9824 5.16064 64.3853 5.85004C63.5773 6.19884 62.9014 6.69464 62.4301 7.39659C61.9584 8.09916 61.7117 8.97827 61.7117 10.0589H62.4517ZM67.3807 14.4249C65.629 14.0206 64.4039 13.6166 63.6107 12.9771C62.853 12.3662 62.4517 11.5062 62.4517 10.0589H61.7117C61.7117 11.6665 62.1702 12.7663 63.1463 13.5532C64.0869 14.3115 65.4697 14.7433 67.2142 15.1459L67.3807 14.4249ZM74.0334 16.0398L67.3847 14.4259L67.2102 15.145L73.8588 16.7589L74.0334 16.0398ZM83.5439 26.0254C83.5439 22.8659 82.6591 20.6959 80.9819 19.1465C79.325 17.6159 76.9382 16.734 74.0321 16.0395L73.8601 16.7592C76.7428 17.4481 78.97 18.2954 80.4797 19.6901C81.9692 21.066 82.8039 23.0173 82.8039 26.0254H83.5439ZM66.9536 36.5401C71.2306 36.5401 75.3598 36.1533 78.4289 34.6507C79.9714 33.8956 81.2563 32.8539 82.1534 31.4311C83.0506 30.008 83.5439 28.229 83.5439 26.0254H82.8039C82.8039 28.1159 82.3371 29.7522 81.5274 31.0364C80.7176 32.3209 79.5486 33.2786 78.1035 33.9861C75.1975 35.4088 71.2166 35.8001 66.9536 35.8001V36.5401ZM55.9585 34.9686C59.5287 36.0266 63.2331 36.5561 66.9552 36.5401L66.952 35.8001C63.3023 35.8158 59.6697 35.2966 56.1687 34.2591L55.9585 34.9686ZM55.6936 29.8297V34.6138H56.4336V29.8297H55.6936ZM68.0451 31.5347C64.0068 31.5075 60.0004 30.8135 56.1857 29.4804L55.9415 30.1789C59.8331 31.5389 63.9203 32.2469 68.0401 32.2747L68.0451 31.5347ZM76.3845 26.8323C76.3845 27.93 76.1429 28.7486 75.7368 29.3672C75.3309 29.9856 74.741 30.4342 73.9925 30.7582C72.4746 31.4154 70.3708 31.5347 68.0426 31.5347V32.2747C70.3569 32.2747 72.6091 32.1635 74.2865 31.4373C75.1357 31.0696 75.8533 30.5384 76.3555 29.7733C76.8575 29.0085 77.1245 28.0404 77.1245 26.8323H76.3845ZM71.8527 22.1772C73.5144 22.5805 74.6299 22.996 75.3402 23.6649C76.0262 24.3108 76.3845 25.2455 76.3845 26.8323H77.1245C77.1245 25.1336 76.7378 23.9645 75.8476 23.1261C74.9817 22.3108 73.6899 21.8616 72.0273 21.458L71.8527 22.1772ZM64.7427 20.3896L71.8498 22.1764L72.0302 21.4588L64.9231 19.6719L64.7427 20.3896ZM55.2351 10.8082C55.2351 13.8541 56.0924 15.9123 57.7605 17.383C59.4028 18.831 61.7889 19.6686 64.7452 20.3902L64.9206 19.6713C61.9734 18.9519 59.7455 18.1466 58.2499 16.8279C56.7799 15.5318 55.9751 13.6994 55.9751 10.8082H55.2351ZM70.851 0.927485C66.621 0.927485 62.7359 1.44612 59.8965 2.93688C58.4707 3.6855 57.3004 4.68353 56.4882 5.98988C55.6755 7.29706 55.2351 8.8908 55.2351 10.8082H55.9751C55.9751 9.00779 56.3872 7.55378 57.1167 6.3806C57.8466 5.20659 58.908 4.29167 60.2405 3.59207C62.9178 2.18638 66.6557 1.66749 70.851 1.66749V0.927485ZM88.9054 7.95033H95.0382V7.21033H88.9054V7.95033ZM88.5354 1.70097V7.58033H89.2754V1.70097H88.5354ZM95.0382 1.33097H88.9054V2.07097H95.0382V1.33097ZM95.4082 7.58033V1.70097H94.6682V7.58033H95.4082ZM88.9628 35.9637H94.9236V35.2237H88.9628V35.9637ZM88.5928 12.3069V35.5937H89.3328V12.3069H88.5928ZM94.9236 11.9369H88.9628V12.6769H94.9236V11.9369ZM95.2936 35.5937V12.3069H94.5536V35.5937H95.2936ZM190.927 35.7425C187.022 35.7425 184.012 35.1366 181.974 33.4161C179.951 31.7079 178.802 28.8268 178.802 24.0656H178.062C178.062 28.9304 179.236 32.0727 181.497 33.9815C183.743 35.878 186.98 36.4825 190.927 36.4825V35.7425ZM203.109 23.9503C203.109 28.6214 201.949 31.5355 199.906 33.2961C197.852 35.0671 194.825 35.7425 190.927 35.7425V36.4825C194.882 36.4825 198.131 35.8034 200.389 33.8566C202.66 31.8992 203.849 28.7323 203.849 23.9503H203.109ZM190.927 12.1581C194.8 12.1581 197.826 12.7916 199.887 14.5415C201.934 16.2797 203.109 19.1918 203.109 23.9503H203.849C203.849 19.0828 202.646 15.9138 200.366 13.9774C198.099 12.0527 194.849 11.4181 190.927 11.4181V12.1581ZM178.802 24.0656C178.802 19.3946 179.963 16.4497 182.001 14.6599C184.049 12.8611 187.061 12.1581 190.927 12.1581V11.4181C186.998 11.4181 183.763 12.1273 181.513 14.1039C179.252 16.0897 178.062 19.2834 178.062 24.0656H178.802ZM191.042 32.3417C188.496 32.3417 187.073 31.6841 186.245 30.3936C185.386 29.0538 185.107 26.9522 185.107 23.8927H184.367C184.367 26.9431 184.633 29.2509 185.622 30.7931C186.643 32.3848 188.372 33.0817 191.042 33.0817V32.3417ZM196.919 23.8891C196.891 26.8936 196.627 28.9983 195.786 30.3551C194.977 31.6589 193.582 32.3417 191.042 32.3417V33.0817C193.717 33.0817 195.418 32.3523 196.414 30.7452C197.378 29.1912 197.631 26.8864 197.659 23.8962L196.919 23.8891ZM190.87 15.4436C193.416 15.4436 194.871 16.1015 195.727 17.396C196.613 18.7355 196.919 20.8368 196.919 23.8927H197.659C197.659 20.8386 197.364 18.5304 196.344 16.9878C195.294 15.4003 193.54 14.7036 190.87 14.7036V15.4436ZM185.107 23.8927C185.107 20.9164 185.343 18.8114 186.165 17.4477C186.953 16.1393 188.332 15.4436 190.87 15.4436V14.7036C188.192 14.7036 186.505 15.449 185.531 17.0658C184.59 18.6274 184.367 20.9319 184.367 23.8927H185.107ZM214.541 35.2237H208.58V35.9637H214.541V35.2237ZM214.171 23.0857V35.5937H214.911V23.0857H214.171ZM223.998 17.2975C222.078 17.2975 220.511 17.3261 219.245 17.4487C217.982 17.5709 216.984 17.7892 216.218 18.1898C215.435 18.5995 214.912 19.1915 214.594 20.0142C214.282 20.8191 214.171 21.8323 214.171 23.0857H214.911C214.911 21.8605 215.022 20.9572 215.284 20.2814C215.539 19.6235 215.94 19.1708 216.561 18.8455C217.2 18.5112 218.085 18.3044 219.316 18.1852C220.543 18.0665 222.078 18.0375 223.998 18.0375V17.2975ZM223.628 12.0763V17.6675H224.368V12.0763H223.628ZM214.9 18.2779C215.398 16.3298 216.328 14.8888 217.777 13.9264C219.234 12.9581 221.26 12.4463 223.998 12.4463V11.7063C221.177 11.7063 218.99 12.232 217.367 13.31C215.735 14.3938 214.716 16.0078 214.183 18.0946L214.9 18.2779ZM214.171 12.3069V18.1862H214.911V12.3069H214.171ZM208.58 12.6769H214.541V11.9369H208.58V12.6769ZM208.95 35.5937V12.3069H208.21V35.5937H208.95ZM228.125 44.6675H234.086V43.9275H228.125V44.6675ZM227.698 12.1922L227.755 44.2981L228.495 44.2968L228.438 12.1909L227.698 12.1922ZM234.029 11.8216H228.068V12.5616H234.029V11.8216ZM234.399 16.3994V12.1916H233.659V16.3994H234.399ZM242.397 11.3028C238.475 11.3028 236.279 12.513 235.065 13.7801C234.463 14.4091 234.113 15.0405 233.914 15.5186C233.815 15.7576 233.753 15.9587 233.715 16.1026C233.696 16.1746 233.684 16.2325 233.675 16.2738C233.671 16.2945 233.668 16.311 233.666 16.3232C233.665 16.3292 233.664 16.3342 233.664 16.338C233.663 16.34 233.663 16.3416 233.663 16.3429C233.663 16.3436 233.663 16.3442 233.663 16.3447C233.663 16.345 233.663 16.3453 233.662 16.3455C233.662 16.3458 233.662 16.3461 234.029 16.3994C234.395 16.4526 234.395 16.4529 234.395 16.4532C234.395 16.4532 234.395 16.4534 234.395 16.4536C234.395 16.4538 234.394 16.454 234.394 16.4541C234.394 16.4543 234.394 16.4542 234.395 16.4538C234.395 16.4531 234.395 16.4513 234.395 16.4484C234.396 16.4427 234.398 16.4327 234.401 16.4187C234.407 16.3908 234.416 16.3471 234.431 16.2899C234.461 16.1754 234.513 16.0072 234.598 15.8031C234.768 15.3949 235.07 14.8447 235.6 14.292C236.65 13.1959 238.638 12.0428 242.397 12.0428V11.3028ZM253.37 23.835C253.37 19.5378 252.579 16.3869 250.771 14.3118C248.953 12.2245 246.177 11.3028 242.397 11.3028V12.0428C246.067 12.0428 248.593 12.9368 250.213 14.7979C251.845 16.6712 252.63 19.6014 252.63 23.835H253.37ZM241.823 36.3672C245.736 36.3672 248.654 35.5232 250.583 33.477C252.506 31.4365 253.37 28.2792 253.37 23.835H252.63C252.63 28.2098 251.775 31.1336 250.044 32.9695C248.319 34.7996 245.649 35.6272 241.823 35.6272V36.3672ZM234.086 31.9624C233.719 32.0093 233.719 32.0096 233.719 32.01C233.719 32.0101 233.719 32.0105 233.719 32.0107C233.719 32.0113 233.719 32.0119 233.719 32.0126C233.719 32.0139 233.72 32.0155 233.72 32.0173C233.72 32.021 233.721 32.0256 233.722 32.0312C233.724 32.0424 233.726 32.0574 233.73 32.0759C233.737 32.1129 233.747 32.164 233.764 32.2274C233.796 32.354 233.85 32.5297 233.939 32.7379C234.117 33.1547 234.433 33.7015 234.988 34.2443C236.105 35.3366 238.141 36.3672 241.823 36.3672V35.6272C238.284 35.6272 236.451 34.6404 235.505 33.7152C235.029 33.2494 234.764 32.7874 234.62 32.4478C234.547 32.2777 234.505 32.1381 234.481 32.0441C234.469 31.9971 234.461 31.9616 234.457 31.9395C234.455 31.9284 234.454 31.9207 234.453 31.9167C234.453 31.9146 234.453 31.9135 234.453 31.9133C234.453 31.9131 234.453 31.9133 234.453 31.9136C234.453 31.9138 234.453 31.9141 234.453 31.9144C234.453 31.9145 234.453 31.9148 234.453 31.9149C234.453 31.9151 234.453 31.9154 234.086 31.9624ZM234.456 44.2975V31.9624H233.716V44.2975H234.456ZM233.83 23.8927C233.83 26.6827 234.053 28.9161 235.004 30.4496C235.985 32.0338 237.684 32.7935 240.391 32.7935V32.0535C237.824 32.0535 236.428 31.3433 235.633 30.0599C234.806 28.7258 234.57 26.6938 234.57 23.8927H233.83ZM240.391 15.28C237.768 15.28 236.076 16.0256 235.073 17.5585C234.098 19.049 233.83 21.2102 233.83 23.8927H234.57C234.57 21.2146 234.848 19.2545 235.692 17.9637C236.509 16.7155 237.912 16.02 240.391 16.02V15.28ZM247.18 23.8927C247.18 21.1956 246.809 19.0356 245.75 17.5467C244.67 16.0273 242.931 15.28 240.391 15.28V16.02C242.78 16.02 244.25 16.7138 245.147 17.9755C246.066 19.2678 246.44 21.2291 246.44 23.8927H247.18ZM240.391 32.7935C242.813 32.7935 244.538 32.1059 245.641 30.5796C246.722 29.0842 247.151 26.8523 247.18 23.8963L246.44 23.8891C246.411 26.8123 245.981 28.8459 245.041 30.1461C244.124 31.4153 242.668 32.0535 240.391 32.0535V32.7935ZM164.677 1.78277C167.507 1.78277 169.826 2.19547 171.434 2.60701C172.238 2.81275 172.865 3.01809 173.288 3.17112C173.5 3.24763 173.66 3.31105 173.767 3.35487C173.821 3.37678 173.861 3.3938 173.887 3.4051C173.9 3.41075 173.909 3.41497 173.915 3.41766C173.918 3.419 173.921 3.41997 173.922 3.42053C173.923 3.42082 173.923 3.421 173.923 3.42109C173.923 3.42113 173.923 3.42115 173.923 3.42114C173.923 3.42113 173.923 3.42111 173.923 3.42111C173.923 3.42108 173.923 3.42104 174.076 3.08435C174.23 2.74766 174.23 2.74761 174.23 2.74755C174.23 2.74752 174.229 2.74746 174.229 2.74741C174.229 2.7473 174.229 2.74716 174.228 2.747C174.228 2.74668 174.227 2.74626 174.226 2.74574C174.223 2.7447 174.22 2.74327 174.216 2.74145C174.208 2.73781 174.196 2.73265 174.181 2.72606C174.15 2.71287 174.106 2.69397 174.048 2.67017C173.932 2.62258 173.761 2.55541 173.54 2.47521C173.096 2.31482 172.447 2.10226 171.618 1.8901C169.959 1.46585 167.578 1.04277 164.677 1.04277V1.78277ZM146.82 18.7626C146.82 12.6969 148.588 8.47426 151.66 5.76098C154.741 3.04023 159.195 1.78277 164.677 1.78277V1.04277C159.096 1.04277 154.437 2.32149 151.17 5.20631C147.895 8.09859 146.08 12.5509 146.08 18.7626H146.82ZM164.677 35.8001C158.44 35.8001 153.997 34.5238 151.11 31.8012C148.228 29.0833 146.82 24.852 146.82 18.7626H146.08C146.08 24.9507 147.51 29.4232 150.603 32.3396C153.691 35.2515 158.361 36.5401 164.677 36.5401V35.8001ZM174.822 34.268C174.651 33.9395 174.651 33.9395 174.651 33.9394C174.651 33.9394 174.651 33.9394 174.651 33.9394C174.652 33.9394 174.652 33.9394 174.651 33.9394C174.651 33.9395 174.651 33.9397 174.65 33.9399C174.649 33.9405 174.647 33.9416 174.644 33.9431C174.638 33.946 174.629 33.9507 174.616 33.9571C174.59 33.9697 174.55 33.9889 174.496 34.0136C174.389 34.0632 174.226 34.135 174.01 34.2217C173.576 34.3953 172.929 34.6285 172.08 34.8623C170.382 35.33 167.878 35.8001 164.677 35.8001V36.5401C167.951 36.5401 170.521 36.0592 172.276 35.5758C173.154 35.3341 173.828 35.0918 174.285 34.9087C174.513 34.8171 174.688 34.7403 174.806 34.6858C174.865 34.6585 174.91 34.6368 174.941 34.6216C174.957 34.614 174.969 34.6081 174.977 34.6038C174.982 34.6017 174.985 34.6 174.987 34.5988C174.989 34.5982 174.989 34.5977 174.99 34.5973C174.991 34.5971 174.991 34.5969 174.991 34.5968C174.991 34.5967 174.992 34.5966 174.992 34.5966C174.992 34.5965 174.992 34.5965 174.822 34.268ZM174.452 29.4838V34.268H175.192V29.4838H174.452ZM165.594 31.9865C168.619 31.9865 170.966 31.4452 172.562 30.9003C173.36 30.6279 173.97 30.3547 174.384 30.1479C174.59 30.0445 174.747 29.9577 174.855 29.8959C174.908 29.8649 174.949 29.8403 174.977 29.8229C174.991 29.8142 175.002 29.8073 175.01 29.8024C175.014 29.7999 175.017 29.798 175.019 29.7965C175.02 29.7958 175.021 29.7952 175.022 29.7947C175.023 29.7944 175.023 29.7942 175.023 29.7941C175.023 29.794 175.023 29.7939 175.023 29.7938C175.024 29.7937 175.024 29.7936 174.822 29.4838C174.619 29.174 174.619 29.1739 174.619 29.1738C174.619 29.1738 174.62 29.1738 174.62 29.1738C174.62 29.1737 174.62 29.1737 174.62 29.1737C174.62 29.1738 174.619 29.1739 174.619 29.1742C174.618 29.1748 174.616 29.1759 174.614 29.1775C174.609 29.1806 174.601 29.1857 174.589 29.1926C174.567 29.2065 174.532 29.2276 174.484 29.255C174.39 29.3098 174.245 29.3896 174.052 29.4862C173.667 29.6793 173.087 29.9392 172.323 30.2C170.796 30.7214 168.529 31.2465 165.594 31.2465V31.9865ZM152.672 18.4168C152.672 23.6163 153.782 27.0412 156.011 29.1543C158.237 31.2641 161.495 31.9865 165.594 31.9865V31.2465C161.553 31.2465 158.536 30.528 156.52 28.6173C154.508 26.7099 153.412 23.535 153.412 18.4168H152.672ZM165.193 5.42346C160.64 5.42346 157.47 6.21602 155.455 8.30325C153.444 10.3866 152.672 13.6706 152.672 18.4168H153.412C153.412 13.7099 154.187 10.6822 155.987 8.81719C157.784 6.95603 160.689 6.16346 165.193 6.16346V5.42346ZM174.159 7.23769C171.31 6.07662 168.271 5.4613 165.197 5.42349L165.188 6.16344C168.169 6.20011 171.117 6.79685 173.879 7.92296L174.159 7.23769ZM173.706 3.07963L173.649 7.57561L174.389 7.58504L174.446 3.08906L173.706 3.07963ZM116.646 11.3605C112.723 11.3605 110.593 12.586 109.448 13.8771C108.881 14.5171 108.569 15.1591 108.398 15.6444C108.313 15.8871 108.263 16.0911 108.234 16.237C108.22 16.31 108.21 16.3687 108.205 16.4106C108.202 16.4315 108.2 16.4483 108.198 16.4606C108.198 16.4667 108.197 16.4717 108.197 16.4756C108.197 16.4775 108.196 16.4792 108.196 16.4805C108.196 16.4812 108.196 16.4818 108.196 16.4824C108.196 16.4826 108.196 16.483 108.196 16.4831C108.196 16.4834 108.196 16.4837 108.565 16.5146C108.933 16.5456 108.933 16.5458 108.933 16.5461C108.933 16.5461 108.933 16.5464 108.933 16.5465C108.933 16.5467 108.933 16.5469 108.933 16.547C108.933 16.5472 108.933 16.5471 108.933 16.5468C108.933 16.546 108.934 16.5442 108.934 16.5413C108.935 16.5355 108.936 16.5254 108.938 16.5113C108.942 16.4831 108.948 16.4389 108.96 16.3811C108.983 16.2654 109.024 16.0957 109.096 15.8898C109.241 15.4781 109.509 14.924 110.002 14.368C110.978 13.267 112.889 12.1005 116.646 12.1005V11.3605ZM124.798 16.4158C124.29 14.5847 123.38 13.2999 122 12.4853C120.635 11.68 118.852 11.3605 116.646 11.3605V12.1005C118.796 12.1005 120.424 12.415 121.624 13.1227C122.808 13.8213 123.618 14.9285 124.085 16.6135L124.798 16.4158ZM133.038 11.3605C129.17 11.3605 126.923 12.587 125.642 13.8601C125.005 14.4925 124.617 15.127 124.387 15.6072C124.272 15.8473 124.196 16.0492 124.149 16.1936C124.125 16.2658 124.108 16.3237 124.097 16.365C124.092 16.3857 124.088 16.4021 124.085 16.4142C124.083 16.4202 124.082 16.4251 124.081 16.4289C124.081 16.4307 124.08 16.4323 124.08 16.4336C124.08 16.4343 124.08 16.4349 124.08 16.4354C124.08 16.4356 124.08 16.4359 124.08 16.4361C124.079 16.4364 124.079 16.4366 124.441 16.5146C124.803 16.5926 124.803 16.5929 124.803 16.5931C124.803 16.5932 124.803 16.5934 124.803 16.5935C124.803 16.5937 124.803 16.5938 124.803 16.5939C124.802 16.5941 124.803 16.5939 124.803 16.5935C124.803 16.5926 124.803 16.5907 124.804 16.5877C124.805 16.5816 124.808 16.5712 124.812 16.5568C124.82 16.528 124.832 16.4832 124.852 16.4246C124.89 16.3073 124.954 16.1354 125.054 15.927C125.254 15.5102 125.596 14.9486 126.163 14.385C127.29 13.266 129.341 12.1005 133.038 12.1005V11.3605ZM141.834 20.8377C141.834 17.4071 141.201 15.0089 139.732 13.4774C138.258 11.9411 136.025 11.3605 133.038 11.3605V12.1005C135.956 12.1005 137.935 12.6726 139.198 13.9896C140.466 15.3112 141.094 17.4667 141.094 20.8377H141.834ZM141.834 35.5361V20.8377H141.094V35.5361H141.834ZM135.503 35.9061H141.464V35.1661H135.503V35.9061ZM135.133 21.9329V35.5361H135.873V21.9329H135.133ZM130.574 16.1353C132.347 16.1353 133.424 16.3736 134.095 17.128C134.782 17.9008 135.133 19.3113 135.133 21.9329H135.873C135.873 19.3091 135.536 17.6359 134.648 16.6362C133.742 15.6181 132.355 15.3953 130.574 15.3953V16.1353ZM125.384 23.4892C125.384 20.5246 125.939 18.6981 126.833 17.6146C127.712 16.5488 128.975 16.1353 130.574 16.1353V15.3953C128.848 15.3953 127.332 15.8464 126.262 17.1439C125.207 18.4236 124.644 20.4591 124.644 23.4892H125.384ZM125.384 35.5361V23.4892H124.644V35.5361H125.384ZM119.053 35.9061H125.014V35.1661H119.053V35.9061ZM118.683 21.9329V35.5361H119.423V21.9329H118.683ZM114.124 16.1353C115.897 16.1353 116.974 16.3736 117.645 17.128C118.332 17.9008 118.683 19.3113 118.683 21.9329H119.423C119.423 19.3091 119.087 17.6359 118.198 16.6362C117.293 15.6181 115.905 15.3953 114.124 15.3953V16.1353ZM108.877 23.4892C108.877 20.4945 109.433 18.6701 110.332 17.5949C111.216 16.5371 112.492 16.1353 114.124 16.1353V15.3953C112.375 15.3953 110.843 15.8293 109.764 17.1204C108.699 18.3941 108.137 20.4315 108.137 23.4892H108.877ZM108.877 35.5361V23.4892H108.137V35.5361H108.877ZM102.547 35.9061H108.507V35.1661H102.547V35.9061ZM102.177 12.3069V35.5361H102.917V12.3069H102.177ZM108.565 11.9369H102.547V12.6769H108.565V11.9369ZM108.935 16.5146V12.3069H108.195V16.5146H108.935ZM16 15.7895H26.5461V15.0495H16V15.7895ZM16.37 26.0254V15.4195H15.63V26.0254H16.37ZM26.5461 25.6554H16V26.3954H26.5461V25.6554ZM26.1761 15.4195V26.0254H26.9161V15.4195H26.1761ZM24.4254 23.465H20.2414V24.205H24.4254V23.465ZM24.0554 19.6272V23.835H24.7954V19.6272H24.0554ZM20.2414 19.9972H24.4254V19.2572H20.2414V19.9972ZM20.6114 23.835V19.6272H19.8714V23.835H20.6114Z" fill="black"/>
<path fill-rule="evenodd" clip-rule="evenodd" d="M4 4.29749H33V33.2975H4V4.29749ZM8.20968 31.1926H30.7782V8.6241H8.20968V31.1926Z" fill="black"/>
<path d="M33 4.29749H33.37V3.92749H33V4.29749ZM4 4.29749V3.92749H3.63V4.29749H4ZM33 33.2975V33.6675H33.37V33.2975H33ZM4 33.2975H3.63V33.6675H4V33.2975ZM30.7782 31.1926V31.5626H31.1482V31.1926H30.7782ZM8.20968 31.1926H7.83968V31.5626H8.20968V31.1926ZM30.7782 8.6241H31.1482V8.2541H30.7782V8.6241ZM8.20968 8.6241V8.2541H7.83968V8.6241H8.20968ZM33 3.92749H4V4.66749H33V3.92749ZM33.37 33.2975V4.29749H32.63V33.2975H33.37ZM4 33.6675H33V32.9275H4V33.6675ZM3.63 4.29749V33.2975H4.37V4.29749H3.63ZM30.7782 30.8226H8.20968V31.5626H30.7782V30.8226ZM30.4082 8.6241V31.1926H31.1482V8.6241H30.4082ZM8.20968 8.9941H30.7782V8.2541H8.20968V8.9941ZM8.57968 31.1926V8.6241H7.83968V31.1926H8.57968Z" fill="black"/>
<path fill-rule="evenodd" clip-rule="evenodd" d="M1 36.2975V1.29749H36V36.2975H1ZM3.15559 34.1419H33.9011V3.39635H3.15559V34.1419Z" fill="black"/>
<path d="M1 1.29749V0.927485H0.63V1.29749H1ZM1 36.2975H0.63V36.6675H1V36.2975ZM36 1.29749H36.37V0.927485H36V1.29749ZM36 36.2975V36.6675H36.37V36.2975H36ZM33.9011 34.1419V34.5119H34.2711V34.1419H33.9011ZM3.15559 34.1419H2.78559V34.5119H3.15559V34.1419ZM33.9011 3.39635H34.2711V3.02635H33.9011V3.39635ZM3.15559 3.39635V3.02635H2.78559V3.39635H3.15559ZM0.63 1.29749V36.2975H1.37V1.29749H0.63ZM36 0.927485H1V1.66749H36V0.927485ZM36.37 36.2975V1.29749H35.63V36.2975H36.37ZM1 36.6675H36V35.9275H1V36.6675ZM33.9011 33.7719H3.15559V34.5119H33.9011V33.7719ZM33.5311 3.39635V34.1419H34.2711V3.39635H33.5311ZM3.15559 3.76635H33.9011V3.02635H3.15559V3.76635ZM3.52559 34.1419V3.39635H2.78559V34.1419H3.52559Z" fill="black"/>
<path fill-rule="evenodd" clip-rule="evenodd" d="M11 11.2975H30V30.2975H11V11.2975ZM15.0794 28.2298H27.9324V15.3769H15.0794V28.2298Z" fill="black"/>
<path d="M30 11.2975H30.37V10.9275H30V11.2975ZM11 11.2975V10.9275H10.63V11.2975H11ZM30 30.2975V30.6675H30.37V30.2975H30ZM11 30.2975H10.63V30.6675H11V30.2975ZM27.9324 28.2298V28.5998H28.3024V28.2298H27.9324ZM15.0794 28.2298H14.7094V28.5998H15.0794V28.2298ZM27.9324 15.3769H28.3024V15.0069H27.9324V15.3769ZM15.0794 15.3769V15.0069H14.7094V15.3769H15.0794ZM30 10.9275H11V11.6675H30V10.9275ZM30.37 30.2975V11.2975H29.63V30.2975H30.37ZM11 30.6675H30V29.9275H11V30.6675ZM10.63 11.2975V30.2975H11.37V11.2975H10.63ZM27.9324 27.8598H15.0794V28.5998H27.9324V27.8598ZM27.5624 15.3769V28.2298H28.3024V15.3769H27.5624ZM15.0794 15.7469H27.9324V15.0069H15.0794V15.7469ZM15.4494 28.2298V15.3769H14.7094V28.2298H15.4494Z" fill="black"/>
</svg>
