<?xml version="1.0" encoding="UTF-8"?>
<svg width="95px" height="68px" viewBox="0 0 95 68" version="1.1" xmlns="http://www.w3.org/2000/svg" xmlns:xlink="http://www.w3.org/1999/xlink">
    <title>book</title>
    <g id="Page-1" stroke="none" stroke-width="1" fill="none" fill-rule="evenodd">
        <g id="Вступ-на-програми-молодшого-спеціаліста" transform="translate(-364.000000, -1365.000000)" fill="#DE3737" fill-rule="nonzero">
            <g id="Зручний-графік" transform="translate(289.000000, 1260.000000)">
                <g id="book" transform="translate(75.000000, 105.000000)">
                    <path d="M93.1585579,5.65868877 C93.152343,5.65868877 93.1461281,5.65868877 93.1401434,5.65868877 L93.1401434,5.65868877 L86.8976546,5.65868877 L86.8976546,3.52761116 C86.9312609,2.68413616 86.3843526,1.92608797 85.5718162,1.69047529 C81.2379822,0.557421746 76.7752471,-0.0107125222 72.2950184,0.000152936835 C64.9292499,0.000152936835 54.8933902,1.65373258 47.4723784,9.18598965 C40.1066098,1.58024714 29.9970925,0.000152936835 22.6497383,0.000152936835 C18.1695096,-0.0107125222 13.7067746,0.557421746 9.37294049,1.69047529 C8.56040415,1.92608797 8.01349583,2.68413616 8.04710215,3.52761116 L8.04710215,5.64031742 L1.84144214,5.64031742 C0.824505718,5.64031742 0,6.462895 0,7.47745329 L0,66.155573 C0,67.1701313 0.824505718,67.9927089 1.84144214,67.9927089 C2.15770983,67.9917903 2.46845319,67.9095785 2.74374879,67.7538812 C2.927893,67.6620244 21.3423144,57.6128912 47.0488467,64.0796095 L47.325063,64.0796095 L47.4907928,64.0796095 C47.6376478,64.0972919 47.7858839,64.0972919 47.9327389,64.0796095 C73.7129289,57.5577771 92.1273503,67.588539 92.2378368,67.7538812 C92.807533,68.0820396 93.5095828,68.0820396 94.0792789,67.7538812 C94.6455224,67.4277896 94.9960869,66.8263572 95,66.1739444 L95,7.49582465 C95,6.48126636 94.1757245,5.65868877 93.1585579,5.65868877 Z M3.68288428,63.234527 L3.68288428,9.33296052 L8.08393099,9.33296052 L8.08393099,55.4083282 C8.07242198,56.4228864 8.88749031,57.2546497 9.90442673,57.2661318 C10.0038646,57.26728 10.1033025,57.2603908 10.2015895,57.245464 C14.0110729,56.6651587 17.857155,56.3581274 21.7106028,56.3268961 C27.0484832,56.23458 32.3640362,57.0355713 37.4365187,58.6968014 C25.9815977,57.3148159 14.3625582,58.8768407 3.68288428,63.234527 Z M21.7106028,52.6709957 C18.3612498,52.6785739 15.0158097,52.8932891 11.6931576,53.3139933 L11.6931576,4.9789485 C15.2784454,4.18209082 18.9396928,3.77539487 22.6129095,3.76643883 C29.4999031,3.76643883 39.0017445,5.34637568 45.5941074,12.7684046 L45.6493506,58.5314591 C41.819151,56.0329543 34.3428959,52.6709957 21.7106028,52.6709957 Z M49.3322349,12.7684046 C55.9245978,5.41986111 65.4264392,3.76643883 72.3134328,3.76643883 C75.9864194,3.777232 79.6476667,4.18369831 83.2331847,4.9789485 L83.2331847,53.3139933 C79.9291772,52.8893852 76.6021516,52.6684696 73.2709827,52.6526243 C60.7123474,52.6526243 53.2176778,56.014583 49.3322349,58.5130878 L49.3322349,12.7684046 L49.3322349,12.7684046 Z M91.2987013,63.234527 C80.5962396,58.8648993 68.9504991,57.3026449 57.4714092,58.6968014 C62.5678305,57.0296006 67.9087032,56.2283797 73.2709827,56.3268961 C77.1485995,56.3484824 81.0195411,56.6493134 84.8536538,57.2270927 C85.8590812,57.3793453 86.7979865,56.6895008 86.950596,55.6864246 C86.9655578,55.5883675 86.9724632,55.4891621 86.9713123,55.3899568 L86.9713123,9.33296052 L91.372359,9.33296052 L91.2987013,63.234527 Z" id="Shape"></path>
                </g>
            </g>
        </g>
    </g>
</svg>