<?xml version="1.0" encoding="UTF-8"?>
<svg width="62px" height="68px" viewBox="0 0 62 68" version="1.1" xmlns="http://www.w3.org/2000/svg" xmlns:xlink="http://www.w3.org/1999/xlink">
    <title>brain</title>
    <g id="Page-1" stroke="none" stroke-width="1" fill="none" fill-rule="evenodd">
        <g id="Вступ-на-програми-молодшого-спеціаліста" transform="translate(-535.000000, -983.000000)" fill="#DE3737" fill-rule="nonzero">
            <g id="Поруч-із-метро" transform="translate(443.000000, 878.000000)">
                <g id="brain" transform="translate(92.500000, 105.000000)">
                    <path d="M37.5,11 C36.672,11 36,11.672 36,12.5 C36,13.328 36.672,14 37.5,14 C38.328,14 39,13.328 39,12.5 C39,11.672 38.328,11 37.5,11 Z" id="Path"></path>
                    <path d="M23.5,11 C22.672,11 22,11.672 22,12.5 C22,13.328 22.672,14 23.5,14 C24.328,14 25,13.328 25,12.5 C25,11.672 24.328,11 23.5,11 Z" id="Path"></path>
                    <path d="M59.2923978,39.6952656 C60.4305783,37.984375 61,35.8496797 61,34 C61,31.2114687 59.7631587,28.6206953 57.6407565,26.8638516 C58.1104565,25.7397266 58.3478261,24.5705781 58.3478261,23.375 C58.3478261,19.6755078 56.1921391,16.2292891 52.9871196,14.62 C53.4733957,10.5806406 50.8453565,6.87809375 46.9507717,5.93366406 C45.4264348,2.4044375 42.0336413,0 38.4565217,0 C35.1267174,0 32.140237,1.94517188 30.5,4.783375 C28.8596304,1.94517188 25.87315,0 22.5434783,0 C18.9660935,0 15.5733,2.4044375 14.0492283,5.93379687 C10.1313043,6.88420312 7.52793043,10.6052109 8.01288043,14.62 C4.80799348,16.2291562 2.65217391,19.6755078 2.65217391,23.375 C2.65217391,24.5705781 2.88954348,25.7397266 3.35924348,26.8638516 C1.2368413,28.6208281 0,31.2114687 0,34 C0,35.859375 0.574195652,37.9912813 1.70760217,39.6951328 C0.600054348,41.2609922 0,43.1167813 0,45.0234375 C0,47.495875 1.00093043,49.8511719 2.77138913,51.6000469 C1.86116304,57.1107031 6.24918478,62.6875 11.9347826,62.6875 C11.9758913,62.6875 12.016337,62.6868359 12.055987,62.6856406 C13.9410196,65.9424688 17.4400326,68 21.2173913,68 C25.1542783,68 28.6721217,65.6332812 30.5,62.2234531 C32.3278783,65.6332812 35.8457217,68 39.7826087,68 C43.5599674,68 47.0589804,65.9424688 48.944013,62.6856406 C48.9837957,62.6868359 49.0241087,62.6875 49.0652174,62.6875 C54.0969217,62.6875 58.3478261,58.2475781 58.3478261,52.9921875 C58.3478261,52.5447422 58.3085739,52.0845469 58.2286109,51.6000469 C59.9990696,49.8511719 61,47.4960078 61,45.0234375 C61,43.1167813 60.3999457,41.2609922 59.2923978,39.6952656 Z M29.173913,20.1052891 C28.393113,19.6517344 27.4875283,19.390625 26.5217391,19.390625 C25.7893413,19.390625 25.1956522,19.9852266 25.1956522,20.71875 C25.1956522,21.4522734 25.7893413,22.046875 26.5217391,22.046875 C27.9841478,22.046875 29.173913,23.2384688 29.173913,24.703125 L29.173913,49.9599453 C27.2284109,47.7498125 24.3836891,46.3515625 21.2173913,46.3515625 C20.4849935,46.3515625 19.8913043,46.9461641 19.8913043,47.6796875 C19.8913043,48.4132109 20.4849935,49.0078125 21.2173913,49.0078125 C25.6046174,49.0078125 29.173913,52.5825937 29.173913,56.9765625 C29.173913,61.5119766 25.5302239,65.34375 21.2173913,65.34375 C18.1472348,65.34375 15.3209457,63.5254141 14.0168717,60.71125 C13.7764522,60.1926172 13.2319609,59.88675 12.664263,59.9507656 C12.5705087,59.9615234 12.4772848,59.9740078 12.3840609,59.9867578 C8.61001739,60.5036641 4.3599087,56.2235156 5.51042174,51.4353594 C5.62857609,50.9435547 5.45751087,50.4274453 5.06936522,50.1039141 C3.53322609,48.8237344 2.65217391,46.9719297 2.65217391,45.0234375 C2.65217391,43.8186953 2.99231522,42.6397188 3.62525652,41.6059063 C5.21576522,42.9114531 7.19415435,43.6953125 9.2826087,43.6953125 C10.0150065,43.6953125 10.6086957,43.1007109 10.6086957,42.3671875 C10.6086957,41.6336641 10.0150065,41.0390625 9.2826087,41.0390625 C5.6837413,41.0390625 2.65217391,37.7492969 2.65217391,34 C2.65217391,31.7255859 3.80971522,29.6332578 5.74885217,28.4030156 C6.34625435,28.0239687 6.54158696,27.2421016 6.19269348,26.6259844 C5.60324783,25.5848672 5.30434783,24.4910234 5.30434783,23.375 C5.30434783,19.7903906 8.22200435,16.3359375 11.9347826,16.3359375 C15.4669478,16.3359375 18.5652174,19.6253047 18.5652174,23.375 C18.5652174,24.1085234 19.1589065,24.703125 19.8913043,24.703125 C20.6237022,24.703125 21.2173913,24.1085234 21.2173913,23.375 C21.2173913,18.1196094 16.966487,13.6796875 11.9347826,13.6796875 C11.4908087,13.6796875 11.0492217,13.7156797 10.6120109,13.7838125 C10.6113478,13.7488828 10.6086957,13.7148828 10.6086957,13.6796875 C10.6086957,10.7157109 13.0111674,8.3671875 15.9130435,8.3671875 C17.3295696,8.3671875 18.6620217,8.91982031 19.6648087,9.92308594 C20.1829109,10.4414531 21.0224565,10.4409219 21.5401609,9.92215625 C22.0577326,9.403125 22.0573348,8.56228906 21.5392326,8.04392188 C20.3294435,6.83360156 18.7992717,6.06169531 17.141,5.80589844 C18.3104761,4.06725 20.2551826,2.65625 22.5434783,2.65625 C26.0756435,2.65625 29.173913,5.94548437 29.173913,9.6953125 L29.173913,20.1052891 Z M51.7173913,43.6953125 C53.8059783,43.6953125 55.7843674,42.9113203 57.3748761,41.6063047 C58.0076848,42.6399844 58.3478261,43.8188281 58.3478261,45.0234375 C58.3478261,46.9719297 57.4667739,48.8237344 55.9307674,50.1039141 C55.5424891,50.4274453 55.3715565,50.9436875 55.4897109,51.4353594 C55.6302761,52.0201328 55.6956522,52.5148594 55.6956522,52.9920547 C55.6956522,57.1145547 51.972663,60.4462891 48.6160717,59.9867578 C48.5228478,59.9740078 48.4294913,59.9613906 48.335737,59.9507656 C47.7672435,59.8863516 47.2234152,60.1926172 46.9832609,60.71125 C45.679187,63.5254141 42.8526326,65.34375 39.7826087,65.34375 C35.4697761,65.34375 31.826087,61.5119766 31.826087,56.9765625 C31.826087,52.5825937 35.3953826,49.0078125 39.7826087,49.0078125 C40.5148739,49.0078125 41.1086957,48.4132109 41.1086957,47.6796875 C41.1086957,46.9461641 40.5148739,46.3515625 39.7826087,46.3515625 C36.6163109,46.3515625 33.7715891,47.7498125 31.826087,49.9599453 L31.826087,24.703125 C31.826087,23.2384688 33.0158522,22.046875 34.4782609,22.046875 C35.2105261,22.046875 35.8043478,21.4522734 35.8043478,20.71875 C35.8043478,19.9852266 35.2105261,19.390625 34.4782609,19.390625 C33.5124717,19.390625 32.606887,19.6517344 31.826087,20.1052891 L31.826087,9.6953125 C31.826087,5.94548437 34.9243565,2.65625 38.4565217,2.65625 C40.7448174,2.65625 42.6893913,4.06725 43.8588674,5.80576562 C42.2007283,6.0615625 40.6706891,6.83346875 39.4607674,8.04378906 C38.9425326,8.56215625 38.9420022,9.40299219 39.4595739,9.92202344 C39.9771457,10.4410547 40.8169565,10.4414531 41.3349261,9.92308594 C42.3381109,8.91982031 43.6704304,8.3671875 45.0869565,8.3671875 C48.0034196,8.3671875 50.3913043,10.7295234 50.3913043,13.6796875 C50.3913043,13.71475 50.3886522,13.7488828 50.3879891,13.7838125 C49.9507783,13.7156797 49.5091913,13.6796875 49.0652174,13.6796875 C44.033513,13.6796875 39.7826087,18.1196094 39.7826087,23.375 C39.7826087,24.1085234 40.3764304,24.703125 41.1086957,24.703125 C41.8409609,24.703125 42.4347826,24.1085234 42.4347826,23.375 C42.4347826,19.6253047 45.5330522,16.3359375 49.0652174,16.3359375 C52.7758739,16.3359375 55.6956522,19.7886641 55.6956522,23.375 C55.6956522,24.4910234 55.3967522,25.5848672 54.8073065,26.6259844 C54.4585457,27.2421016 54.6538783,28.0239688 55.2512804,28.4030156 C57.1902848,29.6332578 58.3478261,31.7255859 58.3478261,34 C58.3478261,37.7627109 55.30565,41.0390625 51.7173913,41.0390625 C50.9851261,41.0390625 50.3913043,41.6336641 50.3913043,42.3671875 C50.3913043,43.1007109 50.9851261,43.6953125 51.7173913,43.6953125 Z" id="Shape"></path>
                    <path d="M26.6604253,28.4070667 C26.1694911,27.8582667 25.3266898,27.8113333 24.7777556,28.3022667 C20.5020153,32.1269333 13.666671,29.0702667 13.666671,23.3333333 C13.666671,22.5969333 13.0697367,22 12.3333355,22 C11.5969343,22 11,22.5969333 11,23.3333333 C11,27.962 14.3876055,31.8126667 18.8133459,32.5409333 C18.3000118,34.158 16.7848093,35.3333333 15,35.3333333 C14.2636053,35.3333333 13.666671,35.9302667 13.666671,36.6666667 C13.666671,37.4030667 14.2636053,38 15,38 C18.2476117,38 20.9586827,35.6653333 21.5469504,32.5864 C23.40122,32.3438667 25.1464228,31.5504 26.5556251,30.2897333 C27.104426,29.7988 27.1513594,28.9558667 26.6604253,28.4070667 Z" id="Path"></path>
                    <path d="M11.375,52 C10.6155875,52 10,52.5933373 10,53.3253012 C10,54.0572651 10.6155875,54.6506024 11.375,54.6506024 C15.03745,54.6506024 18.25,57.9329759 18.25,61.6746988 C18.25,62.4066627 18.8655875,63 19.625,63 C20.3844125,63 21,62.4066627 21,61.6746988 C21,56.4304819 16.5923,52 11.375,52 Z" id="Path"></path>
                    <path d="M22.6607427,41 C18.1225354,41 14.2261003,43.4558517 12.1743581,47.0267143 C11.8096784,47.6616547 12.0356111,48.4681149 12.6789903,48.8279365 C13.3225034,49.1877581 14.1397182,48.9649673 14.5045319,48.3300269 C16.1029355,45.5476533 19.1358175,43.6428321 22.6607427,43.6428321 C23.4004145,43.6428321 24,43.0512341 24,42.321416 C24,41.591598 23.4004145,41 22.6607427,41 Z" id="Path"></path>
                    <path d="M46,35.3333333 C44.21521,35.3333333 42.7000126,34.158 42.1866801,32.5409333 C46.6124058,31.8126667 50,27.962 50,23.3333333 C50,22.5969333 49.4029344,22 48.666669,22 C47.9304036,22 47.3333379,22.5969333 47.3333379,23.3333333 C47.3333379,27.0093333 44.3426764,30 40.6666827,30 C39.0245522,30 37.4462883,29.3970667 36.2222904,28.3022667 C35.6736247,27.8113333 34.8305594,27.8581333 34.339627,28.4070667 C33.8485611,28.9558667 33.8956277,29.7988 34.4444268,30.2897333 C35.8536243,31.5504 37.5989547,32.3438667 39.4530848,32.5864 C40.0413505,35.6653333 42.7524125,38 46,38 C46.7362723,38 47.3333379,37.4030667 47.3333379,36.6666667 C47.3333379,35.9302667 46.7362723,35.3333333 46,35.3333333 Z" id="Path"></path>
                    <path d="M49.625,52 C44.4077,52 40,56.4304819 40,61.6746988 C40,62.4066627 40.615725,63 41.375,63 C42.134275,63 42.75,62.4066627 42.75,61.6746988 C42.75,57.9329759 45.96255,54.6506024 49.625,54.6506024 C50.384275,54.6506024 51,54.0572651 51,53.3253012 C51,52.5933373 50.384275,52 49.625,52 Z" id="Path"></path>
                    <path d="M48.8257376,47.0267768 C46.779068,43.4644125 42.8879584,41 38.3392681,41 C37.5997243,41 37,41.5915911 37,42.3214008 C37,43.0512104 37.5997243,43.6428016 38.3392681,43.6428016 C41.8616772,43.6428016 44.8968606,45.5470722 46.4952771,48.3299423 C46.8604956,48.9656682 47.6783866,49.1873992 48.3208335,48.8279782 C48.9643519,48.4681608 49.1902864,47.6617099 48.8257376,47.0267768 Z" id="Path"></path>
                </g>
            </g>
        </g>
    </g>
</svg>