<svg width="266" height="56" viewBox="0 0 266 56" fill="none" xmlns="http://www.w3.org/2000/svg">
<path fill-rule="evenodd" clip-rule="evenodd" d="M131.885 50.6264C132.177 50.6264 132.37 50.8193 132.37 51.1062V55.5178C132.37 55.8071 132.177 56 131.885 56H115.554C115.266 56 115.074 55.8077 115.074 55.5178V51.1062C115.074 50.8199 115.266 50.6264 115.554 50.6264H131.885ZM110.562 0C110.704 0 110.823 0.0485339 110.907 0.13129L110.909 0.131913L110.928 0.154935C110.999 0.237069 111.042 0.347826 111.042 0.479739V55.5134C111.042 55.6391 111.004 55.7449 110.938 55.8252C110.856 55.9322 110.724 55.995 110.562 55.995H0.480471C0.371697 55.995 0.278462 55.9689 0.202009 55.9204V55.9197L0.175282 55.8986C0.0652644 55.8146 0 55.6833 0 55.5153V0.480361C0 0.269425 0.104423 0.110135 0.274732 0.0398227L0.284056 0.0354671L0.348077 0.0168002L0.376047 0.00933344L0.480471 0H110.562ZM247.92 53.2193C247.634 53.2193 247.442 53.0251 247.442 52.7333V48.8612C247.442 48.5718 247.633 48.3752 247.92 48.3752H248.783C250.602 48.3752 251.515 47.5557 252.232 45.6175L252.903 43.6326L244.473 21.6498C244.376 21.3586 244.568 21.1645 244.857 21.1645H249.597C249.884 21.1645 250.077 21.3586 250.17 21.6498L255.393 36.9025H255.487L260.469 21.6498C260.565 21.3586 260.757 21.1645 261.042 21.1645H265.59C265.88 21.1645 266.072 21.3586 265.974 21.6498L257.164 45.9566C255.153 51.477 253.235 53.2186 249.405 53.2186L247.918 53.2205L247.92 53.2193ZM105.201 50.6264L105.298 50.619L105.326 50.6096L105.39 50.5922L105.4 50.5879C105.568 50.5188 105.672 50.3601 105.673 50.1504V5.85331C105.673 5.64175 105.57 5.48308 105.399 5.41277L105.389 5.40842L105.324 5.39099L105.296 5.38166L105.196 5.37419H5.84272L5.74327 5.38166L5.65004 5.40779L5.64009 5.41215C5.4704 5.48308 5.36598 5.64051 5.36598 5.85269V50.1498C5.3666 50.3589 5.4704 50.5175 5.64009 50.5866L5.64941 50.591L5.71468 50.6084L5.74327 50.6177L5.84086 50.6252V50.6271H105.2L105.201 50.6264ZM10.7885 38.5969C10.3093 37.1421 10.0719 35.3053 10.0719 32.8357C10.0719 30.3654 10.3093 28.5248 10.7885 27.0732C12.1274 22.9086 15.674 20.6331 20.3178 20.6331C23.7662 20.6331 26.4974 22.0375 28.3192 24.2657C28.4596 24.458 28.5075 24.7479 28.2707 24.9414L25.2549 27.6052C25.0143 27.8 24.7756 27.7514 24.5829 27.51C23.4324 26.2033 22.2353 25.4753 20.3196 25.4753C18.261 25.4753 16.6816 26.4926 16.0097 28.5261C15.6293 29.6909 15.5317 31.0449 15.5317 32.8363C15.5317 34.6271 15.6287 36.0308 16.0097 37.1937C16.681 39.1768 18.261 40.1941 20.3196 40.1941C22.2353 40.1941 23.4324 39.4674 24.5829 38.1632C24.7756 37.918 25.0143 37.918 25.2549 38.1122L28.2707 40.7759C28.5075 40.9688 28.4596 41.2115 28.3192 41.4541C26.4986 43.6344 23.7674 45.0369 20.3178 45.0369C15.674 45.0351 12.1274 42.7577 10.7885 38.5963V38.5969ZM115.434 38.5969C114.955 37.1421 114.717 35.3053 114.717 32.8357C114.717 30.3654 114.955 28.5248 115.434 27.0732C116.775 22.9086 120.318 20.6331 124.963 20.6331C128.412 20.6331 131.144 22.0375 132.963 24.2657C133.105 24.458 133.155 24.7479 132.914 24.9414L129.897 27.6052C129.657 27.8 129.419 27.7514 129.227 27.51C128.079 26.2033 126.881 25.4753 124.963 25.4753C122.905 25.4753 121.324 26.4926 120.655 28.5261C120.271 29.6909 120.177 31.0449 120.177 32.8363C120.177 34.6271 120.271 36.0308 120.655 37.1937C121.324 39.1768 122.905 40.1941 124.963 40.1941C126.88 40.1941 128.079 39.4674 129.227 38.1632C129.419 37.918 129.658 37.918 129.897 38.1122L132.914 40.7759C133.155 40.9688 133.106 41.2115 132.963 41.4541C131.144 43.6344 128.412 45.0369 124.963 45.0369C120.319 45.0351 116.776 42.7577 115.434 38.5963V38.5969ZM150.342 28.8976C150.277 26.3788 148.996 25.2326 145.223 25.2326C142.635 25.2326 141.056 25.9613 139.954 26.8311C139.713 27.0253 139.43 26.9767 139.281 26.7341L137.513 23.5364C137.368 23.295 137.418 23.0561 137.607 22.9086C139.476 21.5528 142.013 20.6331 145.797 20.6331C152.837 20.6331 155.423 23.0561 155.421 28.7688V44.0215C155.421 44.3133 155.229 44.5068 154.942 44.5068H150.919C150.633 44.5068 150.439 44.3127 150.439 44.0215V42.3265H150.393C149.291 43.9244 147.135 45.0369 143.881 45.0369C139.668 45.0369 136.121 42.8112 136.121 37.9193C136.121 32.8381 139.668 30.5104 145.367 30.5104L147.046 30.511H147.276C147.563 30.511 147.756 30.7039 147.756 30.9932V34.0975C147.756 34.3856 147.563 34.5798 147.276 34.5798L146.228 34.5779C142.781 34.5779 141.247 35.5486 141.247 37.7289C141.247 39.6646 142.635 40.6303 145.223 40.6303C148.526 40.6303 150.345 39.3255 150.345 36.663V29.1085L150.343 28.9274V28.8969H150.343L150.342 28.8976ZM85.9899 35.6463C86.0502 36.009 86.1466 36.3432 86.2622 36.6617C87.0286 38.936 88.8504 40.1941 91.4336 40.1941C94.02 40.1941 95.6963 39.2266 96.8437 37.9666C97.0843 37.727 97.323 37.6766 97.5641 37.8695L100.387 40.3864C100.626 40.5824 100.626 40.8238 100.436 41.0646C98.4741 43.3887 95.2146 45.0351 90.9538 45.0351C86.0695 45.0351 82.6223 42.614 81.3301 38.5483C80.8483 37.0457 80.5127 35.2555 80.5127 32.8344C80.5127 30.4133 80.8023 28.5728 81.2791 27.0719C82.5738 23.0044 86.1167 20.6331 90.7145 20.6331C95.4564 20.6331 98.903 23.1015 100.198 27.0719C100.723 28.7165 100.965 30.315 100.965 34.095C100.965 34.3831 100.773 34.5754 100.437 34.5754H88.5775C88.4526 34.5754 88.3705 34.4914 88.3705 34.3663V30.7151C88.3705 30.59 88.4526 30.5073 88.5775 30.5073L88.9716 30.5079L88.971 30.5085H95.2631C95.4551 30.5085 95.5502 30.4133 95.5502 30.2204C95.5502 29.3953 95.4564 28.8179 95.2631 28.2336C94.6403 26.3458 92.9192 25.232 90.7636 25.232C88.5589 25.232 86.8346 26.3452 86.2118 28.2336C86.1348 28.4713 86.072 28.7103 86.0266 28.9641V28.9635L86.021 28.994L86.0136 29.0357C85.8252 30.1134 85.7488 30.9621 85.7115 32.29C85.7115 33.6993 85.814 34.6588 85.9881 35.6444H85.9887L85.9899 35.6463ZM188.797 35.6463C188.855 36.009 188.952 36.3432 189.067 36.6617C189.834 38.936 191.656 40.1941 194.239 40.1941C196.827 40.1941 198.502 39.2266 199.65 37.9666C199.891 37.727 200.129 37.6766 200.37 37.8695L203.193 40.3864C203.432 40.5824 203.432 40.8238 203.242 41.0646C201.28 43.3887 198.02 45.0351 193.76 45.0351C188.875 45.0351 185.427 42.614 184.136 38.5483C183.654 37.0457 183.318 35.2555 183.318 32.8344C183.318 30.4133 183.608 28.5728 184.085 27.0719C185.38 23.0044 188.923 20.6331 193.521 20.6331C198.261 20.6331 201.709 23.1015 203.003 27.0719C203.528 28.7165 203.769 30.315 203.769 34.095C203.769 34.3831 203.577 34.5754 203.242 34.5754H191.38C191.257 34.5754 191.173 34.4914 191.173 34.3663V30.7151C191.173 30.59 191.257 30.5073 191.38 30.5073L191.777 30.5079V30.5085H198.069C198.262 30.5085 198.357 30.4133 198.357 30.2204C198.357 29.3953 198.262 28.8179 198.069 28.2336C197.447 26.3458 195.726 25.232 193.57 25.232C191.365 25.232 189.64 26.3452 189.018 28.2336C188.941 28.4713 188.88 28.7103 188.832 28.9641V28.9635L188.826 28.994L188.819 29.0357C188.63 30.1134 188.553 30.9621 188.518 32.29C188.518 33.6993 188.62 34.6588 188.796 35.6444H188.796L188.797 35.6463ZM179.095 11.5803C179.381 11.5803 179.573 11.7732 179.577 12.0619V44.0171C179.577 44.3108 179.384 44.5025 179.097 44.5025H174.691C174.401 44.5025 174.209 44.3102 174.209 44.0171V42.2749H174.163C173.063 43.8752 171.147 45.0345 168.033 45.0345C164.107 45.0345 161.232 43.1454 160.035 39.4176C159.46 37.6274 159.222 35.9792 159.222 32.8332C159.222 29.6878 159.46 28.0408 160.035 26.2469C161.218 22.5595 164.045 20.6742 167.905 20.6337V20.6331H168.098L170.94 20.6337H171.17C171.458 20.6337 171.65 20.8266 171.65 21.116V24.9956C171.65 25.2837 171.458 25.4772 171.17 25.4772L169.29 25.4766C167.205 25.5182 165.769 26.5804 165.156 28.4788C164.821 29.5409 164.678 30.7058 164.678 32.8344C164.678 34.9649 164.823 36.1254 165.156 37.1919C165.781 39.1276 167.265 40.1935 169.419 40.1935C171.618 40.1935 173.106 39.1276 173.729 37.1919C173.985 36.3687 174.13 35.4907 174.183 34.1542H174.206V12.0613C174.206 11.7738 174.398 11.5797 174.686 11.5797H179.092L179.095 11.5803ZM32.7255 38.5981C32.199 36.9492 31.9591 35.4005 31.9591 32.835C31.9591 30.2733 32.1984 28.7227 32.7255 27.08C34.0183 23.0125 37.5594 20.6393 42.2522 20.6393C46.8953 20.6393 50.4382 23.0119 51.7311 27.08C52.2551 28.7227 52.4962 30.2727 52.4962 32.835C52.4962 35.4005 52.2551 36.9492 51.7311 38.5981C50.437 42.6625 46.8953 45.0345 42.2522 45.0345C37.56 45.0351 34.0189 42.6638 32.7255 38.5981ZM76.0641 11.5803C76.3513 11.5803 76.5434 11.7726 76.5415 12.0607V43.9711C76.5415 44.2629 76.3494 44.4552 76.0623 44.4552H71.6635C71.3744 44.4552 71.1824 44.2623 71.1824 43.9711V42.2307H71.1357C70.0387 43.8286 68.1255 44.9865 65.0152 44.9865C61.095 44.9865 58.2252 43.1012 57.0299 39.3771C56.4556 37.5901 56.2169 35.9456 56.2169 32.8039C56.2169 29.6635 56.4556 28.0171 57.0299 26.2257C58.2122 22.544 61.0341 20.6624 64.8896 20.6213V20.6207H66.6518L68.151 20.6263C68.2554 20.6393 68.3263 20.7146 68.3263 20.8279L68.302 25.2482C68.302 25.3527 68.2424 25.4243 68.151 25.4467H66.2732C64.1922 25.4884 62.7583 26.5592 62.146 28.4545C61.8123 29.5154 61.6705 30.6778 61.6705 32.8039C61.6705 34.9307 61.8123 36.0899 62.146 37.1552C62.7707 39.0872 64.2519 40.15 66.4038 40.15C68.601 40.15 70.0865 39.0872 70.7081 37.1552C70.9642 36.3332 71.109 35.4559 71.16 34.1212H71.1842V12.0607C71.1842 11.7732 71.3751 11.5803 71.6653 11.5803H76.0641ZM212.528 44.5043H208.122C207.833 44.5043 207.644 44.312 207.644 44.019V21.6486C207.644 21.3574 207.833 21.1633 208.122 21.1633H212.528C212.816 21.1633 213.008 21.3574 213.008 21.6486V23.3435H213.056C214.063 21.8906 216.073 20.6325 219.137 20.6325C221.868 20.6325 224.071 21.7438 225.458 23.73H225.507C227.278 21.7954 229.578 20.6325 232.883 20.6325C238.245 20.6325 241.265 24.3117 241.265 29.2995V44.0184C241.265 44.3114 241.073 44.5043 240.784 44.5043H236.381C236.094 44.5043 235.903 44.312 235.903 44.019V30.5595C235.903 27.5573 234.417 25.4741 231.543 25.4741C228.766 25.4741 227.138 27.556 227.138 30.5595V44.019C227.138 44.3108 226.945 44.5043 226.66 44.5043H222.252C221.964 44.5043 221.772 44.312 221.772 44.019V30.5595C221.772 27.5573 220.287 25.4741 217.418 25.4741C214.639 25.4741 213.009 27.556 213.009 30.5595V44.019C213.009 44.3108 212.818 44.5043 212.53 44.5043H212.528ZM46.5603 37.1458C46.9444 35.9375 47.0395 34.8218 47.0395 32.8357C47.0395 30.8551 46.9444 29.7886 46.5603 28.5311C45.8908 26.5966 44.4059 25.4803 42.2522 25.4803C40.0997 25.4803 38.5651 26.5966 37.8963 28.5311C37.5152 29.7892 37.4183 30.8551 37.4183 32.8357C37.4183 34.8218 37.5152 35.9368 37.8963 37.1458C38.5644 39.0841 40.1003 40.1941 42.2522 40.1941C44.4059 40.1935 45.8908 39.0835 46.5603 37.1458Z" fill="#204156"/>
</svg>
