<?xml version="1.0" encoding="UTF-8"?>
<svg width="73px" height="68px" viewBox="0 0 73 68" version="1.1" xmlns="http://www.w3.org/2000/svg" xmlns:xlink="http://www.w3.org/1999/xlink">
    <title>document</title>
    <g id="Page-1" stroke="none" stroke-width="1" fill="none" fill-rule="evenodd">
        <g id="Вступ-на-програми-молодшого-спеціаліста" transform="translate(-1145.000000, -983.000000)" fill="#DE3737" fill-rule="nonzero">
            <g id="Якісна-освіта" transform="translate(1059.000000, 878.000000)">
                <g id="document" transform="translate(86.000000, 105.000000)">
                    <path d="M18.585656,0 C14.0179458,0 10.3011864,3.70452658 10.3011864,8.24076016 L10,50.9674791 L14.5187887,51 L14.8201169,8.2574485 C14.8201169,6.2104879 16.5093983,4.54536225 18.5857978,4.54536225 L64,4.54536225 L64,0 L18.585656,0 Z" id="Path"></path>
                    <path d="M64.3671797,0 C59.6070664,0 55.7343594,3.9072556 55.7343594,8.71015471 L55.7343594,57.0741849 C55.7343594,60.5704458 52.9143066,63.415761 49.4490879,63.415761 C45.9838691,63.415761 43.1638164,60.5704458 43.1638164,57.0741849 L43.1638164,51.4966247 C43.1638164,50.2305536 42.1468066,49.2044333 40.8919766,49.2044333 L2.27183984,49.2044333 C1.01700977,49.2044333 0,50.2305536 0,51.4966247 L0,57.0741849 C0,63.0987038 4.8577793,68 10.8288086,68 L10.8288086,63.415761 C7.36287695,63.415761 4.54353711,60.5704458 4.54353711,57.0741849 L4.54353711,53.7886722 L38.6202793,53.7886722 L38.6202793,57.0740411 C38.6202793,63.09856 43.4780586,68 49.4490879,68 C55.4201172,68 60.2778965,63.09856 60.2778965,57.0740411 L60.2778965,21.2403887 L70.7281602,21.2403887 C71.9829902,21.2403887 73,20.2142683 73,18.9481973 L73,8.71001085 C73,3.9072556 69.1274355,0 64.3671797,0 Z M68.4564629,16.6561497 L60.2780391,16.6561497 L60.2780391,8.71001085 C60.2780391,6.43465053 62.112877,4.58423895 64.3671797,4.58423895 C66.6214824,4.58423895 68.4563203,6.43479438 68.4563203,8.71001085 L68.4563203,16.6561497 L68.4564629,16.6561497 Z" id="Shape"></path>
                    <rect id="Rectangle" x="10" y="63" width="39" height="5"></rect>
                    <path d="M33.7674093,13 L22.2325907,13 C20.9994395,13 20,14.1191477 20,15.5 C20,16.8808523 20.9994395,18 22.2325907,18 L33.7674093,18 C35.0005605,18 36,16.8808523 36,15.5 C36,14.1191477 35.0004203,13 33.7674093,13 Z" id="Path"></path>
                    <path d="M47.7214683,22 L22.2785317,22 C21.0200054,22 20,23.1191477 20,24.5 C20,25.8808523 21.0200054,27 22.2785317,27 L47.7214683,27 C48.9799946,27 50,25.8808523 50,24.5 C50,23.1191477 48.9799946,22 47.7214683,22 Z" id="Path"></path>
                    <path d="M47.7214683,31 L22.2785317,31 C21.0200054,31 20,32.1191477 20,33.5 C20,34.8808523 21.0200054,36 22.2785317,36 L47.7214683,36 C48.9799946,36 50,34.8816368 50,33.5 C50,32.1191477 48.9799946,31 47.7214683,31 Z" id="Path"></path>
                    <path d="M47.7214683,40 L22.2785317,40 C21.0200054,40 20,41.1191477 20,42.5 C20,43.8808523 21.0200054,45 22.2785317,45 L47.7214683,45 C48.9799946,45 50,43.8808523 50,42.5 C50,41.1191477 48.9799946,40 47.7214683,40 Z" id="Path"></path>
                </g>
            </g>
        </g>
    </g>
</svg>