<svg width="159" height="56" viewBox="0 0 159 56" fill="none" xmlns="http://www.w3.org/2000/svg">
<path fill-rule="evenodd" clip-rule="evenodd" d="M30.5175 35.2531V25.0294H30.545V24.9765H46V9.9588C46 3.31077 42.48 0 35.66 0H34.34C27.4375 0 24 3.39023 24 10.7269V35.8358C24 41.6892 27.52 45 34.34 45H35.66C42.5625 45 46 41.6098 46 35.0412V30.2472H39.785V35.2531C39.785 37.8752 38.465 39.1466 35.7425 39.1466H34.56C31.8375 39.1466 30.5175 37.8752 30.5175 35.2531ZM39.675 19.0171H30.5725V9.69394C30.5725 7.07181 31.8925 5.80047 34.615 5.80047H35.6325C38.355 5.80047 39.675 7.07181 39.675 9.69394V19.0171Z" fill="black"/>
<path fill-rule="evenodd" clip-rule="evenodd" d="M55.3011 0.477499H49V56H55.3011V41.7811C56.8091 43.2667 59.3133 44.9645 62.9755 44.9645C68.3341 44.9645 71 41.4893 71 36.2634V8.70109C71 3.52819 68.3611 0 62.9755 0C59.3941 0 56.8091 1.75083 55.3011 3.31596V0.477499ZM61.1175 39.0753C59.0441 39.0753 57.0245 38.306 55.3011 36.8205V8.11748C57.0245 6.71151 59.0441 5.86262 61.1175 5.86262C63.4871 5.86262 64.7797 6.92373 64.7797 9.47039V35.4676C64.7797 38.0142 63.4064 39.0753 61.1175 39.0753Z" fill="black"/>
<path fill-rule="evenodd" clip-rule="evenodd" d="M80.7459 19.5642C75.8448 21.1449 74 23.2956 74 28.6078H74.1652V36.4075C74.1652 41.2273 76.5607 44 81.7096 44C85.3717 44 87.7947 42.3934 89.5569 40.8127V43.5077H96V9.74323C96 3.2391 92.4756 0 85.6471 0H84.408C77.4969 0 74.0551 3.31684 74.0551 9.74323V15.5995H80.2778V9.53592C80.2778 6.97055 81.5995 5.59717 84.3254 5.59717H85.3442C88.0701 5.59717 89.3917 6.97055 89.3917 9.53592V16.7915L80.7459 19.5642ZM89.4193 22.1296V36.278C87.2716 37.6514 85.5094 38.2733 83.5544 38.351C81.4894 38.351 80.388 37.3145 80.388 35.2415V28.6855C80.388 26.1979 81.214 25.1095 83.5544 24.2026L89.4193 22.1296Z" fill="black"/>
<path d="M120.195 43.9476H113.964V8.9416C113.964 6.7652 112.899 5.79499 110.982 5.79499C109.278 5.79499 107.441 6.42431 105.231 7.97139V43.9476H99V0.47199H105.231V3.27771C107.015 1.59952 109.411 0 112.82 0C116.015 0 118.145 1.25864 119.263 3.56615C121.473 1.67819 124.083 0 127.704 0C132.524 0 135 2.93683 135 7.68296V44H128.769V8.9416C128.769 6.7652 127.704 5.79499 125.787 5.79499C124.083 5.79499 122.246 6.42431 120.036 7.97139V43.9476H120.195Z" fill="black"/>
<path d="M16 5V13.106L5.52922 22.9868L16 32.7351V41L0 26.0331V20.0993L16 5Z" fill="#00B5D1"/>
<path d="M159 20.0993V26.0331L143 41V32.7351L153.471 22.9868L143 13.053V5L159 20.0993Z" fill="#00B5D1"/>
</svg>
