<svg width="220" height="56" viewBox="0 0 220 56" fill="none" xmlns="http://www.w3.org/2000/svg">
<path fill-rule="evenodd" clip-rule="evenodd" d="M207.967 7C205.752 7 202.829 7.21353 201.797 7.21353C201.184 7.21353 198.856 7.13309 198.156 7.13309V7.69265C199.381 7.91682 200.046 8.34507 200.046 9.43698V25.2702C200.046 26.3935 199.364 26.8785 198.103 27.095V27.6676C198.803 27.6676 200.956 27.5741 201.595 27.5741C202.619 27.5741 205.332 27.7468 207.555 27.7468C215.274 27.7468 220 23.2852 220 17.2667C220 11.0701 215.466 7.00059 207.967 7.00059V7ZM116.581 7.05323C115.435 7.05323 112.512 7.21353 111.479 7.21353C110.849 7.21353 108.635 7.13309 107.926 7.13309V7.69265C109.257 7.90913 109.781 8.52489 109.781 9.49021V25.2176C109.781 26.3166 109.099 26.8785 107.926 27.095V27.6676C108.626 27.6676 110.884 27.5741 111.444 27.5741C112.092 27.5741 114.385 27.6676 115.085 27.6676V27.095C113.825 26.8324 113.142 26.271 113.142 25.2176V18.1728C113.501 18.2083 113.799 18.2545 114.123 18.3059C115.733 18.5603 116.617 19.2772 117.343 20.1833C118.498 21.6053 120.581 24.4877 121.719 25.8428C123.049 27.4067 124.397 28 126.13 28C126.917 28 127.968 27.8894 128.615 27.7468V27.3079C127.267 27.2482 125.972 25.9144 124.992 24.7379C123.994 23.5709 121.474 20.1484 120.581 19.1317C119.846 18.2994 119.128 17.8931 119.128 17.8931C122.332 17.1306 124.432 15.2928 124.432 12.553C124.432 9.08858 121.614 7.05323 116.581 7.05323ZM182.972 7.05323C181.816 7.05323 178.902 7.21353 177.869 7.21353C177.239 7.21353 175.034 7.13309 174.325 7.13309V7.69265C175.655 7.90913 176.189 8.52489 176.189 9.49021V25.2176C176.189 26.3166 175.497 26.8785 174.325 27.095V27.6676C175.025 27.6676 177.266 27.5741 177.826 27.5741C178.482 27.5741 180.784 27.6676 181.493 27.6676V27.095C180.224 26.8324 179.532 26.271 179.532 25.2176V18.1728C179.891 18.2083 180.198 18.2545 180.512 18.3059C182.123 18.5603 183.007 19.2772 183.733 20.1833C184.889 21.6053 186.884 24.4877 188.03 25.8428C189.352 27.4067 190.717 28 192.432 28C193.237 28 194.287 27.8894 194.935 27.7468V27.3079C193.579 27.2482 192.31 25.9144 191.312 24.7379C190.323 23.5709 187.864 20.1484 186.971 19.1317C186.236 18.2994 185.518 17.8931 185.518 17.8931C188.722 17.1306 190.822 15.2928 190.822 12.553C190.822 9.08858 188.004 7.05323 182.972 7.05323ZM92.6284 7.06684C92.6284 7.06684 92.2779 8.3989 91.9979 9.05132L85.277 24.8307C84.7868 25.954 84.0519 26.788 82.7211 27.095V27.6138L85.7714 27.5741C86.2088 27.5741 88.0382 27.6138 88.7422 27.6138V27.095C87.5608 26.788 87.2462 26.3373 87.2462 25.7766C87.2462 25.4098 87.4387 24.8467 87.5918 24.4581L88.9876 21.0889H96.8638L98.3696 24.4445C98.5791 24.939 98.7631 25.4157 98.7631 25.8428C98.7631 26.3349 98.4394 26.8478 97.4068 27.095L97.3892 27.6138C98.177 27.6138 100.452 27.5741 101.004 27.5741C101.555 27.5741 103.935 27.6138 104.705 27.6138V27.095C103.297 26.7496 102.736 25.9629 102.237 24.8704L95.1224 9.06374C94.8424 8.40481 94.5101 7.06684 94.5101 7.06684H92.6284ZM159.342 7.06684C159.342 7.06684 159.001 8.3989 158.721 9.05132L151.982 24.8307C151.501 25.954 150.774 26.788 149.453 27.095L149.444 27.6138L152.56 27.5741C152.988 27.5741 154.765 27.6138 155.456 27.6138V27.095C154.284 26.788 153.977 26.3373 153.977 25.7766C153.977 25.4098 154.144 24.8467 154.31 24.4581L155.693 21.0889H163.587L165.092 24.4445C165.311 24.939 165.477 25.4157 165.477 25.8428C165.477 26.3349 165.162 26.8478 164.129 27.095L164.112 27.6138C164.882 27.6138 167.175 27.5741 167.717 27.5741C168.26 27.5741 170.658 27.6138 171.428 27.6138V27.095C170.01 26.7496 169.468 25.9629 168.969 24.8704L161.854 9.06374C161.574 8.40481 161.224 7.06684 161.224 7.06684H159.342ZM57 7.13309V7.69265C58.0326 7.95527 58.6807 8.39653 58.6807 9.43698V25.3507C58.6807 26.442 57.9846 26.8785 57 27.095V27.6138L60.2818 27.5741C60.9123 27.5741 63.2793 27.6138 63.7956 27.6138V27.095C62.763 26.8324 62.0718 26.442 62.0718 25.3507V17.8268H74.2587V25.3507C74.2587 26.442 73.576 26.8785 72.5872 27.095V27.6138C73.1034 27.6138 75.4183 27.5741 76.0481 27.5741L79.387 27.6138V27.095C78.3502 26.8324 77.6498 26.3988 77.6498 25.3507V9.43698C77.6498 8.35217 78.3939 7.91682 79.387 7.69265V7.13309L76.0481 7.21353C75.4183 7.21353 73.1034 7.13309 72.5872 7.13309V7.69265C73.6197 7.91682 74.2587 8.35276 74.2587 9.43698V16.0819H62.0718V9.43698C62.0718 8.35217 62.811 7.91682 63.7956 7.69265V7.13309C63.2793 7.13309 60.9123 7.21353 60.2818 7.21353C59.7436 7.21353 57.5078 7.13309 57 7.13309ZM128.011 7.17331V7.74588C129.21 8.00851 129.919 8.73546 130.383 9.73036L138.68 27.7604H140.272L147.825 10.3958C148.534 8.77036 149.321 8.08304 150.599 7.74588V7.17331C149.864 7.17331 147.886 7.26617 147.414 7.26617C146.889 7.26617 145.234 7.17331 144.561 7.17331V7.74588C145.401 7.91032 146.014 8.34803 146.014 8.98448C146.014 9.5606 145.734 10.3148 145.322 11.2884L140.193 23.3266L134.759 11.3008C134.181 10.0498 133.866 9.39084 133.866 8.90463C133.866 8.23032 134.654 7.87424 135.328 7.74588V7.17331C134.566 7.17331 132.326 7.26617 131.801 7.26617C131.24 7.26617 128.755 7.17331 128.011 7.17331ZM115.592 8.35808C119.05 8.35808 120.958 10.0569 120.958 12.8328C120.958 14.78 119.715 16.9875 115.767 16.9875C114.796 16.9875 113.816 16.9496 113.142 16.868V8.57102C113.952 8.43853 114.771 8.36695 115.592 8.35808ZM182 8.35808C185.457 8.35808 187.347 10.0569 187.347 12.8328C187.347 14.78 186.105 16.9875 182.158 16.9875C181.186 16.9875 180.206 16.9496 179.532 16.868V8.57102C180.348 8.43793 181.173 8.36695 182 8.35808ZM206.969 8.35808C212.859 8.35808 216.307 12.1046 216.307 17.4406C216.307 22.5813 213.025 26.2693 206.733 26.2693C205.629 26.2693 204.212 26.1823 203.459 26.0563V8.57102C204.265 8.43734 205.77 8.35808 206.969 8.35808ZM92.7857 11.8337L96.1288 19.4375H89.6527L92.7857 11.8337ZM159.508 11.8337L162.843 19.4375H156.384L159.508 11.8337Z" fill="#231F20"/>
<path fill-rule="evenodd" clip-rule="evenodd" d="M23.4807 1.00114L1.04694 1.00664L1 19.2344C1 41.5821 23.0637 55.8148 23.2839 55.956L23.3513 56C23.4121 56 23.5506 55.8985 23.5506 55.8985C27.3036 53.4104 46 39.9351 46 19.3488V1.03843C45.9525 0.992579 23.4807 1.00053 23.4807 1.00053" fill="#A62131"/>
<path fill-rule="evenodd" clip-rule="evenodd" d="M45.9555 1.06024C45.947 7.12519 46.0709 13.1104 45.9385 19.2672C45.8329 23.4568 44.9504 27.6054 43.3965 31.4883C39.7418 40.6192 32.7408 48.2208 24.7972 53.6964C24.1368 54.1511 23.4655 54.5876 22.7741 55C18.1088 52.033 13.9382 48.1701 10.3685 43.9629C4.4395 36.9742 0.176026 28.3951 0.00789082 18.8711L0 18.7479V0H45.9574L45.9555 1.06024ZM0.812148 18.603C0.921405 29.7325 7.24742 40.3209 15.2347 47.94C17.5735 50.171 20.0651 52.2486 22.7523 54.0303L22.7875 54.0533C27.1177 51.3924 31.0164 47.9418 34.3949 44.1676C40.648 37.1813 45.0839 28.3178 45.141 18.594C45.1525 12.7578 45.1404 6.91991 45.1482 1.05903L45.1488 0.803025H0.807292L0.810327 17.9449L0.812148 18.603Z" fill="#231F20"/>
<path fill-rule="evenodd" clip-rule="evenodd" d="M34.7352 21.4713C34.7352 21.4713 34.3505 22.6829 32.6404 21.4378L26.7698 21.2976C26.7698 21.2976 26.0011 21.5417 25.8966 20.7473C25.8966 20.7473 26.0373 19.159 25.9661 19.02C25.9661 19.02 26.0011 18.5717 25.23 18.5717C25.23 18.5717 24.044 18.7096 24.0084 17.6716C24.0084 17.6716 23.8013 16.5668 25.442 16.6033C25.442 16.6033 25.9661 16.8444 26.0011 16.1866C26.0011 16.1866 25.9323 11.6953 25.9661 11.3521C25.9661 11.3521 26.1068 10.9396 25.3013 10.8692C25.3013 10.8692 24.1491 11.1103 24.0084 10.3523C24.0084 10.3523 23.9396 9.21291 24.7095 9.14188C24.7095 9.14188 25.6521 9.21291 25.826 8.96939C25.826 8.96939 26.0373 9.10607 26.0011 8.28121L26.0373 6.86187C26.0373 6.86187 26.1382 6.48346 26.7336 6.52046C26.7336 6.52046 27.8175 6.58851 27.9594 6.48346C27.9594 6.48346 28.2009 6.17428 28.2722 6.03342C28.2722 6.03342 28.8326 6 28.9358 6.13907C28.9358 6.13907 29.7752 6.69176 32.9544 6.48346C32.9544 6.48346 33.4447 6.48346 33.5468 6.62253C33.5468 6.62253 34.1428 7.07017 34.4912 6.58851C34.4912 6.58851 35.0154 6.48346 36.5866 6.52046C36.5866 6.52046 38.3015 6.96751 39.4862 6L39.8715 6.06983C39.8715 6.06983 40.3606 6.86187 40.7096 6.62253C40.7096 6.62253 41.7591 6.52046 41.9324 6.72638C41.9324 6.72638 42.2803 7.24088 42.1069 8.59277C42.1069 8.59277 41.8998 9.17769 42.9119 9.17769C42.9119 9.17769 44.0664 8.96939 43.9245 10.0396C43.9245 10.0396 44.2385 11.2494 42.3189 11.0775C42.3189 11.0775 42.0731 11.4231 42.1069 11.6648C42.1069 11.6648 42.0731 15.6005 42.0375 16.0518C42.0375 16.0518 42.0037 16.6743 42.8406 16.6379C42.8406 16.6379 43.9602 16.5668 43.997 17.5696C43.997 17.5696 44.1359 18.8821 42.5266 18.6392C42.5266 18.6392 42.0375 18.7096 41.965 19.02L41.8998 20.7473C41.8998 20.7473 41.9324 21.6103 40.956 21.402C40.8165 21.402 35.5057 21.5083 35.0504 21.3704C35.0504 21.3704 34.8028 21.3358 34.7352 21.4713Z" fill="white"/>
<path fill-rule="evenodd" clip-rule="evenodd" d="M23.7241 28.5979C23.7241 28.5979 23.9752 28.4941 24.0457 28.3212C24.0457 28.3212 24.7984 28.2489 24.9042 28.1446L27.2673 28.3212C27.2673 28.3212 29.5927 28.4941 30.5946 27.7889C30.5946 27.7889 30.9551 27.7889 31.2056 27.8958C31.2056 27.8958 31.7041 28.0032 31.8469 28.2107L33.2081 28.1755C33.2081 28.1755 33.9954 28.4237 33.9225 28.9159V29.5464C33.9225 29.5464 33.7784 30.8111 34.1358 30.8833H35.1767C35.1767 30.8833 36.0363 31.2686 35.9281 31.7596C35.9281 31.7596 35.964 32.4593 35.2138 32.6019C35.2138 32.6019 34.4587 32.8113 34.2113 32.7779C34.2113 32.7779 33.9596 33.0928 33.9225 33.4788L33.8179 38.08C33.8179 38.08 33.745 38.5709 34.497 38.5011C34.497 38.5011 35.604 38.3955 35.9281 38.9951C35.9281 38.9951 36.2151 40.0116 35.6424 40.1869L35.2138 40.3951L34.2812 40.5413C34.2812 40.5413 33.8897 40.5735 33.8526 41.2398V42.4669C33.8526 42.4669 33.8897 43.3128 33.2081 43.3128L32.2056 43.3832C32.2056 43.3832 31.9558 43.5908 31.4554 43.4506C31.4554 43.4506 25.3711 43.5586 25.1559 43.4876L24.4397 43.6296C24.4397 43.6296 23.653 44.3317 23.0086 43.8026L22.5076 43.4166C22.5076 43.4166 22.1489 43.4876 22.0085 43.4506C21.8651 43.4166 15.2791 43.5228 15.2791 43.5228C15.2791 43.5228 13.8833 43.6648 13.7775 43.206C13.7775 43.206 13.5988 41.4164 13.6699 41.2022C13.6699 41.2022 13.6699 40.6779 13.3483 40.6439C13.3483 40.6439 11.9519 40.5735 11.916 40.4309C11.916 40.4309 11.1633 39.9066 11.3786 39.381C11.3786 39.381 11.6303 38.6759 12.3804 38.6061C12.3804 38.6061 13.5258 38.7839 13.5258 38.4671C13.5258 38.4671 13.5988 38.2565 13.5988 37.9064C13.5988 37.9064 13.6699 33.7252 13.6334 33.4448C13.6334 33.4448 13.7404 32.9181 13.2747 32.9181C13.2747 32.9181 12.7744 33.0576 12.4534 32.8477C12.4534 32.8477 11.5944 32.8835 11.4157 32.2153C11.4157 32.2153 11.2716 31.7948 11.4849 31.4404C11.4849 31.4404 11.8801 30.6691 13.0255 30.9161C13.0255 30.9161 13.6699 31.0927 13.7404 30.6381L13.707 28.9486C13.707 28.9486 13.5617 28.4941 14.4572 28.2489C14.4572 28.2489 15.602 28.5639 15.9588 28.0032C15.9588 28.0032 16.354 27.2282 16.6719 27.755C16.6719 27.755 17.3547 28.3885 19.2156 28.3212C19.2156 28.3212 22.4371 28.073 22.5076 28.2107C22.5076 28.2107 23.2956 28.3212 23.5089 28.5639L23.7241 28.5979ZM13.9946 22.729C13.9946 22.729 13.6 23.9609 11.8467 22.6938L5.83473 22.5524C5.83473 22.5524 5.04743 22.8006 4.9392 21.9917C4.9392 21.9917 5.0833 20.3781 5.00909 20.2367C5.00909 20.2367 5.04743 19.7785 4.2589 19.7785C4.2589 19.7785 3.04426 19.9223 3.00901 18.8682C3.00901 18.8682 2.79317 17.7407 4.47474 17.7795C4.47474 17.7795 5.00909 18.0247 5.04743 17.3572C5.04743 17.3572 4.97569 12.793 5.00909 12.4398C5.00909 12.4398 5.15566 12.0223 4.33188 11.9507C4.33188 11.9507 3.1494 12.1947 3.00901 11.4221C3.00901 11.4221 2.93603 10.2655 3.72208 10.1933C3.72208 10.1933 4.68873 10.2655 4.8687 10.0221C4.8687 10.0221 5.0833 10.1581 5.04743 9.31454L5.0833 7.87629C5.0833 7.87629 5.19153 7.49034 5.79638 7.52553C5.79638 7.52553 6.90898 7.59472 7.05308 7.49034C7.05308 7.49034 7.30294 7.17599 7.37158 7.03277C7.37158 7.03277 7.94737 7 8.05436 7.13654C8.05436 7.13654 8.91154 7.70213 12.1714 7.49034C12.1714 7.49034 12.6699 7.49034 12.7775 7.63173C12.7775 7.63173 13.3854 8.08687 13.7429 7.59472C13.7429 7.59472 14.2797 7.49034 15.8914 7.52553C15.8914 7.52553 17.6416 7.98128 18.86 7L19.2527 7.07222C19.2527 7.07222 19.753 7.87629 20.1142 7.63173C20.1142 7.63173 21.1866 7.52553 21.3666 7.73733C21.3666 7.73733 21.7253 8.26407 21.5429 9.63495C21.5429 9.63495 21.3301 10.2309 22.3673 10.2309C22.3673 10.2309 23.5473 10.0221 23.4056 11.106C23.4056 11.106 23.7285 12.3361 21.7599 12.1613C21.7599 12.1613 21.5082 12.5133 21.5429 12.7584C21.5429 12.7584 21.5082 16.76 21.473 17.2188C21.473 17.2188 21.4383 17.8469 22.2967 17.8147C22.2967 17.8147 23.4421 17.7407 23.4768 18.7632C23.4768 18.7632 23.6196 20.0965 21.9745 19.8495C21.9745 19.8495 21.473 19.9223 21.4 20.2367L21.3301 21.9917C21.3301 21.9917 21.3666 22.8704 20.3616 22.661C20.2187 22.661 14.7825 22.7642 14.3156 22.6265C14.3156 22.6265 14.0657 22.5913 13.9946 22.729Z" fill="white"/>
<path fill-rule="evenodd" clip-rule="evenodd" d="M34.7352 21.4713C34.7352 21.4713 34.3505 22.6829 32.6404 21.4378L26.7698 21.2976C26.7698 21.2976 26.0011 21.5417 25.8966 20.7473C25.8966 20.7473 26.0373 19.159 25.9661 19.02C25.9661 19.02 26.0011 18.5717 25.23 18.5717C25.23 18.5717 24.044 18.7096 24.0084 17.6716C24.0084 17.6716 23.8013 16.5668 25.442 16.6033C25.442 16.6033 25.9661 16.8444 26.0011 16.1866C26.0011 16.1866 25.9323 11.6953 25.9661 11.3521C25.9661 11.3521 26.1068 10.9396 25.3013 10.8692C25.3013 10.8692 24.1491 11.1103 24.0084 10.3523C24.0084 10.3523 23.9396 9.21291 24.7095 9.14188C24.7095 9.14188 25.6521 9.21291 25.826 8.96939C25.826 8.96939 26.0373 9.10607 26.0011 8.28121L26.0373 6.86187C26.0373 6.86187 26.1382 6.48346 26.7336 6.52046C26.7336 6.52046 27.8175 6.58851 27.9594 6.48346C27.9594 6.48346 28.2009 6.17428 28.2722 6.03342C28.2722 6.03342 28.8326 6 28.9358 6.13907C28.9358 6.13907 29.7752 6.69176 32.9544 6.48346C32.9544 6.48346 33.4447 6.48346 33.5468 6.62253C33.5468 6.62253 34.1428 7.07017 34.4912 6.58851C34.4912 6.58851 35.0154 6.48346 36.5866 6.52046C36.5866 6.52046 38.3015 6.96751 39.4862 6L39.8715 6.06983C39.8715 6.06983 40.3606 6.86187 40.7096 6.62253C40.7096 6.62253 41.7591 6.52046 41.9324 6.72638C41.9324 6.72638 42.2803 7.24088 42.1069 8.59277C42.1069 8.59277 41.8998 9.17769 42.9119 9.17769C42.9119 9.17769 44.0664 8.96939 43.9245 10.0396C43.9245 10.0396 44.2385 11.2494 42.3189 11.0775C42.3189 11.0775 42.0731 11.4231 42.1069 11.6648C42.1069 11.6648 42.0731 15.6005 42.0375 16.0518C42.0375 16.0518 42.0037 16.6743 42.8406 16.6379C42.8406 16.6379 43.9602 16.5668 43.997 17.5696C43.997 17.5696 44.1359 18.8821 42.5266 18.6392C42.5266 18.6392 42.0375 18.7096 41.965 19.02L41.8998 20.7473C41.8998 20.7473 41.9324 21.6103 40.956 21.402C40.8165 21.402 35.5057 21.5083 35.0504 21.3704C35.0504 21.3704 34.8028 21.3358 34.7352 21.4713Z" fill="#231F20"/>
<path fill-rule="evenodd" clip-rule="evenodd" d="M33.4792 20.4497C33.4792 20.4497 32.8214 20.4497 32.8549 21.333C32.8549 21.333 32.9249 22 33.6175 22C33.6175 22 34.2388 21.8958 34.1723 21.1911C34.1723 21.1911 33.7904 20.3103 33.4792 20.4497ZM41.3394 11.055C41.3388 11.0556 40.9946 11.2658 41.0976 11.6897L40.994 16.8016C40.994 16.8016 40.9246 17.6818 41.7566 17.6483C41.7566 17.6483 42.6209 17.6118 42.7951 17.8944C42.7951 17.8944 43.3871 18.7752 42.1038 18.7046C42.1038 18.7046 41.3065 18.6674 41.1335 18.8106C41.1335 18.8106 40.994 18.9854 40.8905 20.6441C40.8905 20.6441 40.9617 21.6315 40.2333 21.523C40.2333 21.523 35.4179 21.5925 34.9684 21.4889C34.9684 21.4889 34.4842 21.6315 34.4141 21.2416C34.4141 21.2416 34.4141 20.9565 34.8996 20.9565L39.7467 20.9224C39.7467 20.9224 40.1986 21.1697 40.1986 20.3249C40.1986 20.3249 40.3757 16.483 40.3919 12.2526C40.3973 10.9935 40.4535 9.67228 40.4099 8.44792C40.4099 8.44792 40.3021 7.91858 40.1627 7.81076C40.1627 7.81076 40.1627 7.24792 40.7522 7.4599C40.7522 7.4599 41.2718 7.49523 41.1335 8.30843L41.1694 9.53706C41.1694 9.53706 41.0653 10.0688 41.9978 9.92629C41.9978 9.92629 42.9322 10.0688 42.9693 10.4191C42.9693 10.4191 43.2458 11.1269 42.1397 11.055H41.3394ZM26.5874 21.4883C25.8937 21.4554 25.9637 20.9237 25.9637 20.9237V19.5848C25.9985 18.877 25.2724 18.7387 25.2724 18.7387C24.2686 18.9476 24.0244 18.3141 24.0244 18.3141C23.9879 17.574 25.1689 17.6495 25.1689 17.6495C26.1379 17.6495 25.8602 16.7645 25.8602 16.7645L25.9302 11.4406C25.8602 10.9155 24.6128 10.9155 24.6128 10.9155C23.8167 11.055 24.0244 10.2784 24.0244 10.2784C24.4057 9.89036 25.2377 9.9269 25.2377 9.9269C25.9637 9.96223 25.9637 9.15025 25.9637 9.15025L25.9985 7.7066C26.7945 6.96772 26.9352 7.56406 26.9352 7.56406C26.4839 8.27066 26.5874 10.0006 26.5874 10.0006L26.5551 9.85624C26.5874 10.0323 26.5192 19.9716 26.5192 19.9716C26.5874 21.0662 27.3159 20.8183 27.3159 20.8183L31.8176 20.8895C32.2324 20.8895 32.2659 21.1704 32.2659 21.1704C32.2659 21.5224 31.9912 21.4889 31.9906 21.4883H26.5874ZM27.5577 19.9557C27.5577 19.9557 27.4182 20.4497 27.9372 20.3468H31.5064L32.4742 20.5606C32.4742 20.5606 33.4786 20.3103 32.4742 19.7462C32.4742 19.7462 29.2887 19.7785 29.011 19.7109L28.2119 19.4995C28.2119 19.4995 27.8677 19.3588 27.5577 19.9557ZM33.9634 20.0989C33.9634 20.0989 34.2747 19.7462 34.4836 19.7462C34.4836 19.7462 37.948 20.0623 38.534 19.6396C38.534 19.6396 39.0565 19.5348 39.196 19.6396C39.196 19.6396 39.7137 20.0623 39.7137 20.3115C39.7137 20.3115 39.6802 20.6307 39.0565 20.4497C39.0565 20.4497 35.1402 20.4887 34.9325 20.4887C34.9325 20.4887 33.8569 20.7336 33.9634 20.0989ZM27.0615 19.8705C27.0202 19.8753 26.8933 19.8564 26.864 19.4447L26.934 8.87127C26.934 8.87127 27.0022 7.56345 27.6618 7.6335C27.6618 7.6335 27.7295 8.33949 27.7295 8.51797C27.7295 8.69401 27.6283 18.7046 27.6283 18.7046C27.6283 18.7046 27.7277 19.4636 27.0944 19.8552L27.0741 19.8674L27.0615 19.8705ZM40.0824 9.53706L39.9556 19.1986C39.922 19.5507 39.8532 19.7651 39.8532 19.7651C39.4037 19.8692 39.126 18.8782 39.126 18.8782L39.1601 7.7401C39.7467 6.89706 40.095 8.58558 40.095 8.58558V8.5868L40.0824 9.53706ZM33.6522 7.88081C33.6522 7.88081 33.5486 13.2035 33.5833 13.3795L33.5151 17.8548L33.3744 19.4069C33.3744 19.4069 33.5833 19.7237 33.7569 19.5129C33.7569 19.5129 34.8648 19.2272 35.5574 19.3381C35.5574 19.3381 37.7762 19.5476 38.2245 19.1925C38.2245 19.1925 38.5717 19.3691 38.6734 18.8051C38.6734 18.8051 38.8099 8.93888 38.7465 8.76284C38.7465 8.76284 38.8799 7.34904 38.8099 7.21137C38.8099 7.21137 38.78 6.89462 38.1898 7.17482C38.1898 7.17482 38.2575 7.45868 34.9696 7.34904C34.9696 7.34904 33.7228 7.31431 33.6522 7.88081ZM28.1814 7.31431L28.0766 18.6321C28.0766 18.6321 28.0431 19.1572 28.9086 19.2638C28.9086 19.2638 29.9124 19.3685 30.153 19.2638C30.153 19.2638 30.815 19.2272 32.5089 19.2991C32.5089 19.2991 32.9267 19.7261 32.962 19.1931C32.962 19.1931 33.2362 10.0323 33.1015 8.12447C33.1015 8.12447 33.0632 7.31431 32.4766 7.27898C32.4766 7.27898 29.8436 7.49523 29.6012 7.27898L28.5615 7C28.5615 7 28.1455 7.03411 28.1814 7.31431Z" fill="white"/>
<path fill-rule="evenodd" clip-rule="evenodd" d="M31.6691 11.07C33.089 11.5322 32.8762 12.5628 32.8762 12.5628C32.9835 13.5909 31.8831 14.02 31.8831 14.02L31.8095 14.5883L32.8406 16.2192C33.0179 16.3617 32.9835 16.5059 32.9835 16.5059C32.8406 16.8969 32.2714 16.5059 32.2714 16.5059L30.9956 14.5153C30.8882 14.3723 30.6748 14.6227 30.6748 14.6227L30.6049 15.7233L30.9214 16.2548C31.1367 16.5384 30.7809 16.7539 30.7809 16.7539L29.6449 16.6477C29.4346 16.5384 29.6449 16.1843 29.6449 16.1843C29.9296 16.0093 29.9651 15.5447 29.9651 15.5447L29.9296 13.4853L29.9651 11.9938C29.9651 11.8145 29.6818 11.4978 29.6818 11.4978C29.4346 11.4622 29.5045 11.1424 29.5045 11.1424C29.575 10.9644 30.1743 11.07 30.1761 11.07H31.6691ZM35.4652 11.3192C35.3597 11.0356 36.0688 11 36.0688 11L36.4251 11.07C36.6742 11.0356 36.9226 11.1424 36.9226 11.1424C37.1704 11.5322 36.7441 11.7446 36.7441 11.7446L36.6024 12.208C36.5656 12.5996 36.6024 15.9737 36.6024 15.9737C36.6742 16.1487 36.9569 16.4672 36.9569 16.4672C36.9569 16.7883 36.5656 16.7183 36.5656 16.7183L35.5382 16.7539C35.218 16.7183 35.3235 16.3617 35.3235 16.3617C35.6787 16.1849 35.786 15.5434 35.786 15.5434V12.0294L35.4652 11.3192ZM30.7104 11.8145C30.7453 12.5984 30.7453 13.6639 30.7453 13.6639C31.4213 14.1974 31.8095 13.4491 31.8095 13.4491C32.6952 12.5984 31.8095 11.8145 31.6691 11.604C31.5249 11.3892 30.8153 11.5672 30.8153 11.5672L30.7104 11.8145ZM23.2825 28.4212C23.2825 28.4212 23.5315 28.3163 23.6014 28.1413C23.6014 28.1413 24.3479 28.0683 24.4528 27.9627L26.7965 28.1413C26.7965 28.1413 29.1027 28.3163 30.0964 27.603C30.0964 27.603 30.454 27.603 30.7024 27.711C30.7024 27.711 31.1968 27.8197 31.3385 28.0296L32.6885 27.994C32.6885 27.994 33.4693 28.2451 33.3969 28.7429V29.3806C33.3969 29.3806 33.254 30.6598 33.6085 30.7328H34.6408C34.6408 30.7328 35.4934 31.1226 35.3861 31.6192C35.3861 31.6192 35.4217 32.3269 34.6776 32.4712C34.6776 32.4712 33.9287 32.6829 33.6834 32.6492C33.6834 32.6492 33.4337 32.9677 33.3969 33.3581L33.2933 38.0121C33.2933 38.0121 33.2209 38.5086 33.9667 38.438C33.9667 38.438 35.0647 38.3312 35.3861 38.9377C35.3861 38.9377 35.6707 39.9658 35.1027 40.1432L34.6776 40.3537L33.7527 40.5017C33.7527 40.5017 33.3644 40.5342 33.3276 41.2082V42.4493C33.3276 42.4493 33.3644 43.305 32.6885 43.305L31.6942 43.3762C31.6942 43.3762 31.4464 43.5861 30.9502 43.4443C30.9502 43.4443 24.9159 43.5536 24.7024 43.4817L23.9921 43.6254C23.9921 43.6254 23.2119 44.3355 22.5728 43.8003L22.076 43.4099C22.076 43.4099 21.7202 43.4817 21.581 43.4443C21.4387 43.4099 14.9069 43.5173 14.9069 43.5173C14.9069 43.5173 13.5225 43.661 13.4176 43.1969C13.4176 43.1969 13.2404 41.3868 13.3109 41.1701C13.3109 41.1701 13.3109 40.6398 12.992 40.6054C12.992 40.6054 11.607 40.5342 11.5714 40.39C11.5714 40.39 10.8249 39.8596 11.0384 39.3281C11.0384 39.3281 11.288 38.6148 12.032 38.5442C12.032 38.5442 13.168 38.7241 13.168 38.4037C13.168 38.4037 13.2404 38.1907 13.2404 37.8365C13.2404 37.8365 13.3109 33.6073 13.2747 33.3238C13.2747 33.3238 13.3808 32.791 12.919 32.791C12.919 32.791 12.4228 32.9321 12.1044 32.7198C12.1044 32.7198 11.2524 32.756 11.0752 32.0802C11.0752 32.0802 10.9323 31.6548 11.1439 31.2963C11.1439 31.2963 11.5358 30.5162 12.6718 30.766C12.6718 30.766 13.3109 30.9446 13.3808 30.4849L13.3477 28.776C13.3477 28.776 13.2036 28.3163 14.0917 28.0683C14.0917 28.0683 15.2271 28.3869 15.581 27.8197C15.581 27.8197 15.9729 27.0359 16.2882 27.5686C16.2882 27.5686 16.9654 28.2095 18.811 28.1413C18.811 28.1413 22.006 27.8903 22.076 28.0296C22.076 28.0296 22.8574 28.1413 23.069 28.3869L23.2825 28.4212Z" fill="#231F20"/>
<path fill-rule="evenodd" clip-rule="evenodd" d="M23.3557 40.3752C23.3557 40.3752 23.9503 40.4784 23.9503 41.0384C23.9503 41.596 23.986 41.911 23.6336 41.9798C23.2842 42.0504 22.8997 41.9472 22.7962 41.4934C22.6884 41.0384 22.8634 40.4784 23.3557 40.3752ZM15.192 27.7706C15.192 27.7706 14.7711 28.54 14.8063 28.7162L14.7711 31.0527C14.7711 31.0527 14.736 32.5541 14.7711 32.7297C14.8063 32.9028 14.736 37.3037 14.736 37.3037C14.736 37.3037 14.7009 38.1395 14.736 38.4207V40.3052C14.736 40.3052 14.6658 41.1446 15.2955 40.9316C15.2955 40.9316 21.4629 40.7934 21.8492 40.8996C21.8492 40.8996 22.4075 41.0034 22.2004 41.2828C22.2004 41.2828 22.2004 41.529 21.8117 41.4578C21.8117 41.4578 18.9042 41.7354 16.2776 41.6322C16.2776 41.6322 14.5259 41.7354 14.4188 41.529C14.4188 41.529 14.1402 41.494 14.1402 40.4796C14.1402 40.4796 14.1402 39.5395 14.0718 39.3645C14.0718 39.3645 14.1402 38.8697 13.2647 38.7683C13.2647 38.7683 12.0386 38.9795 12.0035 38.2463C12.0035 38.2463 12.1779 37.7225 13.3701 37.7907C13.3701 37.7907 14.2462 37.9307 14.0718 37.2307L14.1753 32.0665C14.1753 32.0665 14.2831 31.1547 13.6855 31.1185C13.6855 31.1185 13.1273 31.0901 12.9486 31.1547C12.9486 31.1547 11.9332 31.1547 12.0035 30.5651C12.0035 30.5651 12.3541 29.9351 13.3701 30.0757C13.3701 30.0757 14.1402 30.2139 14.1753 29.3438C14.1753 29.3438 14.1402 27.5612 14.5598 27.493C14.5598 27.493 15.4378 27.525 15.192 27.7706ZM32.2357 27.4888C32.338 27.4622 32.8581 27.3397 32.9514 27.56C32.9514 27.56 33.2341 28.3952 32.9877 28.8857C32.9877 28.8857 32.9168 29.9001 33.4472 29.9001C33.4472 29.9001 33.6537 30.1107 34.0745 30.0045C34.0745 30.0045 34.9852 30.1107 34.9852 30.3871C34.9852 30.3871 34.9852 31.0183 34.3543 30.9133L33.512 30.9809C33.512 30.9809 32.9514 31.0889 33.0228 31.7497C33.0949 32.4135 32.9877 37.1625 32.9877 37.1625C32.9877 37.1625 32.9877 37.7237 33.8656 37.6887C33.8656 37.6887 34.9507 37.6525 34.9507 37.9651C34.9507 37.9651 35.2298 38.6633 34.4602 38.6995C34.4602 38.6995 32.9877 38.6633 33.0949 39.0815C33.0949 39.0815 32.9877 40.0614 32.9168 40.2334C32.9168 40.2334 33.0603 41.0384 32.8823 41.179C32.8823 41.179 32.7788 41.631 31.8336 41.5622C31.8336 41.5622 25.8085 41.5278 24.8615 41.5972C24.8615 41.5972 24.2996 41.5278 24.4395 41.0384C24.4395 41.0384 24.8615 40.8266 25.1425 40.899C25.4228 40.9684 29.5207 40.8646 29.5207 40.8646C29.5207 40.8646 31.3075 41.0034 31.589 40.756L32.0062 40.6178C32.0062 40.6178 32.1824 40.4096 32.1824 40.132C32.1824 39.8496 32.2181 38.9065 32.2181 38.9065L32.3247 38.5601C32.3247 38.5601 32.2884 38.2107 32.3247 28.8857C32.3247 28.8857 32.4621 28.1562 32.0062 27.6994C32.0062 27.6994 32.0062 27.423 32.1461 27.4556L32.2357 27.4888L32.2181 27.4936L32.2357 27.4888ZM29.491 39.7465C29.5649 39.7458 30.3399 39.7314 30.5718 39.429C30.5718 39.429 30.817 39.3639 30.9581 39.6071L31.4812 40.1689C31.4812 40.1689 31.5188 40.5068 30.946 40.4808L30.9218 40.4796C30.8279 40.4796 25.2091 40.4796 25.0353 40.5158C25.0353 40.5158 23.9497 40.6884 24.0538 40.0964C24.0538 40.0964 24.6841 39.6746 24.9293 39.7465C24.9293 39.7465 28.119 39.9552 29.1011 39.7839C29.5613 39.7012 29.6745 39.6879 29.6648 39.697L29.491 39.7465ZM16.2413 39.3271C16.2413 39.3271 16.329 39.42 16.4907 39.525L16.4937 39.5274C16.716 39.6704 17.0756 39.8352 17.54 39.8164L22.2761 39.8852L22.3021 39.8858C22.3021 39.8858 22.8295 39.9221 22.7974 40.1996C22.7974 40.1996 22.7235 40.619 22.0963 40.4808L16.346 40.4114L15.729 40.447L15.7151 40.4476H15.7139C15.7139 40.4476 15.2943 40.3764 15.9615 39.5721L16.24 39.3259L16.2413 39.3271ZM15.8986 38.8178C15.8943 39.0489 15.8259 39.496 15.4014 39.8177C15.4014 39.8177 15.0824 40.2008 15.0824 39.6095L15.2259 28.8532C15.2259 28.8532 15.2604 28.0482 15.7526 27.6994C15.7526 27.6994 15.9985 27.6994 15.9652 28.1188L15.8913 38.6645L15.8986 38.8178ZM31.589 39.7863C31.3777 39.6746 30.9557 38.8715 30.9557 38.8715L30.9914 38.6313L31.0604 27.9088C31.0604 27.3518 31.5188 27.6994 31.5188 27.6994L31.9396 28.4688C31.8336 29.0251 31.9396 29.3733 31.9396 29.3733L31.87 39.4327C31.9656 40.1658 31.6538 39.8563 31.5975 39.7959L31.589 39.7863ZM23.1795 34.0892C23.1795 34.0892 23.2152 34.9244 23.108 35.7257C23.0511 36.1693 23.2497 38.2089 23.0729 39.2546C23.0729 39.2546 23.0408 39.6046 22.3015 39.2921C22.3015 39.2921 17.8185 39.3952 17.6787 39.2546C17.6787 39.2546 16.4532 39.2921 16.3472 38.6621C16.3472 38.6621 16.5222 33.8786 16.4174 33.7006C16.4174 33.7006 16.3472 31.0829 16.4174 30.8397C16.4174 30.8397 16.5222 28.4302 16.4532 28.1514C16.4532 28.1514 16.4883 27.5926 16.3823 27.312C16.3823 27.312 16.3823 26.9626 16.9793 27.1714C16.9793 27.1714 17.1864 27.5564 18.3441 27.3856C18.3441 27.3856 19.1863 27.5238 19.9928 27.4182C19.9928 27.4182 21.7778 27.2788 22.2349 27.4182C22.2349 27.4182 22.9361 27.2788 23.1431 28.0494L23.108 30.2127L23.3169 30.9109L23.564 30.7371L23.6675 30.2127L23.7026 27.9076C23.7026 27.9076 23.8425 27.4876 24.4056 27.4182C24.4056 27.4182 25.2811 27.312 25.4228 27.3856C25.5627 27.4526 27.4518 27.5564 27.9803 27.4526C28.5041 27.3482 28.6076 27.8014 30.1873 27C30.1873 27 30.6081 27.0356 30.6081 27.312C30.6081 27.312 30.4646 30.2845 30.6081 30.8397C30.6081 30.8397 30.6081 36.2857 30.4986 36.6701L30.57 38.4159C30.57 38.4159 30.6396 39.1846 29.4159 39.2546C29.4159 39.2546 30.1873 39.3596 25.3489 39.2203C25.3489 39.2203 24.5794 39.1846 23.7389 39.5678C23.7389 39.5678 23.564 39.5334 23.564 39.0803C23.564 39.0803 23.7026 37.4407 23.564 35.8313L23.4961 34.0512L23.1795 34.0892Z" fill="white"/>
<path fill-rule="evenodd" clip-rule="evenodd" d="M19.6623 32.4181C19.6623 32.4181 19.7675 35.0654 19.6623 35.4235L19.6292 35.9975C19.6292 35.9975 19.7675 36.3884 19.976 36.5338C19.976 36.5338 20.1509 37.0329 19.732 36.9983C19.732 36.9983 18.8641 36.9265 18.6556 36.9599C18.6556 36.9599 18.167 36.9599 18.6556 36.3197C18.6556 36.3197 18.8293 36.0655 18.7932 35.4235C18.7932 35.4235 18.7932 32.4181 18.8641 32.2405C18.8641 32.2405 18.9333 31.8447 18.6892 31.7364L18.2703 31.7736L17.7511 32.2746C17.7511 32.2746 17.6453 32.8133 17.4019 32.2405V31.9517L17.7168 31.0932L17.9254 31.0554C17.9254 31.0554 18.2367 31.2707 18.5143 31.3449H20.1509L20.7411 31.0554C20.7411 31.0554 20.9839 31.0932 20.9172 31.4148C20.9172 31.4148 21.0188 32.2405 20.5674 32.3451C20.5674 32.3451 20.2885 32.2405 20.1509 31.8447C20.1509 31.8447 19.6984 31.596 19.6623 32.4181ZM27.3475 31.4519C27.3475 31.4519 26.0276 31.3437 25.9952 32.8108C25.9952 32.8108 25.8515 33.8153 27.3144 34.4604C27.3144 34.4604 28.3938 34.9949 28.3211 35.674C28.3211 35.674 28.1823 36.8913 27.0343 36.2839C27.0343 36.2839 26.4796 35.9956 26.5163 35.674C26.5163 35.674 26.3396 35.2794 26.1316 35.3524C26.1316 35.3524 25.887 35.4223 25.9952 36.6043C25.9952 36.6043 25.9952 37.07 26.5163 36.6043L26.7909 36.6779C26.7909 36.6779 27.7309 37.4653 28.5291 36.4966C28.5291 36.4966 29.4005 35.674 28.7725 34.6726C28.7725 34.6726 28.3211 33.9594 27.5224 33.6007C27.5224 33.6007 26.7573 33.2395 26.5842 32.6321C26.5842 32.6321 26.8282 31.5564 27.7652 32.1292C27.7652 32.1292 28.1138 32.5591 28.3211 32.6321C28.3211 32.6321 28.6 32.6321 28.5291 31.9851L28.4636 31.4519C28.4636 31.4519 28.3938 31.0536 27.9046 31.4519C27.9046 31.4519 27.4521 31.6282 27.3475 31.4519ZM23.1055 30.6979C23.3483 30.8804 23.3832 31.2373 23.3832 31.2373C24.0786 33.1325 24.6712 35.8911 24.6712 35.8911C24.8436 36.2455 25.158 36.5338 25.158 36.5338C25.7488 36.7472 25.158 36.9253 25.158 36.9253C24.914 37.0342 24.1158 36.8925 24.1158 36.8925C23.6963 36.8158 23.8688 36.6766 23.8688 36.6766C24.0449 36.4979 23.9049 35.7798 23.9049 35.7798C23.8688 35.4965 23.5587 35.0295 23.5587 35.0295C23.4198 34.9571 23.1758 35.2794 23.1758 35.2794C23.1758 35.2794 22.7942 35.4229 22.7569 35.2794C22.7221 35.134 22.4792 34.9986 22.4792 34.9986C22.0615 34.9986 21.8891 36.0655 21.8891 36.0655C22.1319 36.9612 21.8891 36.8158 21.8891 36.8158C21.6817 37.1053 21.0188 36.8925 21.0188 36.8925C20.7063 36.8158 20.9172 36.5665 20.9172 36.5665C21.2977 36.4979 21.4016 36.0655 21.4016 36.0655C21.5765 35.8156 22.6872 31.1643 22.6872 31.1643C22.7942 30.9478 22.8621 30.5192 23.1055 30.6979ZM22.552 33.0595C22.5153 33.2395 22.2707 34.2421 22.2707 34.2421L22.4792 34.6033C22.4792 34.6033 23.037 34.6355 23.2443 34.6355C23.4511 34.6355 23.4884 34.4604 23.4884 34.278C23.4884 34.1005 23.1055 33.0267 23.1055 33.0267L22.93 32.8121L22.552 33.0595ZM13.6846 22.0317C13.6846 22.0317 13.3011 23.2873 11.5973 21.9958L5.75479 21.8517C5.75479 21.8517 4.9897 22.1047 4.88452 21.2802C4.88452 21.2802 5.02456 19.6355 4.95244 19.4914C4.95244 19.4914 4.9897 19.0244 4.2234 19.0244C4.2234 19.0244 3.04301 19.171 3.00875 18.0966C3.00875 18.0966 2.799 16.9474 4.43316 16.987C4.43316 16.987 4.95244 17.2368 4.9897 16.5565C4.9897 16.5565 4.91998 11.9045 4.95244 11.5445C4.95244 11.5445 5.09488 11.119 4.29432 11.046C4.29432 11.046 3.14518 11.2946 3.00875 10.5072C3.00875 10.5072 2.93783 9.32831 3.70172 9.25471C3.70172 9.25471 4.64111 9.32831 4.81601 9.08028C4.81601 9.08028 5.02456 9.21883 4.9897 8.35908L5.02456 6.89316C5.02456 6.89316 5.12974 6.49977 5.71753 6.53565C5.71753 6.53565 6.79876 6.60616 6.93879 6.49977C6.93879 6.49977 7.1816 6.17937 7.24832 6.0334C7.24832 6.0334 7.80786 6 7.91184 6.13917C7.91184 6.13917 8.74484 6.71564 11.9128 6.49977C11.9128 6.49977 12.3972 6.49977 12.5018 6.64389C12.5018 6.64389 13.0926 7.10779 13.44 6.60616C13.44 6.60616 13.9617 6.49977 15.5279 6.53565C15.5279 6.53565 17.2288 7.00016 18.4128 6L18.7944 6.07361C18.7944 6.07361 19.2806 6.89316 19.6316 6.64389C19.6316 6.64389 20.6738 6.53565 20.8487 6.75151C20.8487 6.75151 21.1973 7.2884 21.02 8.68566C21.02 8.68566 20.8132 9.29306 21.8211 9.29306C21.8211 9.29306 22.9679 9.08028 22.8302 10.185C22.8302 10.185 23.144 11.4387 21.2309 11.2606C21.2309 11.2606 20.9863 11.6193 21.02 11.8692C21.02 11.8692 20.9863 15.9478 20.9521 16.4154C20.9521 16.4154 20.9184 17.0556 21.7526 17.0228C21.7526 17.0228 22.8657 16.9474 22.8994 17.9896C22.8994 17.9896 23.0382 19.3485 21.4395 19.0968C21.4395 19.0968 20.9521 19.171 20.8811 19.4914L20.8132 21.2802C20.8132 21.2802 20.8487 22.1758 19.872 21.9624C19.7332 21.9624 14.4503 22.0676 13.9965 21.9272C13.9965 21.9272 13.7537 21.8913 13.6846 22.0317Z" fill="#231F20"/>
<path fill-rule="evenodd" clip-rule="evenodd" d="M7.84536 8.13982C7.84536 8.13982 7.91944 8.87925 7.91944 9.06427C7.91944 9.24928 7.80736 19.7715 7.80736 19.7715C7.80736 19.7715 7.91944 20.5884 7.22036 20.9962C7.22036 20.9962 7.03799 21.0711 7 20.5526L7.07282 9.43814C7.07282 9.43814 7.14628 8.0662 7.84536 8.13982ZM20.0071 8.2493L19.971 19.9566C19.971 19.9566 20.2648 20.9969 20.7429 20.8855C20.7429 20.8855 20.8157 20.6621 20.8512 20.2895L21 9.13789C21 9.13789 20.6327 7.35943 20.0071 8.2493Z" fill="#231F20"/>
<path d="M7.80736 19.7715L7.78209 19.7713L7.7826 19.7749L7.80736 19.7715ZM7.22036 20.9962L7.22995 21.0196L7.23296 21.0178L7.22036 20.9962ZM7 20.5526L6.97492 20.5524L6.97507 20.5544L7 20.5526ZM7.07282 9.43814L7.04783 9.4368L7.04782 9.43798L7.07282 9.43814ZM19.971 19.9566L19.945 19.9565L19.9469 19.9634L19.971 19.9566ZM20.7429 20.8855L20.7486 20.9098L20.7623 20.9066L20.7667 20.8932L20.7429 20.8855ZM20.8512 20.2895L20.8762 20.2918L20.8762 20.2898L20.8512 20.2895ZM21 9.13789L21.0256 9.13823L21.0245 9.13283L21 9.13789ZM7.84536 8.13982C7.82048 8.14232 7.82048 8.14232 7.82048 8.14232C7.82048 8.14233 7.82048 8.14234 7.82048 8.14235C7.82049 8.14237 7.82049 8.1424 7.82049 8.14245C7.8205 8.14254 7.82052 8.14267 7.82053 8.14285C7.82057 8.1432 7.82062 8.14373 7.82069 8.14443C7.82083 8.14583 7.82104 8.14792 7.82131 8.15065C7.82185 8.1561 7.82265 8.16412 7.82366 8.17441C7.82569 8.19497 7.82858 8.22456 7.83205 8.26064C7.83899 8.33282 7.84825 8.43097 7.8575 8.53488C7.87607 8.74337 7.89444 8.97314 7.89444 9.06427H7.94444C7.94444 8.97037 7.92578 8.73793 7.9073 8.53045C7.89803 8.42638 7.88877 8.32811 7.88182 8.25586C7.87834 8.21973 7.87545 8.1901 7.87342 8.16951C7.87241 8.15921 7.87161 8.15117 7.87107 8.1457C7.87079 8.14297 7.87059 8.14088 7.87045 8.13947C7.87038 8.13876 7.87032 8.13823 7.87029 8.13787C7.87027 8.13769 7.87026 8.13756 7.87025 8.13747C7.87024 8.13742 7.87024 8.13739 7.87024 8.13737C7.87023 8.13736 7.87023 8.13735 7.87023 8.13734C7.87023 8.13733 7.87023 8.13733 7.84536 8.13982ZM7.89444 9.06427C7.89444 9.1566 7.86643 11.8332 7.83841 14.487C7.8244 15.8139 7.81039 17.1349 7.79988 18.1243C7.79462 18.619 7.79025 19.0307 7.78718 19.3188C7.78565 19.4628 7.78444 19.5759 7.78362 19.6531C7.78321 19.6916 7.7829 19.7212 7.78269 19.7411C7.78258 19.751 7.7825 19.7586 7.78245 19.7636C7.78242 19.7662 7.7824 19.7681 7.78239 19.7694C7.78238 19.77 7.78237 19.7705 7.78237 19.7708C7.78237 19.771 7.78237 19.7711 7.78237 19.7712C7.78237 19.7712 7.78236 19.7713 7.80736 19.7715C7.83236 19.7718 7.83236 19.7718 7.83236 19.7717C7.83236 19.7716 7.83237 19.7715 7.83237 19.7713C7.83237 19.771 7.83238 19.7705 7.83238 19.7699C7.8324 19.7686 7.83242 19.7667 7.83244 19.7642C7.8325 19.7591 7.83258 19.7516 7.83268 19.7416C7.8329 19.7217 7.83321 19.6921 7.83362 19.6536C7.83444 19.5765 7.83565 19.4634 7.83718 19.3193C7.84024 19.0312 7.84462 18.6195 7.84987 18.1248C7.86038 17.1355 7.87439 15.8144 7.8884 14.4875C7.91642 11.834 7.94444 9.15695 7.94444 9.06427H7.89444ZM7.80736 19.7715C7.7826 19.7749 7.78259 19.7749 7.78259 19.7749C7.78259 19.7749 7.78259 19.7749 7.78259 19.7749C7.7826 19.7749 7.7826 19.775 7.7826 19.775C7.78261 19.7751 7.78263 19.7752 7.78265 19.7754C7.78269 19.7757 7.78276 19.7762 7.78285 19.7769C7.78302 19.7784 7.78328 19.7806 7.78359 19.7835C7.78422 19.7893 7.78505 19.798 7.78588 19.8093C7.78754 19.8318 7.78916 19.8647 7.78895 19.9054C7.78854 19.987 7.78083 20.0999 7.75167 20.2253C7.69338 20.4759 7.54974 20.7752 7.20777 20.9746L7.23296 21.0178C7.59007 20.8095 7.73993 20.4964 7.80037 20.2366C7.83057 20.1068 7.83853 19.99 7.83895 19.9057C7.83916 19.8635 7.83749 19.8293 7.83575 19.8056C7.83488 19.7938 7.83399 19.7845 7.83331 19.7782C7.83297 19.775 7.83268 19.7725 7.83248 19.7709C7.83238 19.77 7.83229 19.7694 7.83223 19.7689C7.8322 19.7687 7.83218 19.7685 7.83216 19.7684C7.83215 19.7683 7.83215 19.7683 7.83214 19.7682C7.83214 19.7682 7.83214 19.7682 7.83214 19.7682C7.83213 19.7682 7.83213 19.7681 7.80736 19.7715ZM7.22036 20.9962C7.21086 20.9731 7.21089 20.9731 7.21092 20.9731C7.21093 20.9731 7.21095 20.9731 7.21097 20.9731C7.211 20.9731 7.21103 20.973 7.21106 20.973C7.21112 20.973 7.21116 20.973 7.2112 20.973C7.21127 20.973 7.2113 20.9729 7.21129 20.9729C7.21128 20.9729 7.21112 20.973 7.21082 20.9731C7.21022 20.9733 7.20907 20.9736 7.20744 20.974C7.20418 20.9746 7.19913 20.9753 7.1928 20.9749C7.18058 20.9741 7.16209 20.9695 7.14131 20.9504C7.09842 20.9112 7.04384 20.8087 7.02493 20.5508L6.97507 20.5544C6.99416 20.815 7.04976 20.9344 7.10755 20.9873C7.13711 21.0144 7.16658 21.0234 7.18975 21.0248C7.20111 21.0255 7.2106 21.0243 7.21746 21.0229C7.2209 21.0222 7.2237 21.0215 7.22579 21.0208C7.22683 21.0205 7.2277 21.0202 7.22838 21.0199C7.22872 21.0198 7.22902 21.0197 7.22926 21.0196C7.22939 21.0196 7.2295 21.0195 7.2296 21.0195C7.22965 21.0194 7.22969 21.0194 7.22974 21.0194C7.22976 21.0194 7.22979 21.0194 7.2298 21.0194C7.22983 21.0194 7.22986 21.0194 7.22036 20.9962ZM7.025 20.5527L7.09782 9.4383L7.04782 9.43798L6.975 20.5524L7.025 20.5527ZM7.07282 9.43814C7.09779 9.43948 7.09779 9.43948 7.09779 9.43947C7.09779 9.43947 7.09779 9.43946 7.09779 9.43944C7.09779 9.43941 7.09779 9.43935 7.0978 9.43928C7.0978 9.43913 7.09782 9.4389 7.09784 9.43858C7.09787 9.43796 7.09793 9.43701 7.09801 9.43575C7.09816 9.43323 7.09841 9.42945 7.09875 9.42451C7.09945 9.41463 7.10057 9.40009 7.10224 9.38158C7.10558 9.34455 7.11114 9.29166 7.11998 9.22839C7.13768 9.10172 7.16846 8.93402 7.22077 8.76892C7.27319 8.60346 7.34659 8.4427 7.4484 8.32824C7.54946 8.21463 7.67765 8.1473 7.84274 8.16469L7.84798 8.11496C7.66353 8.09554 7.52037 8.17209 7.41104 8.29501C7.30247 8.41708 7.22643 8.58551 7.1731 8.75382C7.11966 8.92251 7.08838 9.09319 7.07046 9.22147C7.06149 9.28566 7.05585 9.33938 7.05244 9.37709C7.05074 9.39594 7.0496 9.41081 7.04888 9.42099C7.04852 9.42608 7.04827 9.43 7.0481 9.43267C7.04802 9.434 7.04796 9.43502 7.04792 9.43571C7.0479 9.43606 7.04788 9.43632 7.04787 9.4365C7.04787 9.4366 7.04786 9.43667 7.04786 9.43672C7.04786 9.43674 7.04786 9.43676 7.04786 9.43678C7.04786 9.43679 7.04786 9.4368 7.07282 9.43814ZM19.9821 8.24922L19.946 19.9565L19.996 19.9566L20.0321 8.24937L19.9821 8.24922ZM19.971 19.9566C19.9469 19.9634 19.947 19.9634 19.947 19.9634C19.947 19.9634 19.947 19.9634 19.947 19.9634C19.947 19.9635 19.947 19.9635 19.947 19.9636C19.9471 19.9637 19.9471 19.9639 19.9472 19.9642C19.9473 19.9647 19.9476 19.9655 19.9479 19.9665C19.9484 19.9685 19.9493 19.9715 19.9505 19.9754C19.9528 19.9831 19.9562 19.9944 19.9607 20.0086C19.9698 20.0371 19.9833 20.0777 20.0009 20.126C20.0362 20.2224 20.0883 20.3502 20.1557 20.4747C20.2229 20.5989 20.3062 20.7215 20.4043 20.8063C20.5027 20.8913 20.6187 20.9401 20.7486 20.9098L20.7372 20.8611C20.6281 20.8866 20.528 20.8471 20.4369 20.7684C20.3455 20.6894 20.2657 20.5729 20.1997 20.4509C20.1338 20.3292 20.0826 20.2039 20.0479 20.1088C20.0305 20.0613 20.0173 20.0214 20.0084 19.9935C20.004 19.9795 20.0006 19.9685 19.9984 19.9611C19.9973 19.9573 19.9964 19.9545 19.9959 19.9526C19.9956 19.9516 19.9954 19.9509 19.9953 19.9504C19.9952 19.9502 19.9951 19.95 19.9951 19.9499C19.9951 19.9499 19.9951 19.9498 19.9951 19.9498C19.9951 19.9498 19.9951 19.9498 19.9951 19.9498C19.9951 19.9498 19.9951 19.9498 19.971 19.9566ZM20.7429 20.8855C20.7667 20.8932 20.7667 20.8932 20.7667 20.8932C20.7667 20.8932 20.7667 20.8932 20.7667 20.8932C20.7667 20.8932 20.7667 20.8932 20.7667 20.8932C20.7667 20.8931 20.7667 20.8931 20.7668 20.893C20.7668 20.8929 20.7669 20.8927 20.7669 20.8924C20.7671 20.892 20.7673 20.8913 20.7676 20.8904C20.7682 20.8886 20.769 20.8859 20.77 20.8824C20.7722 20.8753 20.7752 20.865 20.7789 20.8514C20.7864 20.8242 20.7967 20.7842 20.8082 20.7326C20.831 20.6293 20.8582 20.4793 20.8761 20.2918L20.8263 20.2871C20.8087 20.4723 20.7818 20.6202 20.7593 20.7218C20.7481 20.7726 20.738 20.8117 20.7307 20.8381C20.7271 20.8513 20.7242 20.8613 20.7222 20.8679C20.7212 20.8713 20.7204 20.8738 20.7199 20.8754C20.7196 20.8762 20.7194 20.8768 20.7193 20.8772C20.7192 20.8774 20.7192 20.8776 20.7192 20.8776C20.7192 20.8777 20.7191 20.8777 20.7191 20.8777C20.7191 20.8777 20.7191 20.8777 20.7191 20.8777C20.7191 20.8777 20.7191 20.8777 20.7191 20.8777C20.7191 20.8777 20.7191 20.8777 20.7429 20.8855ZM20.8762 20.2898L21.025 9.13822L20.975 9.13756L20.8262 20.2891L20.8762 20.2898ZM21 9.13789C21.0245 9.13283 21.0245 9.13282 21.0245 9.1328C21.0245 9.13279 21.0245 9.13276 21.0245 9.13273C21.0244 9.13267 21.0244 9.13258 21.0244 9.13247C21.0244 9.13224 21.0243 9.1319 21.0242 9.13146C21.024 9.13058 21.0237 9.12928 21.0234 9.12759C21.0226 9.12419 21.0216 9.11919 21.0201 9.11272C21.0173 9.09978 21.013 9.08097 21.0073 9.05737C20.996 9.01018 20.9791 8.94381 20.9569 8.86696C20.9125 8.71351 20.8465 8.51728 20.7604 8.34853C20.7174 8.26416 20.669 8.1859 20.6152 8.12313C20.5615 8.06051 20.5012 8.01183 20.4342 7.98905C20.3662 7.96595 20.2935 7.9703 20.2178 8.00983C20.143 8.04891 20.0661 8.12194 19.9866 8.23492L20.0276 8.26368C20.1045 8.15419 20.1759 8.08813 20.241 8.05415C20.3051 8.02061 20.3637 8.01791 20.4181 8.0364C20.4735 8.05521 20.5267 8.09677 20.5772 8.15566C20.6276 8.2144 20.6739 8.28893 20.7159 8.37125C20.7999 8.53589 20.8648 8.72865 20.9088 8.88086C20.9308 8.95683 20.9475 9.02245 20.9587 9.06905C20.9643 9.09234 20.9685 9.11087 20.9713 9.12355C20.9727 9.12989 20.9738 9.13477 20.9745 9.13804C20.9748 9.13968 20.9751 9.14092 20.9753 9.14174C20.9754 9.14216 20.9754 9.14246 20.9755 9.14266C20.9755 9.14276 20.9755 9.14284 20.9755 9.14289C20.9755 9.14291 20.9755 9.14292 20.9755 9.14294C20.9755 9.14294 20.9755 9.14295 21 9.13789Z" fill="#030404"/>
<path fill-rule="evenodd" clip-rule="evenodd" d="M13.379 20.4596C13.379 20.4596 12.7194 20.4596 12.7535 21.3303C12.7535 21.3303 12.8235 22 13.5149 22C13.5149 22 14.1386 21.891 14.0716 21.1941C14.0716 21.1941 13.6891 20.3161 13.379 20.4596ZM21.345 11.032C21.3444 11.0326 20.9978 11.2415 21.1014 11.6629L20.9978 16.7425C20.9978 16.7425 20.926 17.618 21.7598 17.5859C21.7598 17.5859 22.626 17.5496 22.7966 17.8293C22.7966 17.8293 23.388 18.7061 22.1052 18.6359C22.1052 18.6359 21.3079 18.5989 21.1349 18.7388C21.1349 18.7388 20.9978 18.9174 20.8931 20.5619C20.8931 20.5619 20.9619 21.5435 20.2346 21.4375C20.2346 21.4375 15.4202 21.5053 14.9719 21.4018C14.9719 21.4018 14.4852 21.5435 14.4164 21.1578C14.4164 21.1578 14.4164 20.8792 14.8988 20.8792L19.7516 20.8429C19.7516 20.8429 20.1999 21.0845 20.1999 20.2465C20.1999 20.2465 20.3777 16.4264 20.3933 12.2212C20.3998 10.9709 20.4537 9.65753 20.407 8.44048C20.407 8.44048 20.3035 7.91612 20.1652 7.80834C20.1652 7.80834 20.1652 7.24765 20.7566 7.46018C20.7566 7.46018 21.272 7.49348 21.1349 8.29819L21.169 9.52553C21.169 9.52553 21.0655 10.0505 22.0005 9.91063C22.0005 9.91063 22.9349 10.0505 22.9684 10.4011C22.9684 10.4011 23.2485 11.1035 22.1411 11.032H21.345ZM6.58686 21.4024C5.89489 21.3703 5.96792 20.8441 5.96792 20.8441V19.509C5.99904 18.8121 5.27296 18.671 5.27296 18.671C4.26673 18.8823 4.02431 18.2514 4.02431 18.2514C3.99019 17.5157 5.16761 17.5829 5.16761 17.5829C6.13851 17.5829 5.86077 16.7073 5.86077 16.7073L5.92961 11.4153C5.86077 10.8934 4.61212 10.8934 4.61212 10.8934C3.81719 11.032 4.02431 10.2624 4.02431 10.2624C4.4062 9.8743 5.23824 9.91063 5.23824 9.91063C5.96792 9.94575 5.96792 9.13983 5.96792 9.13983L5.99904 7.70238C6.79636 6.96791 6.93523 7.56372 6.93523 7.56372C6.48629 8.2667 6.58686 9.98147 6.58686 9.98147L6.55453 9.83918C6.58686 10.0154 6.51981 19.8953 6.51981 19.8953C6.58686 20.9828 7.31893 20.7369 7.31893 20.7369L11.8197 20.8096C12.2333 20.8096 12.2686 21.0857 12.2686 21.0857C12.2686 21.4369 11.9927 21.4024 11.9915 21.4024H6.58686ZM7.83371 20.35C7.31653 20.4602 7.45361 19.9661 7.45361 19.9661C7.76368 19.3715 8.11146 19.5114 8.11146 19.5114C8.25093 19.5453 8.90818 19.7191 8.90818 19.7191C9.18592 19.7917 12.374 19.7548 12.374 19.7548C13.3808 20.3173 12.374 20.5619 12.374 20.5619L11.4025 20.35H7.83371ZM13.8609 20.106C13.8609 20.106 14.1727 19.7548 14.3817 19.7548C14.3817 19.7548 17.8451 20.0721 18.4341 19.6519C18.4341 19.6519 18.9567 19.5465 19.0925 19.6519C19.0925 19.6519 19.6121 20.0721 19.6121 20.3173C19.6121 20.3173 19.5786 20.6358 18.9567 20.4596C18.9567 20.4596 15.0389 20.4935 14.8312 20.4935C14.8312 20.4935 13.7567 20.7381 13.8609 20.106ZM7.66252 7.63456C7.66252 7.63456 7.73255 8.33391 7.73255 8.5089C7.73255 8.68389 7.6266 18.6346 7.6266 18.6346C7.6266 18.6346 7.73255 19.4079 7.07291 19.7911C7.07291 19.7911 6.90052 19.8626 6.8646 19.3721L6.93583 8.8613C6.93583 8.8613 7.00407 7.56372 7.66252 7.63456ZM19.1602 7.73689L19.1261 18.8096C19.1261 18.8096 19.4038 19.7936 19.8557 19.6882C19.8557 19.6882 19.9246 19.4769 19.9581 19.1245L20.0988 8.57732C20.0988 8.57732 19.7516 6.89525 19.1602 7.73689ZM13.6562 7.83135C13.6562 7.83135 13.552 13.121 13.5849 13.2984L13.5191 17.7488L13.379 19.2862C13.379 19.2862 13.5849 19.6059 13.7585 19.3939C13.7585 19.3939 14.8683 19.1154 15.5609 19.2189C15.5609 19.2189 17.7786 19.4303 18.227 19.0791C18.227 19.0791 18.5736 19.2529 18.6777 18.6922C18.6777 18.6922 18.8148 8.8837 18.7465 8.70811C18.7465 8.70811 18.886 7.3082 18.8148 7.16954C18.8148 7.16954 18.7801 6.85105 18.1947 7.12958C18.1947 7.12958 18.2617 7.41234 14.9731 7.3082C14.9731 7.3082 13.725 7.27187 13.6562 7.83135ZM8.1797 7.31607L8.07913 18.5638C8.07913 18.5638 8.04382 19.0857 8.90937 19.1917C8.90937 19.1917 9.9156 19.2971 10.1562 19.1917C10.1562 19.1917 10.8123 19.1572 12.5111 19.228C12.5111 19.228 12.9271 19.6464 12.9606 19.1233C12.9606 19.1233 13.2384 10.0117 13.1001 8.12138C13.1001 8.12138 13.0666 7.31607 12.4752 7.28095C12.4752 7.28095 9.84496 7.48985 9.60194 7.28095L8.56459 7C8.56459 7 8.14617 7.0327 8.1797 7.31607Z" fill="white"/>
<path fill-rule="evenodd" clip-rule="evenodd" d="M14.2292 11.1883L14.1916 14.9262L14.089 15.2077C14.089 15.2077 13.7368 15.6641 13.9821 15.7007C13.9821 15.7007 13.6681 15.9134 16.2296 15.9481C16.2296 15.9481 17.2164 16.123 16.9686 14.8543C16.9686 14.8543 16.8635 14.396 16.5101 15.067C16.5101 15.067 16.4051 15.6282 15.1432 15.4533C15.1432 15.4533 14.8614 15.2077 14.8614 14.9262V13.3735C14.8614 13.3735 14.8238 12.9841 15.4225 13.0243C15.4225 13.0243 16.0893 13.4454 16.1956 13.2669C16.1956 13.2669 16.4409 12.705 16.1956 12.351C16.1956 12.351 15.8786 12.3181 15.8446 12.4588C15.8446 12.4588 15.6332 12.8799 15.0357 12.6325C15.0357 12.6325 14.7551 12.0694 14.9306 11.6106C14.9306 11.6106 14.8614 10.7288 15.459 10.8007C15.459 10.8007 16.1609 10.9403 16.2296 11.1542C16.2296 11.1542 16.4051 11.5789 16.583 11.0847L16.4051 10.4826C16.4051 10.4826 16.303 10.2352 16.1257 10.3059C16.1257 10.3059 14.9306 10.4826 14.7885 10.3394L13.8394 10.4467C13.8394 10.4467 13.7003 10.8007 14.1236 10.9744C14.1236 10.9744 14.2292 11.0469 14.2292 11.1883ZM12.1895 10.6234L11.8713 11.2961C11.8713 11.2961 11.1012 14.7141 10.6804 15.418C10.6804 15.418 10.61 16.1254 10.0124 15.5599C10.0124 15.5599 8.64063 11.2242 8.57079 11.0823L8.11353 10.7648C8.11353 10.7648 7.83661 10.3772 8.32546 10.3431L9.6256 10.3772C9.6256 10.3772 10.0464 10.7282 9.48533 11.1206C9.48533 11.1206 9.55516 11.6843 10.293 13.8324C10.293 13.8324 10.5025 14.6434 10.749 14.0438L11.4529 11.5399L11.2415 10.7995C11.2415 10.7995 11.0296 10.4473 11.3478 10.4126C11.3478 10.4126 12.0856 10.3431 12.1895 10.6234Z" fill="#231F20"/>
<path fill-rule="evenodd" clip-rule="evenodd" d="M85.0826 38.9191C85.0826 38.4462 84.7754 38.0958 84.1475 37.9593V37.6534L85.979 37.7003C86.2607 37.7003 87.3823 37.6534 87.7309 37.6534V37.9593C87.1479 38.0739 86.8419 38.4188 86.8419 38.9191V44.9245C86.8419 46.8257 87.8827 47.9006 90.0598 47.9006C91.935 47.9006 93.3948 47.0554 93.3948 45.0658V38.8959C93.3948 38.4498 93.1155 38.0958 92.4129 37.9593V37.6534C92.6685 37.6534 93.6256 37.7003 93.9529 37.7003L95.4941 37.6534V37.9593C94.8158 38.122 94.5146 38.4261 94.5146 38.8959V44.7349C94.5146 47.3553 92.9952 48.8604 89.7166 48.8604C86.6646 48.8604 85.0826 47.4686 85.0826 45.0061V38.9191ZM98.1752 48.39C98.8857 48.2571 99.1656 47.8964 99.1656 47.454V39.1537C99.1656 38.4498 98.7922 38.133 98.1558 37.9587V37.6522C98.5159 37.6796 99.1207 37.6954 99.4292 37.6954C99.7091 37.6954 100.145 37.6906 100.439 37.6522L107.613 46.117V38.8959C107.613 38.4505 107.332 38.097 106.631 37.9587V37.6522C106.889 37.6522 107.812 37.7003 108.14 37.7003L109.675 37.6522V37.9587C108.99 38.1202 108.66 38.4279 108.66 38.8959V48.8604H108.228C107.956 48.7976 107.442 48.5039 106.659 47.6417L100.239 40.139V47.454C100.239 47.8982 100.496 48.251 101.196 48.39V48.6971C100.939 48.6971 100.016 48.6477 99.6873 48.6477L98.1752 48.6971V48.39ZM154.786 46.1511H155.089C155.25 46.7715 155.604 47.337 156.099 47.6636C156.616 48.0286 157.424 48.2029 158.078 48.2029C159.521 48.2029 160.436 47.4857 160.436 46.3504C160.436 45.1749 159.264 44.5643 157.86 43.8605C156.816 43.3358 154.764 42.4699 154.764 40.4791C154.764 38.6253 156.173 37.4718 158.427 37.4718C159.915 37.4718 160.613 37.8368 161.616 37.7899L161.597 40.0391H161.291C160.889 38.7137 159.689 38.2518 158.376 38.2518C156.906 38.2518 156.357 39.0952 156.357 39.952C156.357 41.1798 157.554 41.7984 158.91 42.4059C160.436 43.0872 162.092 43.9488 162.092 45.8666C162.092 47.6819 160.676 48.9969 158.089 48.9969C156.551 48.9969 155.627 48.5557 154.818 48.4558L154.786 46.1511ZM185.617 44.128L182.696 39.4255C182.198 38.5998 181.816 38.1647 181.26 37.9581V37.6534C181.66 37.6534 182.742 37.7015 183.048 37.7015C183.326 37.7015 184.493 37.6534 184.914 37.6534V37.9581C184.541 38.0245 184.366 38.2122 184.366 38.4949C184.366 38.7442 184.535 39.0653 184.705 39.3438C184.872 39.6205 186.859 42.9281 186.859 42.9281L188.934 39.3456C189.143 38.9867 189.292 38.6302 189.292 38.3956C189.292 38.1817 189.14 38.005 188.787 37.9581V37.6534C189.139 37.6534 189.876 37.7015 190.111 37.7015C190.347 37.7015 191.195 37.6534 191.544 37.6534V37.9374C190.746 38.2658 190.247 38.9684 189.764 39.7826L187.109 44.2365M187.289 43.6746V47.4314C187.289 47.8038 187.572 48.2718 188.211 48.3894V48.6971L186.356 48.6477C186.073 48.6477 184.957 48.6971 184.554 48.6971V48.3894C185.196 48.2718 185.504 47.8038 185.504 47.4314V43.8398" fill="#231F20"/>
<path fill-rule="evenodd" clip-rule="evenodd" d="M131.339 37.6534H138.188C138.4 37.6534 138.771 37.629 138.983 37.537H139.289L139.241 39.7703H138.938C138.677 39.0677 138.406 38.5047 137.081 38.5047H134.107V42.3968H136.399C136.733 42.3968 137.138 42.3687 137.313 42.3267C137.829 42.2139 138.055 41.9263 138.159 41.4857H138.465C138.443 41.8221 138.443 42.5899 138.443 42.8172C138.443 43.0457 138.465 43.8538 138.465 44.22H138.159C138.012 43.78 137.812 43.4461 137.313 43.3236C137.138 43.2767 136.726 43.2383 136.399 43.2383H134.107V47.8037H137.341C138.754 47.8037 139.165 47.2133 139.516 46.3778L139.818 46.4485L139.516 48.7428C138.465 48.6489 137.835 48.6489 136.642 48.6489H133.224L131.335 48.6971V48.3912C131.952 48.273 132.312 47.9671 132.312 47.3735V38.93C132.312 38.4066 132.032 38.0799 131.339 37.9629V37.6534ZM113.844 38.9903C113.844 38.4236 113.507 38.1122 112.847 37.969V37.6662L114.75 37.7125C115.04 37.7125 116.262 37.6662 116.634 37.6662V37.969C115.978 38.1122 115.633 38.3944 115.633 38.9903V47.3753C115.633 47.9415 115.972 48.2498 116.634 48.39V48.6971L114.75 48.6489C114.455 48.6489 113.215 48.6971 112.846 48.6971V48.39C113.521 48.2632 113.844 47.9671 113.844 47.3753V38.9903ZM165.806 38.9903C165.806 38.4236 165.466 38.1122 164.807 37.969V37.6662L166.708 37.7125C167.001 37.7125 168.223 37.6662 168.594 37.6662V37.969C167.937 38.1122 167.595 38.3944 167.595 38.9903V47.3753C167.595 47.9415 167.932 48.2498 168.594 48.39V48.6971L166.708 48.6489C166.418 48.6489 165.174 48.6971 164.807 48.6971V48.39C165.48 48.2632 165.806 47.9671 165.806 47.3753V38.9903ZM175.327 37.7003C171.572 37.7003 170.971 37.6302 170.204 37.5821L170.21 39.8575H170.516C170.796 38.849 171.356 38.6144 172.081 38.6144H174.436V47.3753C174.436 47.967 174.112 48.2632 173.437 48.39V48.6971C173.808 48.6971 175.059 48.6489 175.348 48.6489L177.233 48.6971V48.39C176.569 48.2498 176.233 47.9415 176.233 47.3753V38.6144H178.57C179.322 38.6144 179.86 38.8709 180.14 39.8575H180.442L180.447 37.5821C179.684 37.6302 179.084 37.7003 175.327 37.7003Z" fill="#231F20"/>
<path fill-rule="evenodd" clip-rule="evenodd" d="M145.364 47.3754C145.364 47.9415 145.722 48.2487 146.385 48.3894V48.6972L144.474 48.649C144.18 48.649 143.007 48.6972 142.638 48.6972V48.3894C143.252 48.2718 143.615 47.9671 143.615 47.3754V38.9045C143.615 38.3835 143.332 38.0556 142.64 37.9374V37.6327L144.497 37.6791C145.035 37.6791 146.563 37.5889 147.164 37.5889C149.796 37.5889 151.261 38.6809 151.261 40.5529C151.261 42.0245 150.171 43.0202 148.491 43.4267C148.491 43.4267 148.874 43.6497 149.256 44.0958C149.72 44.6448 150.973 46.4504 151.494 47.0811C152.013 47.7142 152.678 48.4205 153.39 48.4528V48.6996C153.049 48.7746 152.501 48.8398 152.083 48.8398C151.189 48.8398 150.476 48.5229 149.783 47.6813C149.183 46.9489 148.165 45.4291 147.567 44.6613C147.184 44.1726 146.72 43.7905 145.869 43.6497C145.705 43.6217 145.55 43.5985 145.364 43.5766V47.3754ZM145.364 42.8734C145.715 42.9215 146.23 42.9441 146.739 42.9441C148.799 42.9441 149.449 41.7546 149.449 40.7016C149.449 39.2129 148.458 38.2903 146.655 38.2903C146.281 38.2903 145.74 38.3366 145.364 38.4079V42.8734ZM119.273 39.0258C119.033 38.4926 118.665 38.102 118.037 37.9636V37.6522C118.427 37.6522 119.78 37.7016 120.077 37.7016C120.351 37.7016 121.533 37.6522 121.935 37.6522V37.9545C121.578 38.0234 121.172 38.2214 121.172 38.587C121.172 38.8491 121.33 39.2055 121.632 39.8765L124.468 46.3505L127.152 39.8649C127.364 39.3414 127.517 38.9362 127.517 38.6266C127.517 38.2842 127.202 38.0465 126.756 37.9545V37.6522C127.112 37.6522 127.987 37.7016 128.258 37.7016C128.507 37.7016 129.533 37.6522 129.925 37.6522V37.9636C129.255 38.1452 128.847 38.5151 128.471 39.3908L124.522 48.7362H123.628L119.273 39.0258Z" fill="#231F20"/>
</svg>
