<svg width="179" height="56" viewBox="0 0 179 56" fill="none" xmlns="http://www.w3.org/2000/svg">
<path fill-rule="evenodd" clip-rule="evenodd" d="M174.813 46.4399H173.766V44.9999H174.813V43.4599L176.906 42.8199V44.9999H178.791V46.4599H176.906V49.9999C176.906 50.6499 177.095 51.2599 177.953 51.2599C178.288 51.2709 178.62 51.1989 178.916 51.0499L178.979 52.6299C178.467 52.7589 177.939 52.8199 177.409 52.8099C177.333 52.8169 177.256 52.8209 177.179 52.8209C175.875 52.8209 174.802 51.7959 174.802 50.5509C174.802 50.4799 174.806 50.4099 174.813 50.3399V46.4399Z" fill="#54585A"/>
<path fill-rule="evenodd" clip-rule="evenodd" d="M121.427 42.8199H123.52V46.8599H127.708V42.8199H129.801V52.8199H127.708V48.4299H123.52V52.8199H121.427V42.8199Z" fill="#54585A"/>
<path fill-rule="evenodd" clip-rule="evenodd" d="M134.208 51.36C134.789 51.376 135.344 51.122 135.695 50.68C136.02 50.218 136.175 49.665 136.134 49.11H135.224C134.281 49.11 132.879 49.26 132.879 50.43C132.868 51.08 133.444 51.36 134.208 51.36ZM131.738 45.36C132.626 44.991 133.584 44.793 134.554 44.78C137.024 44.78 138.05 45.78 138.05 48V50.91C138.05 51.47 138.05 52.02 138.144 52.62H136.281C136.225 52.242 136.194 51.861 136.187 51.48C135.653 52.307 134.702 52.808 133.685 52.8C133.595 52.809 133.505 52.814 133.415 52.814C132.08 52.814 130.955 51.821 130.848 50.55C130.789 49.622 131.341 48.75 132.23 48.37C133.095 48.034 134.028 47.881 134.962 47.92H136.082C136.082 46.69 135.496 46.27 134.25 46.27C133.346 46.287 132.469 46.578 131.748 47.1L131.738 45.36Z" fill="#54585A"/>
<path fill-rule="evenodd" clip-rule="evenodd" d="M139.222 45H140.866V46.78C140.949 46.05 141.703 44.78 142.813 44.78C143.003 44.771 143.194 44.791 143.378 44.84V46.84C143.123 46.717 142.838 46.658 142.551 46.67C141.044 46.67 141.044 48.73 141.044 49.86V52.73H139.222V45Z" fill="#54585A"/>
<path fill-rule="evenodd" clip-rule="evenodd" d="M150.391 46.6401C149.928 46.4421 149.423 46.3471 148.915 46.3601C147.694 46.3781 146.699 47.3431 146.699 48.5101C146.699 48.6001 146.706 48.6901 146.717 48.7801C146.717 50.1901 147.45 51.2701 148.968 51.2701C149.54 51.2461 150.105 51.1251 150.632 50.9101L150.726 52.5601C150.021 52.7451 149.291 52.8301 148.56 52.8101C145.827 52.8101 144.446 51.1001 144.446 48.8101C144.435 48.7021 144.431 48.5941 144.431 48.4851C144.431 46.4671 146.17 44.8051 148.283 44.8051C148.347 44.8051 148.412 44.8071 148.476 44.8101C149.182 44.7961 149.888 44.8811 150.569 45.0601L150.37 46.6301" fill="#54585A"/>
<path fill-rule="evenodd" clip-rule="evenodd" d="M154.924 51.27C156.526 51.27 156.944 49.9 156.944 48.63C156.965 48.518 156.976 48.404 156.976 48.289C156.976 47.22 156.054 46.339 154.934 46.339C153.814 46.339 152.893 47.22 152.893 48.289C152.893 48.404 152.904 48.518 152.925 48.63C152.914 49.89 153.333 51.27 154.924 51.27ZM154.924 44.81C154.986 44.807 155.047 44.806 155.109 44.806C157.309 44.806 159.118 46.535 159.118 48.636C159.118 48.711 159.115 48.785 159.111 48.86C159.111 51.054 157.221 52.86 154.924 52.86C152.627 52.86 150.737 51.054 150.737 48.86C150.733 48.785 150.729 48.71 150.729 48.635C150.729 46.54 152.535 44.815 154.728 44.815C154.794 44.815 154.859 44.817 154.924 44.82V44.81Z" fill="#54585A"/>
<path fill-rule="evenodd" clip-rule="evenodd" d="M167.485 52.6299H165.517V51.5699C164.896 52.3489 163.926 52.8079 162.901 52.8099C161.006 52.8099 160.189 51.4999 160.189 49.7399V44.8199H162.283V48.9999C162.283 49.9999 162.283 51.2499 163.633 51.2499C165.141 51.2499 165.465 49.6599 165.465 48.6499V44.8199H167.559V52.6399" fill="#54585A"/>
<path fill-rule="evenodd" clip-rule="evenodd" d="M168.532 45H170.176V46.78C170.259 46.05 171.024 44.78 172.123 44.78C172.313 44.771 172.504 44.791 172.688 44.84V46.84C172.432 46.717 172.148 46.658 171.861 46.67C170.354 46.67 170.354 48.73 170.354 49.86V52.73H168.532V45Z" fill="#54585A"/>
<path fill-rule="evenodd" clip-rule="evenodd" d="M72.228 42.8199H75.5254L77.9749 50.3999H77.9958L80.4453 42.8199H83.7426V52.8199H81.7642V44.5599H81.7433L78.9693 52.8199H77.0014L74.2274 44.5599L74.2064 44.5899V52.8199H72.228L72.228 42.8199Z" fill="#54585A"/>
<path fill-rule="evenodd" clip-rule="evenodd" d="M98.3976 43.32C98.7117 43.321 99.0173 43.411 99.2769 43.58L99.4444 42C98.9597 41.898 98.4646 41.844 97.9684 41.84C97.9287 41.838 97.8878 41.837 97.8481 41.837C96.5438 41.837 95.4719 42.862 95.4719 44.107C95.4719 44.195 95.4771 44.283 95.4876 44.37V45.37H92.4938V44.45C92.4938 43.87 92.7031 43.31 93.3835 43.31C93.6976 43.311 94.0032 43.401 94.2628 43.57L94.4198 42C93.9352 41.898 93.44 41.844 92.9439 41.84C92.9072 41.838 92.8706 41.838 92.834 41.838C91.5297 41.838 90.4578 42.862 90.4578 44.108C90.4578 44.195 90.463 44.283 90.4735 44.37V45.37H88.9766V46.8H90.4735V52.8H92.4938V46.8H95.4876V52.8H97.5078V46.8H99.2769V45.38H97.5183V44.46C97.5183 43.88 97.7277 43.32 98.4081 43.32" fill="#54585A"/>
<path fill-rule="evenodd" clip-rule="evenodd" d="M100.491 46.6499V41.8199H102.585V52.8199H100.491V46.6499Z" fill="#54585A"/>
<path fill-rule="evenodd" clip-rule="evenodd" d="M107.819 45H109.787V46.06C110.366 45.232 111.362 44.755 112.404 44.81C114.298 44.81 115.115 46.12 115.115 47.88V52.81H113.021V48.64C113.021 47.64 113.021 46.39 111.671 46.39C110.216 46.4 109.912 48 109.912 49V52.83H107.819L107.819 45Z" fill="#54585A"/>
<path fill-rule="evenodd" clip-rule="evenodd" d="M85.8363 48.0599V45.8199H87.9299V52.8199H85.8363V48.0599Z" fill="#54585A"/>
<path fill-rule="evenodd" clip-rule="evenodd" d="M87.9299 43.8199C87.9299 44.3689 87.4578 44.8199 86.8831 44.8199C86.3084 44.8199 85.8363 44.3689 85.8363 43.8199C85.8363 43.2709 86.3084 42.8199 86.8831 42.8199C87.4578 42.8199 87.9299 43.2709 87.9299 43.8199Z" fill="#54585A"/>
<path fill-rule="evenodd" clip-rule="evenodd" d="M104.678 47.8499V45.8199H106.772V52.8199H104.678V47.8499Z" fill="#54585A"/>
<path fill-rule="evenodd" clip-rule="evenodd" d="M106.772 43.8199C106.772 44.3689 106.3 44.8199 105.725 44.8199C105.15 44.8199 104.678 44.3689 104.678 43.8199C104.678 43.2709 105.15 42.8199 105.725 42.8199C106.3 42.8199 106.772 43.2709 106.772 43.8199Z" fill="#54585A"/>
<path fill-rule="evenodd" clip-rule="evenodd" d="M0 42.8199H2.09357V46.8599H6.2807V42.8199H8.37427V52.8199H6.2807V48.4299H2.09357V52.8199H0V42.8199Z" fill="#54585A"/>
<path fill-rule="evenodd" clip-rule="evenodd" d="M13.6082 51.27C15.2098 51.27 15.6285 49.91 15.6285 48.63C15.6411 48.54 15.6473 48.45 15.6473 48.359C15.6473 47.282 14.7356 46.388 13.6082 46.36C12.4882 46.398 11.59 47.289 11.59 48.359C11.59 48.449 11.5963 48.54 11.6089 48.63C11.5984 49.89 12.0171 51.27 13.6082 51.27ZM13.6082 44.81C13.67 44.807 13.7317 44.806 13.7935 44.806C15.9928 44.806 17.8027 46.535 17.8027 48.636C17.8027 48.711 17.7995 48.785 17.7953 48.86C17.7985 48.919 17.7995 48.978 17.7995 49.037C17.7995 51.11 16.0137 52.817 13.8427 52.817C13.7642 52.817 13.6867 52.814 13.6082 52.81C13.5266 52.815 13.4449 52.817 13.3622 52.817C11.1975 52.817 9.41584 51.115 9.41584 49.047C9.41584 48.985 9.41794 48.922 9.42108 48.86C9.41689 48.789 9.41479 48.717 9.41479 48.646C9.41479 46.545 11.2247 44.816 13.424 44.816C13.4857 44.816 13.5464 44.817 13.6082 44.82V44.81Z" fill="#54585A"/>
<path fill-rule="evenodd" clip-rule="evenodd" d="M26.1696 52.6299H24.2017V51.5699C23.5799 52.3489 22.6106 52.8079 21.5847 52.8099C19.69 52.8099 18.8735 51.4999 18.8735 49.7399V44.8199H20.9671V48.9999C20.9671 49.9999 20.9671 51.2499 22.3175 51.2499C23.8248 51.2499 24.1493 49.6599 24.1493 48.6499V44.8199H26.2429V52.6399" fill="#54585A"/>
<path fill-rule="evenodd" clip-rule="evenodd" d="M32.6073 48.69C32.6073 47.4 32.1153 46.34 30.9848 46.34C29.6659 46.34 29.2472 47.57 29.2472 48.73C29.2472 49.89 29.781 51 30.8906 51C32.0002 51 32.6073 50 32.6073 48.69ZM34.5439 45V51.83C34.5439 53.88 33.7379 55.83 30.608 55.83C29.7214 55.837 28.8431 55.663 28.0329 55.32L28.1899 53.65C28.8578 54.017 29.5999 54.242 30.3672 54.31C32.4608 54.31 32.6073 52.68 32.6073 51.37C32.1174 52.136 31.2329 52.594 30.2939 52.57C28.0957 52.57 27.2478 50.78 27.2478 48.75C27.2478 46.93 28.1794 44.83 30.3882 44.83C31.3156 44.774 32.1991 45.229 32.6597 46V45H34.5439Z" fill="#54585A"/>
<path fill-rule="evenodd" clip-rule="evenodd" d="M36.6375 41.8199H38.731V46.2899C39.3047 45.5139 40.2489 45.0629 41.2433 45.0899C43.138 45.0899 43.9545 46.3499 43.9545 48.0899V52.8599H41.8714V48.8599C41.8714 47.9399 41.8714 46.6899 40.521 46.6899C39.0136 46.6899 38.6891 48.2299 38.6891 49.1999V52.8999H36.6375V41.8999" fill="#54585A"/>
<path fill-rule="evenodd" clip-rule="evenodd" d="M46.0585 46.4399H45.0117V44.9999H46.0585V43.4599L48.1521 42.8199V44.9999H50.0363V46.4599H48.1521V49.9999C48.1521 50.6499 48.3405 51.2599 49.1989 51.2599C49.5338 51.2709 49.8657 51.1989 50.1619 51.0499L50.2456 52.6399C49.7338 52.7689 49.2051 52.8299 48.6755 52.8199C48.5917 52.8289 48.508 52.8329 48.4232 52.8329C47.1199 52.8329 46.047 51.8079 46.047 50.5629C46.047 50.4879 46.0512 50.4139 46.0585 50.3399V46.4399Z" fill="#54585A"/>
<path fill-rule="evenodd" clip-rule="evenodd" d="M54.4328 51.27C56.0344 51.27 56.4531 49.91 56.4531 48.63C56.474 48.518 56.4845 48.404 56.4845 48.289C56.4845 47.22 55.5633 46.339 54.4433 46.339C53.3232 46.339 52.402 47.22 52.402 48.289C52.402 48.404 52.4125 48.518 52.4334 48.63C52.423 49.89 52.8417 51.27 54.4328 51.27ZM54.4328 44.81C54.4946 44.807 54.5563 44.806 54.6181 44.806C56.8174 44.806 58.6273 46.535 58.6273 48.636C58.6273 48.711 58.6241 48.785 58.6199 48.86C58.6199 51.054 56.7294 52.86 54.4328 52.86C52.1362 52.86 50.2457 51.054 50.2457 48.86C50.2415 48.789 50.2394 48.717 50.2394 48.646C50.2394 46.545 52.0493 44.816 54.2486 44.816C54.3103 44.816 54.371 44.817 54.4328 44.82V44.81Z" fill="#54585A"/>
<path fill-rule="evenodd" clip-rule="evenodd" d="M59.6666 45H61.6346V46.06C62.2135 45.232 63.21 44.755 64.2515 44.81C66.1462 44.81 66.9627 46.12 66.9627 47.88V52.81H64.9005V48.64C64.9005 47.64 64.9005 46.39 63.5502 46.39C62.0638 46.4 61.7602 48 61.7602 49V52.83H59.6666V45Z" fill="#54585A"/>
<path fill-rule="evenodd" clip-rule="evenodd" d="M140.719 15.84V15.872C140.719 24.3627 133.89 31.3493 125.591 31.3493C117.292 31.3493 110.464 24.3627 110.464 15.872C110.464 7.38132 117.292 0.394656 125.591 0.394656H125.601C133.891 0.389323 140.717 7.35892 140.729 15.84" fill="#F2A900"/>
<path fill-rule="evenodd" clip-rule="evenodd" d="M60.3898 0L43 30.56H77.5189L60.3898 0Z" fill="#898D8D"/>
<path fill-rule="evenodd" clip-rule="evenodd" d="M106.648 0.0959473L80.1045 4.45861C84.0141 3.85061 89.9358 6.59195 95.013 11.8186C100.09 17.0453 102.874 23.2106 102.186 27.1999L106.648 0.0959473Z" fill="#898D8D"/>
<path fill-rule="evenodd" clip-rule="evenodd" d="M95.013 11.8187C89.9149 6.63469 84.0141 3.85069 80.1045 4.45869H80.0003C79.0161 4.60589 78.1007 5.06562 77.3834 5.77069C74.1307 9.08802 76.7683 17.1734 83.2739 23.8294C89.7794 30.4854 97.6924 33.1734 100.997 29.8454C101.685 29.1147 102.134 28.1824 102.28 27.1787C102.968 23.1894 100.195 17.0454 95.1068 11.7974" fill="#F2A900"/>
</svg>
