<?xml version="1.0" encoding="UTF-8"?>
<svg width="65px" height="68px" viewBox="0 0 65 68" version="1.1" xmlns="http://www.w3.org/2000/svg" xmlns:xlink="http://www.w3.org/1999/xlink">
    <title>knowledge</title>
    <g id="Page-1" stroke="none" stroke-width="1" fill="none" fill-rule="evenodd">
        <g id="Вступ-на-програми-молодшого-спеціаліста" transform="translate(-997.000000, -1352.000000)" fill="#DE3737" fill-rule="nonzero">
            <g id="Привабливі-умови" transform="translate(907.000000, 1260.000000)">
                <g id="knowledge" transform="translate(90.000000, 92.000000)">
                    <polygon id="Path" points="62 46 64 46 64 60 62 60"></polygon>
                    <polygon id="Path" points="25 33 26 32.561031 26 13 25 14.1961007"></polygon>
                    <polygon id="Path" points="20 15.1546709 20 35 22 34.1536262 22 15.1546709 21 14"></polygon>
                    <path d="M20.6590008,10.5902747 C21.1241079,10.1639773 21.8758921,10.1639773 22.3409992,10.5902747 L23.8790642,12 L26,10.0560401 L24.3334655,7 L18.6665345,7 L17,10.0560401 L19.1209358,12 L20.6590008,10.5902747 Z" id="Path"></path>
                    <polygon id="Path" points="50 0 38 0 38 2.35406394 42.8 2.35406394 42.8 4.70812788 38 4.70812788 38 7.06219182 45.2 7.06219182 45.2 9.41625577 38 9.41625577 38 11.7703197 42.8 11.7703197 42.8 14.1243836 38 14.1243836 38 16.4784476 45.2 16.4784476 45.2 18.8325115 38 18.8325115 38 21.1865755 42.8 21.1865755 42.8 23.5406394 38 23.5406394 38 25.8947034 45.2 25.8947034 45.2 28.2487673 38 28.2487673 38 32.6838238 50 37"></polygon>
                    <polygon id="Path" points="21.5 2 20 5 23 5"></polygon>
                    <path d="M31.5,58.8970252 C31.3626316,58.8970252 31.2240789,58.8729977 31.0914474,58.826087 L9,51 L9,61.4782609 L31.5,68 L54,61.4782609 L54,51 L31.9085526,58.826087 C31.7759211,58.8729977 31.6373684,58.8970252 31.5,58.8970252 Z" id="Path"></path>
                    <polygon id="Path" points="18 14.1924513 17 13 17 36 18 35.5623704"></polygon>
                    <ellipse id="Oval" cx="31.5" cy="45" rx="3.5" ry="1"></ellipse>
                    <path d="M64,44.5 L32,33 L0,44.5 L32,56 L64,44.5 Z M26.0948514,44.5 C26.0948514,42.5206341 28.6328843,41.0274283 32,41.0274283 C35.3671157,41.0274283 37.9051486,42.5206341 37.9051486,44.5 C37.9051486,46.4793659 35.3671157,47.9725717 32,47.9725717 C28.6328843,47.9725717 26.0948514,46.4793659 26.0948514,44.5 Z" id="Shape"></path>
                    <path d="M63.75,61 L61.25,61 C60.56,61 60,61.5226667 60,62.1666667 L60,66.8333333 C60,67.4773333 60.56,68 61.25,68 L63.75,68 C64.44,68 65,67.4773333 65,66.8333333 L65,62.1666667 C65,61.5226667 64.44,61 63.75,61 Z" id="Path"></path>
                </g>
            </g>
        </g>
    </g>
</svg>