<svg width="21" height="16" viewBox="0 0 21 16" fill="none" xmlns="http://www.w3.org/2000/svg">
<path d="M19.2044 0H1.79533C1.50957 0 1.24204 0.0655591 1 0.173618L10.4586 9L12.5786 7.09879C12.5786 7.09879 12.5788 7.09859 12.5788 7.09852C12.5788 7.09844 12.579 7.09836 12.579 7.09836L20 0.173772C19.7579 0.0656361 19.4902 0 19.2044 0Z" fill="#DE3737"/>
<path d="M20.7927 1L13 7.99994L20.7924 15C20.9216 14.7574 21 14.4892 21 14.2028V1.79695C21 1.51066 20.9218 1.24253 20.7927 1Z" fill="#DE3737"/>
<path d="M0.207608 1C0.0783939 1.24261 0 1.51079 0 1.79723V14.203C0 14.4893 0.0783018 14.7575 0.207424 15L8 8.0001L0.207608 1Z" fill="#DE3737"/>
<path d="M13.0167 8.00009L10.8964 10.2738C10.7756 10.4087 10.6172 10.4761 10.4589 10.4761C10.3006 10.4761 10.1423 10.4087 10.0214 10.2738L7.98367 8L1 15.7922C1.24208 15.9215 1.50977 16 1.79562 16H19.2047C19.4904 16 19.758 15.9216 20 15.7924L13.0167 8.00009Z" fill="#DE3737"/>
</svg>
