<svg width="193" height="56" viewBox="0 0 193 56" fill="none" xmlns="http://www.w3.org/2000/svg">
<path fill-rule="evenodd" clip-rule="evenodd" d="M9 9H27L26.9986 27H9L9 9Z" fill="#F65314"/>
<path fill-rule="evenodd" clip-rule="evenodd" d="M29.0003 9H46.9997C46.9997 15 47.0008 21 46.9987 27C40.9999 26.999 35.0001 27 29.0013 27C28.9992 21 29.0003 15 29.0003 9Z" fill="#7FBB41"/>
<path fill-rule="evenodd" clip-rule="evenodd" d="M168.368 15.9754C170.001 14.8853 172.111 14.7835 173.951 15.303C173.967 16.4252 173.953 17.5481 173.958 18.6706C173.084 18.2759 172.055 18.0183 171.135 18.4056C170.405 18.7027 169.971 19.4711 169.858 20.2391C169.721 21.2136 169.81 22.2012 169.786 23.1813C171.654 23.1856 173.522 23.1824 175.39 23.1834C175.404 21.9393 175.375 20.6941 175.406 19.4499C176.676 19.0795 177.932 18.6632 179.196 18.2727C179.207 19.9116 179.181 21.5519 179.21 23.1923C180.473 23.1736 181.736 23.188 183 23.1834V26.3749C181.732 26.321 180.463 26.3601 179.195 26.3559C179.2 28.1907 179.196 30.0252 179.197 31.8605C179.217 32.8766 179.144 33.898 179.26 34.9109C179.33 35.508 179.542 36.1695 180.087 36.4783C181.001 37.0031 182.161 36.774 183 36.1977V39.4202C181.905 39.908 180.682 40.0567 179.498 39.9704C178.375 39.8851 177.211 39.4664 176.478 38.5493C175.631 37.5138 175.414 36.1114 175.396 34.7996C175.387 31.9842 175.398 29.1684 175.392 26.3516C173.523 26.3502 171.654 26.3495 169.786 26.3527C169.784 30.7714 169.785 35.1904 169.785 39.6095H165.955C165.955 35.1911 165.949 30.7749 165.957 26.3573C165.068 26.3397 164.179 26.3615 163.291 26.3428C163.294 25.2943 163.298 24.2443 163.289 23.1944C164.173 23.1736 165.058 23.1824 165.944 23.1891C166.009 21.7941 165.802 20.3592 166.208 19.0005C166.551 17.774 167.315 16.6673 168.368 15.9754ZM86.3572 16.2045C87.1294 16.0844 87.9653 16.355 88.4771 16.975C89.0773 17.6538 89.1879 18.7341 88.743 19.5278C88.2514 20.4223 87.1518 20.8382 86.1933 20.6236C85.1988 20.4403 84.3702 19.4915 84.4145 18.4342C84.386 17.3211 85.2932 16.329 86.3572 16.2042V16.2045ZM57.0012 16.6913H62.572C64.3059 21.2087 66.0524 25.7207 67.7886 30.2378C68.2322 31.3677 68.6471 32.51 69.112 33.6308C71.3425 27.9867 73.6051 22.3566 75.8185 16.7043C77.6049 16.6747 79.3916 16.6976 81.1787 16.6934C81.1746 24.3317 81.1766 31.9697 81.178 39.6081C79.8887 39.6049 78.6004 39.6193 77.3122 39.6003C77.3259 33.9639 77.3112 28.3271 77.3187 22.6893C77.3208 22.4359 77.3122 22.1825 77.295 21.9298C77.2194 22.0475 77.1528 22.1698 77.0944 22.2967C74.8803 28.066 72.6243 33.8194 70.4236 39.5947C69.5067 39.6289 68.5887 39.5971 67.6705 39.6119C65.387 33.8427 63.1317 28.0596 60.8595 22.2854C60.7997 22.1652 60.7362 22.0485 60.6668 21.9365C60.6201 24.4057 60.6596 26.8775 60.6469 29.3475C60.6475 32.7677 60.6448 36.1879 60.6475 39.6081C59.4321 39.6112 58.2163 39.6081 57.0012 39.6095C57.0002 31.9697 56.9992 24.3303 57.0012 16.6913ZM96.899 23.1683C98.7472 22.628 100.741 22.6498 102.589 23.1856C102.97 23.2948 103.338 23.4464 103.681 23.6529C103.66 24.9045 103.681 26.1574 103.669 27.4104C102.434 26.4422 100.867 25.829 99.2975 26.032C98.0505 26.1476 96.8615 26.8112 96.116 27.8446C95.1572 29.1258 94.936 30.8271 95.1012 32.3944C95.2246 33.621 95.7189 34.8468 96.6489 35.6599C97.6145 36.5403 98.9684 36.8522 100.232 36.7543C101.481 36.6069 102.66 36.0642 103.669 35.3067C103.68 36.4931 103.664 37.6795 103.678 38.8658C102.112 39.822 100.235 40.0684 98.4421 39.9785C96.6083 39.8788 94.7797 39.1661 93.4522 37.8433C92.0097 36.417 91.2268 34.3826 91.1341 32.3454C91.0406 30.2268 91.4608 28.017 92.6491 26.248C93.6446 24.7385 95.2022 23.6702 96.899 23.1683ZM138.74 22.9184C140.512 22.5984 142.366 22.8331 144.042 23.4848C144.044 24.6898 144.042 25.8931 144.043 27.0971C142.872 26.2709 141.441 25.8265 140.02 25.8779C139.304 25.9065 138.517 26.2177 138.19 26.9159C137.931 27.6067 138.111 28.5125 138.746 28.9263C139.831 29.6717 141.127 29.9882 142.253 30.6558C143.139 31.1668 143.998 31.8344 144.448 32.7973C145.291 34.6001 144.934 36.9827 143.45 38.3273C142.035 39.6846 139.996 40.0599 138.12 39.988C136.788 39.8995 135.45 39.6299 134.226 39.0709C134.231 37.8042 134.218 36.5382 134.232 35.2722C135.262 36.0395 136.45 36.5883 137.707 36.811C138.583 36.9569 139.535 36.964 140.351 36.5622C141.132 36.1639 141.272 35.0255 140.808 34.329C140.374 33.7923 139.737 33.4969 139.136 33.2065C138.008 32.6859 136.821 32.2503 135.83 31.4703C135.133 30.9124 134.606 30.1268 134.399 29.2403C134.093 27.9341 134.189 26.462 134.929 25.3204C135.775 23.9899 137.244 23.1923 138.74 22.9184ZM112.246 23.4358C113.303 22.7841 114.647 22.7295 115.801 23.1281C115.796 24.4389 115.801 25.7489 115.798 27.0597C115.043 26.5582 114.1 26.3428 113.209 26.4359C112.121 26.5624 111.26 27.4189 110.814 28.4015C110.328 29.4412 110.237 30.6174 110.267 31.7547C110.267 34.3727 110.269 36.9911 110.267 39.6095H106.491C106.488 34.1373 106.496 28.6644 106.488 23.1923C107.749 23.1757 109.009 23.1824 110.27 23.1887C110.265 24.1287 110.27 25.068 110.267 26.0091C110.676 24.9866 111.286 23.9934 112.246 23.4354V23.4358ZM84.7625 23.1887C86.0325 23.1834 87.304 23.1708 88.5737 23.1954C88.5589 28.6669 88.573 34.1384 88.5675 39.6095H84.7645C84.7614 34.1362 84.7659 28.663 84.7625 23.1891V23.1887ZM122.85 22.8856C124.689 22.6456 126.628 22.7527 128.334 23.5493C129.815 24.2345 131.015 25.5015 131.679 27.0188C132.388 28.6331 132.561 30.4475 132.441 32.1992C132.323 33.9089 131.8 35.6225 130.757 36.9812C129.69 38.4242 128.082 39.4019 126.36 39.7653C124.887 40.0796 123.347 40.0782 121.875 39.761C120.113 39.3744 118.483 38.3258 117.45 36.8001C116.237 35.0322 115.893 32.7842 116.047 30.6657C116.151 28.8681 116.696 27.0565 117.815 25.6467C119.04 24.0674 120.92 23.1355 122.85 22.8856ZM123.993 26.0048C123.077 26.057 122.152 26.3749 121.473 27.0248C120.537 27.895 120.109 29.1913 119.993 30.4517C119.865 31.8379 119.958 33.2992 120.575 34.5627C121.055 35.5439 121.937 36.3148 122.976 36.595C123.997 36.8667 125.108 36.8438 126.098 36.454C126.943 36.116 127.614 35.4019 127.98 34.5574C128.533 33.3045 128.587 31.8957 128.519 30.5437C128.424 29.3077 128.082 28.0127 127.197 27.12C126.369 26.2611 125.144 25.9273 123.993 26.0048ZM153.381 22.88C155.292 22.6371 157.322 22.7686 159.066 23.6726C160.588 24.453 161.767 25.8631 162.356 27.4932C162.817 28.7406 162.979 30.0873 162.952 31.4153C162.955 33.3993 162.433 35.4357 161.219 37.0094C160.083 38.5331 158.345 39.5231 156.51 39.834C154.716 40.1318 152.82 40.0546 151.115 39.3659C149.387 38.6688 147.951 37.2452 147.223 35.4925C146.465 33.7063 146.385 31.6959 146.621 29.7873C146.869 27.8781 147.712 26.0122 149.148 24.743C150.324 23.6836 151.839 23.0833 153.381 22.88ZM154.415 26.008C153.355 26.069 152.304 26.5374 151.619 27.384C150.868 28.2912 150.545 29.4881 150.458 30.6547C150.368 31.8594 150.458 33.1071 150.912 34.2332C151.29 35.1784 152.007 36 152.932 36.4018C153.79 36.7807 154.756 36.848 155.673 36.7074C156.527 36.5784 157.355 36.1597 157.911 35.472C158.463 34.7879 158.754 33.9255 158.901 33.0613C159.086 31.901 159.088 30.7062 158.869 29.5515C158.675 28.5672 158.25 27.5894 157.483 26.9367C156.652 26.187 155.496 25.9308 154.415 26.008Z" fill="#787878"/>
<path fill-rule="evenodd" clip-rule="evenodd" d="M9 29C14.9998 29.0021 20.9997 28.9993 26.9995 29.0021C27.0006 35.0017 26.9995 41.0003 26.9995 47H9V29Z" fill="#00A1F1"/>
<path fill-rule="evenodd" clip-rule="evenodd" d="M29.001 29.0013C35 28.9992 41 29.0003 47 29.0003V47H29C29.001 41.0001 28.999 35.0002 29.001 29.0013Z" fill="#FFBB00"/>
</svg>
