<svg width="68" height="68" viewBox="0 0 68 68" fill="none" xmlns="http://www.w3.org/2000/svg">
<g id="mortarboard">
<path id="Path" d="M2.5 18.9997L6.12707 21.1166C7.00616 20.3767 8.08449 19.9073 9.22866 19.7656L34.8651 16.6406C35.5194 16.5609 36.1147 17.0222 36.1951 17.6713C36.2755 18.3211 35.8106 18.9118 35.1558 18.9916L9.51994 22.1172C9.13428 22.1669 8.75911 22.2791 8.41015 22.4496L34.9997 38L67.5 18.9997L34.9997 0L2.5 18.9997Z" fill="#DE3737"/>
<path id="Path_2" d="M33.8906 40.4996L10.5 27V39.239C10.5 42.4754 13.3559 45.6217 18.3352 47.8708C23.4387 50.0148 28.9471 51.0797 34.5 50.9953C40.0523 51.0802 45.5607 50.0154 50.6643 47.8708C55.6441 45.6217 58.5 42.4754 58.5 39.239V27L35.11 40.4996C34.7338 40.7166 34.2668 40.7166 33.8906 40.4996Z" fill="#DE3737"/>
<path id="Path_3" d="M7.5 65.5385L5.16667 52L0.5 68L7.5 65.5385Z" fill="#DE3737"/>
<path id="Path_4" d="M8.49999 48.4513C8.49771 46.9521 7.56085 45.6175 6.16297 45.1209V25.5194C6.1664 25.0216 6.27366 24.5302 6.4785 24.0774C6.81513 23.3146 7.4068 22.6966 8.14967 22.3317L5.9222 21C5.31683 21.5197 4.82159 22.159 4.46784 22.878C4.0519 23.6951 3.83223 24.6 3.82596 25.5194V45.1209C2.14965 45.7255 1.18825 47.5065 1.59164 49.2609C1.9956 51.0153 3.63539 52.1835 5.40299 51.9762C7.17059 51.7695 8.50342 50.2524 8.49999 48.4513Z" fill="#DE3737"/>
</g>
</svg>
