<svg width="140" height="56" viewBox="0 0 140 56" fill="none" xmlns="http://www.w3.org/2000/svg">
<path fill-rule="evenodd" clip-rule="evenodd" d="M10.489 0C13.6909 0 16.3407 2.65089 16.3407 5.85404V50.2564C16.3407 50.9191 16.8927 51.4714 17.5552 51.4714H22.082C22.7445 51.4714 23.2965 50.9191 23.2965 50.2564V0H28.0442V50.146C28.0442 53.3491 25.3943 56 22.1924 56H17.5552C14.3533 56 11.7035 53.3491 11.7035 50.146V5.85404C11.7035 5.19132 11.1514 4.63905 10.489 4.63905H5.85174C5.18927 4.63905 4.63722 5.19132 4.63722 5.85404V56H0V5.85404C0 2.65089 2.64984 0 5.85174 0H10.489ZM131.057 33.7988L134.259 42.0828L137.461 33.7988V33.9093H140L134.479 47.716C133.817 49.3728 132.713 50.2564 131.278 50.2564H129.732V48.0473C131.388 48.0473 131.83 48.0473 132.382 46.7219L132.934 45.3965L128.297 33.7988H131.057ZM96.6088 42.0828C95.6151 44.5128 93.5173 45.8383 91.0883 45.8383C89.5426 45.8383 88.1073 45.1755 87.0032 44.071C85.899 42.856 85.347 41.4201 85.347 39.6529C85.347 37.8856 86.0095 36.3393 87.1136 35.2347C88.2177 34.0197 89.653 33.4675 91.3091 33.4675C92.9653 33.4675 94.4006 34.0197 95.3943 35.1243C96.388 36.2288 96.9401 37.6647 96.9401 39.3215H96.7192V40.2051H87.5552C87.6656 42.3037 89.1009 43.7396 91.0883 43.7396C92.6341 43.7396 93.5173 43.1874 94.1798 42.0828H96.6088ZM54.9842 29.1598V39.6529C54.9842 41.5306 54.5426 43.0769 53.3281 44.1815C52.1136 45.286 50.347 45.8383 48.47 45.8383C46.5931 45.8383 44.8265 45.286 43.612 44.1815C42.3975 43.0769 41.9558 41.641 41.9558 39.6529V29.1598H44.3849V39.5424C44.3849 41.8619 46.041 43.4083 48.47 43.4083C50.8991 43.4083 52.5552 41.8619 52.5552 39.5424V29.1598H54.9842ZM107.539 41.9724C108.091 43.0769 108.975 43.7396 110.3 43.7396C111.514 43.7396 112.508 43.0769 112.508 42.0828C112.508 41.1992 111.625 40.6469 109.748 40.3156C107.098 39.7633 105.773 38.5483 105.773 36.7811C105.773 35.787 106.215 35.0138 106.987 34.4615C107.76 33.9093 108.754 33.5779 109.858 33.5779C112.177 33.5779 114.385 34.6824 114.385 36.8915H112.287C112.177 35.787 111.073 35.2347 109.858 35.2347C108.754 35.2347 107.871 35.787 107.871 36.5602C107.871 37.5542 108.864 38.1065 110.741 38.4379C113.391 38.9901 114.606 40.0947 114.606 41.9724C114.606 44.071 112.95 45.7278 110.189 45.7278C107.65 45.7278 105.662 44.2919 105.221 41.9724H107.539ZM118.912 45.3965H116.593V33.7988H118.912V45.3965ZM72.0978 45.3965H69.6688V33.7988H72.0978V45.3965ZM59.511 45.3965H57.1924V33.7988H59.511V35.787C60.2839 34.2406 61.8297 33.4675 63.4858 33.4675C65.694 33.4675 67.4606 35.1243 67.4606 37.5542V45.3965H65.0315V38.217C65.0315 36.7811 64.4795 35.787 62.7129 35.787C61.0568 35.787 59.511 37.4438 59.511 39.5424V45.3965ZM100.915 33.9093V35.787C101.467 34.3511 102.792 33.7988 104.669 33.7988V36.0079C101.909 35.8974 100.915 37.2229 100.915 39.3215V45.3965H98.5962V33.9093H100.915ZM80.489 45.3965H78.2808L73.6435 33.7988H76.183L79.3849 42.4142L82.5867 33.7988H85.1262L80.489 45.3965ZM124.543 29.3807V33.9093H127.413V35.8974H124.543V42.4142C124.543 42.7456 124.763 43.0769 125.095 43.0769H127.524V45.3965H125.205C123.549 45.3965 122.224 44.071 122.224 42.4142V35.8974H120.568V33.9093H122.224V29.3807H124.543ZM94.6215 38.3274C94.511 37.4438 94.1798 36.7811 93.5173 36.2288C92.3028 35.2347 90.3155 35.1243 89.1009 36.2288C88.4385 36.7811 87.9968 37.4438 87.776 38.3274H94.6215ZM118.912 29.3807V31.9211H116.593V29.3807H118.912ZM72.0978 29.3807V31.9211H69.6688V29.3807H72.0978ZM67.9022 23.858C66.9085 26.288 64.8107 27.6134 62.3817 27.6134C60.836 27.6134 59.4006 26.9507 58.2965 25.8462C57.1924 24.6312 56.6404 23.1953 56.6404 21.428C56.6404 19.6607 57.3028 18.1144 58.4069 17.0099C59.511 15.7949 60.9464 15.2426 62.6025 15.2426C64.2587 15.2426 65.694 15.7949 66.6877 16.8994C67.6814 18.0039 68.2334 19.4398 68.2334 21.0966H68.0126V21.9803H58.8486C58.959 24.0789 60.3943 25.5148 62.3817 25.5148C63.9274 25.5148 64.8107 24.9625 65.4732 23.858H67.9022ZM118.912 27.1716H116.593V25.2939C115.71 26.7298 114.495 27.503 112.839 27.503C111.183 27.503 109.858 26.9507 108.864 25.8462C107.76 24.7416 107.208 23.3057 107.208 21.428C107.208 19.6607 107.76 18.2249 108.864 17.0099C109.968 15.9053 111.293 15.3531 112.729 15.3531C114.606 15.3531 115.82 16.0158 116.593 17.4517V10.9349H118.912V27.1716ZM99.1483 21.428C99.1483 23.3057 98.5962 24.7416 97.2713 25.8462C96.0568 26.9507 94.6215 27.503 92.9653 27.503C91.3092 27.503 89.8738 26.9507 88.6593 25.8462C87.4448 24.7416 86.7823 23.3057 86.7823 21.428C86.7823 19.5503 87.4448 18.1144 88.6593 17.0099C89.8738 15.9053 91.3092 15.3531 92.9653 15.3531C94.6215 15.3531 96.0568 15.9053 97.2713 17.0099C98.5962 18.0039 99.1483 19.5503 99.1483 21.428ZM71.1041 27.1716H68.3438L72.5394 20.9862L68.8959 15.574H71.5457L73.7539 19.1085L76.0726 15.574H78.8328L75.1893 20.9862L79.164 27.1716H76.4038L73.7539 22.8639L71.1041 27.1716ZM103.123 15.6844V17.5621C103.565 16.1262 104.89 15.574 106.877 15.574V17.783C104.117 17.6726 103.123 18.998 103.123 21.0966V27.1716H100.804V15.6844H103.123ZM44.4953 27.1716H41.9558V10.9349H44.4953L51.7823 22.3116C52.1136 22.8639 52.3344 23.3057 52.4448 23.5266V10.9349H54.8738V27.1716H52.3344L45.1577 15.7949C44.8265 15.2426 44.6057 14.8008 44.4953 14.5799V27.1716ZM86.6719 10.8245V13.144H84.3533C84.0221 13.144 83.6908 13.4753 83.6908 13.9172V15.6844H86.5615V17.6726H83.6908V27.1716H81.3722V17.6726H79.7161V15.574H81.3722V13.8067C81.3722 12.1499 82.6972 10.8245 84.3533 10.8245H86.6719ZM93.0757 25.2939C94.0694 25.2939 94.9527 24.9625 95.7256 24.1893C96.4984 23.4162 96.8297 22.5325 96.8297 21.428C96.8297 20.3235 96.4984 19.3294 95.7256 18.6667C94.9527 17.8935 94.0694 17.5621 93.0757 17.5621C92.082 17.5621 91.1987 17.8935 90.4259 18.6667C89.653 19.4398 89.3218 20.3235 89.3218 21.428C89.3218 22.5325 89.653 23.5266 90.4259 24.1893C91.0883 24.9625 91.9716 25.2939 93.0757 25.2939ZM113.17 25.2939C114.164 25.2939 115.047 24.9625 115.71 24.1893C116.372 23.4162 116.703 22.5325 116.703 21.428C116.703 20.3235 116.372 19.3294 115.71 18.6667C115.047 17.8935 114.164 17.5621 113.17 17.5621C112.177 17.5621 111.293 17.8935 110.631 18.6667C109.968 19.4398 109.637 20.3235 109.637 21.428C109.637 22.5325 109.968 23.5266 110.631 24.1893C111.293 24.9625 112.177 25.2939 113.17 25.2939ZM65.9148 20.1026C65.8044 19.2189 65.4732 18.5562 64.8107 18.0039C63.5962 17.0099 61.6088 16.8994 60.3943 18.0039C59.7319 18.5562 59.2902 19.2189 59.0694 20.1026H65.9148Z" fill="black"/>
</svg>
