<svg width="140" height="56" viewBox="0 0 140 56" fill="none" xmlns="http://www.w3.org/2000/svg">
<path d="M0 11.7087H5.93072V15.6059H6.03537C6.58972 14.3907 7.55302 13.3193 8.92381 12.3916C10.2932 11.4639 11.9152 11 13.789 11C15.4188 11 16.8137 11.2786 17.9774 11.8351C19.1398 12.3916 20.0937 13.1256 20.8398 14.0362C21.5858 14.9477 22.1317 15.9931 22.4775 17.1748C22.8257 18.3565 23 19.5707 23 20.8178V36H16.7539V22.5389C16.7539 21.8297 16.7035 21.088 16.5976 20.3122C16.4949 19.5365 16.2675 18.8365 15.9218 18.2125C15.5745 17.5875 15.0978 17.0725 14.4914 16.668C13.8838 16.263 13.077 16.0606 12.0722 16.0606C11.0645 16.0606 10.1984 16.2555 9.47045 16.6429C8.74056 17.031 8.14305 17.5287 7.6743 18.1358C7.20724 18.7427 6.84917 19.4441 6.60805 20.2356C6.36403 21.0296 6.24322 21.8295 6.24322 22.6395V35.9998H0V11.7087Z" fill="#E4003A"/>
<path d="M66 29.0202V36L54.4995 26.9798L43 36V29.0202L54.4995 20L66 29.0202Z" fill="#009FE3"/>
<rect x="54.4668" y="26.2999" width="0.1" height="0.1" fill="#E4003A"/>
<path d="M54.4668 19.2651L58.8881 22.7827L65.8937 17.2089V10.1741L54.4668 19.2651Z" fill="#E4003A"/>
<path d="M43.041 17.2089L50.046 22.7827L54.467 19.2651L43.041 10.1741V17.2089Z" fill="#E4003A"/>
<rect x="30" y="11" width="6" height="24" fill="#E4003A"/>
<path d="M48.9029 45.3665C48.3707 44.7111 47.3867 44.2377 46.5159 44.2377C45.0644 44.2377 44.516 45.4397 44.516 46.3864C44.516 49.3722 50 48.3344 50 52.3588C50 54.1975 48.887 56 46.5322 56C45.1612 56 43.8868 55.399 43 54.3247L43.7579 53.4696C44.4192 54.3068 45.4677 54.7618 46.4194 54.7618C48.0966 54.7618 48.7419 53.3785 48.7419 52.3953C48.7419 49.5001 43.2739 50.5923 43.2739 46.4229C43.2739 44.6748 44.2419 43 46.4031 43C47.6128 43 48.8389 43.5277 49.6612 44.493L48.9029 45.3665Z" fill="#009FE3"/>
<path fill-rule="evenodd" clip-rule="evenodd" d="M65 49.5002C65 45.64 62.363 43 58.5092 43C54.6368 43 52 45.6397 52 49.5002C52 53.36 54.6368 56 58.5092 56C62.363 56 65 53.36 65 49.5002ZM63.5616 49.5002C63.5616 52.6314 61.5149 54.7621 58.5092 54.7621C55.5035 54.7621 53.4384 52.6314 53.4384 49.5002C53.4384 46.3686 55.5035 44.2384 58.5092 44.2384C61.5149 44.2384 63.5616 46.3686 63.5616 49.5002Z" fill="#009FE3"/>
<path d="M68.2895 53.9197H73V55H67V43H68.2895V53.9197Z" fill="#009FE3"/>
<path d="M83.7044 43H85V51.1826C85 54.0697 83.1684 56 80.4913 56C77.7967 56 76 54.0697 76 51.1826V43H77.2956V51.1826C77.2956 53.3153 78.5912 54.7501 80.4741 54.7501C82.3914 54.7501 83.7044 53.3153 83.7044 51.1826V43Z" fill="#009FE3"/>
<path d="M93.2077 55H91.7928V44.0799H88V43H97V44.0799H93.2077V55Z" fill="#009FE3"/>
<rect x="100" y="43" width="1" height="12" fill="#009FE3"/>
<path fill-rule="evenodd" clip-rule="evenodd" d="M117 49.5002C117 45.64 114.363 43 110.509 43C106.637 43 104 45.6397 104 49.5002C104 53.36 106.637 56 110.509 56C114.363 56 117 53.36 117 49.5002ZM115.562 49.5002C115.562 52.6314 113.515 54.7621 110.509 54.7621C107.503 54.7621 105.438 52.6314 105.439 49.5002C105.439 46.3686 107.504 44.2384 110.509 44.2384C113.515 44.2384 115.562 46.3686 115.562 49.5002Z" fill="#009FE3"/>
<path d="M119.909 43L127.663 52.5654V43H129V55H128.091L120.337 45.4344V55H119V43H119.909Z" fill="#009FE3"/>
<path d="M138.903 45.3665C138.371 44.7111 137.387 44.2377 136.516 44.2377C135.064 44.2377 134.516 45.4397 134.516 46.3864C134.516 49.3722 140 48.3344 140 52.3588C140 54.1975 138.887 56 136.532 56C135.161 56 133.887 55.399 133 54.3247L133.758 53.4696C134.419 54.3068 135.468 54.7618 136.419 54.7618C138.096 54.7618 138.742 53.3785 138.742 52.3953C138.742 49.5001 133.274 50.5923 133.274 46.4229C133.274 44.6748 134.242 43 136.403 43C137.613 43 138.839 43.5277 139.661 44.493L138.903 45.3665Z" fill="#009FE3"/>
<path d="M36 3.5C36 5.43313 34.4331 7 32.5001 7C30.5669 7 29 5.43335 29 3.5C29 1.56709 30.5669 0 32.5001 0C34.4331 0.000219051 36 1.56709 36 3.5Z" fill="#E4003A"/>
</svg>
