<svg width="179" height="56" viewBox="0 0 179 56" fill="none" xmlns="http://www.w3.org/2000/svg">
<path fill-rule="evenodd" clip-rule="evenodd" d="M121.609 37.7718C120.9 36.1516 120.161 35.5401 119.175 35.5401V34.6845H125.82V35.4787L123.756 36.1516L127.299 45.413L130.532 36.2121L128.377 35.4787V34.6845H134.106V35.5401C133.305 35.5401 132.165 35.9376 131.18 38.5356L127.59 48.255C125.587 53.4513 123.171 56.2024 119.475 55.9884L119.105 52.9925C119.105 52.9925 119.934 53.1946 121.477 53.0847C123.259 52.9574 125.002 51.179 125.728 48.8361L121.609 37.7718ZM113.385 36.6155L113.261 44.6204C113.231 46.5147 114.493 47.278 115.879 47.278C117.172 47.278 118.034 46.7283 118.034 46.7283L118.373 47.4311C117.08 48.4698 115.663 49.1723 113.939 49.1723C111.938 49.1723 110.737 48.0114 110.737 44.8953C110.737 43.2456 110.86 39.1209 110.86 37.8069C110.86 36.4933 109.721 36.3711 108.335 36.3711V35.1797L110.86 34.9353L111.63 31.483L113.415 31.1773V34.8131L113.421 34.8126V34.8109L116.387 34.671L116.639 34.4616L117.079 33.5041L117.665 33.6086L117.357 36.1178H117.355L117.294 36.6138H117.285L117.284 36.6155H113.385ZM64.7349 40.9846C64.7349 45.2316 67.1676 47.0031 69.9383 47.0031C71.6627 47.0031 73.7254 46.3003 73.7254 46.3003L74.0331 46.8809C73.2945 47.6143 71.2313 49.1723 68.6452 49.1723C65.1355 49.1723 61.9954 46.5756 61.9954 41.8093C61.9954 37.4711 65.0119 34.3242 68.7688 34.3242C71.6933 34.3242 73.9722 36.0653 73.9722 39.3653C73.9722 40.2209 73.8179 40.9846 73.8179 40.9846H64.7349ZM97.4646 38.7191H96.2018C96.2018 36.4874 95.2774 35.6627 93.3988 35.6627C92.1364 35.6627 90.9652 36.1516 90.9652 37.3738C90.9652 38.352 91.3659 38.78 93.7994 40.0331L95.185 40.7364C97.711 42.0204 98.4193 43.0895 98.4193 45.1681C98.4193 47.6747 95.8937 49.1719 93.4299 49.1719C91.859 49.1719 90.4726 48.9887 89.5793 48.6221C89.364 48.5303 88.8091 48.2245 88.778 47.5825L88.5935 44.6792H89.9488C90.3191 46.6661 91.6736 47.9492 93.4299 47.9492C95.2165 47.9492 95.9244 47.0328 95.9244 45.8101C95.9244 44.6484 94.9697 44.0372 93.7994 43.4257L92.2285 42.6311C89.9799 41.5002 88.8709 40.5833 88.8709 38.3825C88.8709 35.6318 90.8732 34.3174 93.9839 34.3174C96.1712 34.3174 97.8653 35.1429 97.8653 35.1429L97.4646 38.7191ZM20.5807 29.7389L18.4813 30.0806L17.8945 30.8123V34.7382L17.8962 42.0424C17.8962 47.3301 14.1073 49.072 10.4724 49.072C5.02095 49.072 2.77194 46.535 2.77194 41.8284V32.934C2.77194 30.3357 2.06404 29.755 0 29.6632V28.6546H8.40916V29.5719L5.54431 30.4583V40.4835C5.54431 46.535 8.00897 47.4214 10.8116 47.4214C13.7378 47.4214 15.9557 46.077 15.9557 41.1559V30.4486L13.1846 29.6159V28.6461H20.5807V29.7389ZM54.9006 48.9887H53.4311L49.1398 37.7718C48.4621 36.1516 47.6924 35.5401 46.7066 35.5401V34.6845H53.4571V35.4787L51.3935 36.1516L54.8119 45.413L58.3549 36.2121L56.1983 35.4787V34.6845H61.6681V35.5401C60.8677 35.5401 59.8815 35.9376 58.8036 38.5356L54.9006 48.9887ZM80.9736 34.2324C80.9736 34.2371 80.9118 35.8242 80.9118 37.6851C80.9118 37.6851 83.1596 34.3242 85.3148 34.3242C86.3159 34.3242 86.8376 34.5014 86.8525 34.5069L86.8542 34.5073L86.8538 34.5077L86.3982 37.8957L85.8049 37.847L85.3229 37.1421C85.0135 37.038 84.6517 36.9517 84.2983 36.9517C82.5748 36.9517 80.9736 38.0822 80.9736 40.0986V46.6382L81.5626 47.3732L83.5538 48.0626L83.5572 48.8369H76.4782V48.0418L78.5102 47.278V40.6176C78.5102 38.0822 77.9869 36.5851 76.3243 36.5851V35.8517L80.7269 34.2324H80.9736ZM107.973 48.8365H100.983V48.0418L103.015 47.278L103.012 40.3389C103.012 37.5269 102.458 36.5796 100.794 36.5796V35.8458L105.291 34.2261H105.538C105.538 34.2261 105.445 36.3347 105.445 38.5356L105.449 46.6382L106.038 47.3732L108.03 48.0626L107.973 48.8365ZM46.378 48.8365H39.3877V48.0418L41.4198 47.278L41.4168 40.3389C41.4168 37.5269 40.8631 36.5796 39.1997 36.5796V35.8458L43.6965 34.2261H43.9432C43.9432 34.2261 43.8503 36.3347 43.8503 38.5356L43.8546 46.6382L44.4436 47.3732L46.4352 48.0626L46.378 48.8365ZM25.7104 34.2324C25.6704 35.0465 25.6498 35.8614 25.6486 36.6764C25.6486 36.6764 28.5121 34.3246 30.5446 34.3246C32.9458 34.3246 35.286 35.3324 35.286 38.9073L35.2562 46.6382L35.8452 47.3732L37.8368 48.0621L37.7801 48.8365H30.7006V48.0418L32.6666 47.306L32.7617 40.5266C32.7617 37.1349 30.6985 36.4324 28.6971 36.4324C26.7571 36.4324 25.6797 37.8686 25.6797 37.8686L25.6784 46.6382L26.2674 47.3732L28.259 48.0621L28.2019 48.8365H21.1233V48.0418L23.1554 47.278V40.8624C23.1554 38.1131 22.6934 36.5851 20.969 36.5851V35.8517L25.464 34.2324H25.7104ZM69.2611 39.8237C70.7391 39.7624 71.262 39.4875 71.262 37.9908C71.262 36.7073 70.3385 35.7295 68.3682 35.7295C66.3054 35.7295 64.7349 37.532 64.7349 39.9764L69.2611 39.8237ZM42.5815 31.8861C42.2295 31.8861 40.6539 30.1606 40.6539 29.8324C40.6539 29.511 42.2039 27.7521 42.5815 27.7521C42.989 27.7521 44.5088 29.511 44.5088 29.8324C44.5088 30.142 42.9336 31.8861 42.5815 31.8861ZM104.176 31.8861C103.824 31.8861 102.249 30.1606 102.249 29.8324C102.249 29.511 103.799 27.7521 104.176 27.7521C104.584 27.7521 106.104 29.511 106.104 29.8324C106.104 30.142 104.529 31.8861 104.176 31.8861ZM28.7359 22.2419C25.0412 22.2419 21.5009 19.8897 21.5009 14.8786C21.5009 9.89874 25.2569 7.39339 28.7359 7.39339C32.3692 7.39339 36.0331 9.65472 36.0331 14.6345C36.0331 19.4308 32.1535 22.2419 28.7359 22.2419ZM54.9287 9.68517L54.8055 17.6897C54.7744 19.5839 56.0368 20.3477 57.4228 20.3477C58.7158 20.3477 59.5776 19.7979 59.5776 19.7979L59.9164 20.5004C58.6234 21.539 57.2067 22.2419 55.4828 22.2419C53.4818 22.2419 52.2812 21.081 52.2812 17.9646C52.2812 16.3152 52.404 12.1901 52.404 10.8761C52.404 9.56294 51.2643 9.44072 49.8792 9.44072V8.24895L52.404 8.0045L53.1737 4.55225L54.9594 4.24649V7.8827L54.9982 7.88101V7.88017L58.6212 7.74061L58.8718 7.53084L59.3125 6.57336L59.8985 6.67824L59.5912 9.18697H59.5891L59.5273 9.68348H59.486L59.4855 9.68517H54.9287ZM130.306 9.68517L130.182 17.6897C130.152 19.5839 131.414 20.3477 132.8 20.3477C134.093 20.3477 134.955 19.7979 134.955 19.7979L135.293 20.5004C134.001 21.539 132.584 22.2419 130.86 22.2419C128.859 22.2419 127.658 21.081 127.658 17.9646C127.658 16.3152 127.781 12.1901 127.781 10.8761C127.781 9.56294 126.642 9.44072 125.256 9.44072V8.24895L127.781 8.0045L128.551 4.55225L130.337 4.24649V7.8827L130.342 7.88228V7.88017L133.965 7.74061L134.216 7.53084L134.657 6.57336L135.243 6.67824L134.935 9.18697H134.933L134.871 9.68348H134.862V9.68517H130.306ZM139.106 14.0539C139.106 18.3012 141.539 20.0728 144.31 20.0728C146.035 20.0728 148.097 19.3699 148.097 19.3699L148.405 19.9506C147.666 20.6839 145.603 22.2419 143.017 22.2419C139.507 22.2419 136.366 19.6448 136.366 14.8786C136.366 10.5403 139.384 7.39382 143.14 7.39382C146.065 7.39382 148.344 9.13496 148.344 12.435C148.344 13.2901 148.189 14.0539 148.189 14.0539H139.106ZM102.279 14.0539C102.279 18.3012 104.712 20.0728 107.482 20.0728C109.207 20.0728 111.269 19.3699 111.269 19.3699L111.577 19.9506C110.839 20.6839 108.775 22.2419 106.189 22.2419C102.679 22.2419 99.5385 19.6448 99.5385 14.8786C99.5385 10.5403 102.556 7.39382 106.312 7.39382C109.237 7.39382 111.516 9.13496 111.516 12.435C111.516 13.2901 111.362 14.0539 111.362 14.0539H102.279ZM122.78 11.793H121.518C121.518 9.56294 120.594 8.73784 118.715 8.73784C117.453 8.73784 116.284 9.22673 116.284 10.449C116.284 11.4263 116.683 11.8539 119.116 13.1065L120.501 13.8094C123.026 15.0926 123.734 16.1621 123.734 18.2399C123.734 20.7448 121.21 22.2419 118.746 22.2419C117.176 22.2419 115.79 22.0584 114.898 21.6917C114.682 21.6004 114.128 21.295 114.097 20.653L113.913 17.7506H115.267C115.637 19.7366 116.991 21.0197 118.746 21.0197C120.532 21.0197 121.24 20.1032 121.24 18.8814C121.24 17.7201 120.286 17.109 119.116 16.4983L117.546 15.7037C115.298 14.5732 114.19 13.6568 114.19 11.4568C114.19 8.70739 116.191 7.39382 119.301 7.39382C121.486 7.39382 123.18 8.2185 123.18 8.2185L122.78 11.793ZM84.4727 22.0588H83.1809L79.4675 10.8461C78.9441 9.44072 78.6449 8.61562 77.6591 8.61562V7.76006H83.7371V8.62365L81.8865 9.22673L84.6576 18.5144L87.0903 12.7094L87.6563 11.2373L86.821 8.87444L85.7661 8.61562V7.76006H91.6433V8.67525L89.7911 9.22673L92.9138 18.5144L96.1579 9.28805L94.0641 8.55472V7.76006H99.5751V8.61562C98.3128 8.76871 97.6973 9.1045 96.712 11.6099L93.0016 22.0588H91.5513L88.2525 12.9831L84.4727 22.0588ZM0.715148 1.52038H4.08205L16.7808 16.4353H16.9343L16.9398 16.4501V4.10269L16.3529 3.37063L13.9454 2.77178V1.67855H21.5218V2.64871L18.7507 3.48101V22.0588H17.5995L4.51336 6.59831V19.633L5.11343 20.3642L7.466 20.9816V21.904H0V20.9876L2.75788 20.2238V4.60427L0.715148 2.32941V1.52038ZM166.874 7.30204C166.874 7.305 166.812 8.46463 166.812 9.74607C166.812 9.74607 169.675 7.39382 171.708 7.39382C174.109 7.39382 176.449 8.40204 176.449 11.9761L176.42 19.7074L177.009 20.4428L179 21.1318L178.944 21.9057H171.864V21.1115L173.83 20.3756L173.924 13.5954C173.924 10.2045 171.862 9.50204 169.86 9.50204C167.921 9.50204 166.843 10.9378 166.843 10.9378L166.842 19.7074L167.431 20.4428L169.422 21.1318L169.366 21.9057H162.287V21.1115L164.318 20.3477V13.9317C164.318 11.1819 163.857 9.65429 162.132 9.65429V8.92096L166.628 7.30204H166.874ZM42.2351 7.30204C42.2351 7.30627 42.1733 8.89305 42.1733 10.7543C42.1733 10.7543 44.421 7.39382 46.5762 7.39382C47.5773 7.39382 48.099 7.57102 48.1139 7.57651L48.1156 7.57694V7.57736L47.6596 10.9649L47.0663 10.9171L46.5843 10.2113C46.2749 10.1077 45.9131 10.021 45.5598 10.021C43.8363 10.021 42.2351 11.1514 42.2351 13.1679V19.7078L42.824 20.4424L44.8152 21.1318L44.8186 21.9057H37.7396V21.1115L39.7721 20.3481V13.6872C39.7721 11.1514 39.2483 9.65429 37.5857 9.65429V8.92096L41.9883 7.30204H42.2351ZM154.846 7.30204C154.846 7.30627 154.784 8.89305 154.784 10.7543C154.784 10.7543 157.032 7.39382 159.187 7.39382C160.189 7.39382 160.71 7.57102 160.725 7.57651L160.727 7.57694L160.727 7.57736L160.271 10.9649L159.677 10.9171L159.195 10.2113C158.886 10.1077 158.524 10.021 158.171 10.021C156.447 10.021 154.846 11.1514 154.846 13.1679V19.7078L155.435 20.4424L157.426 21.1318L157.43 21.9057H150.351V21.1115L152.383 20.3481V13.6872C152.383 11.1514 151.86 9.65429 150.197 9.65429V8.92096L154.6 7.30204H154.846ZM68.4517 21.9057H61.2828V21.1115L63.3149 20.3477L63.3119 5.6218C63.3119 2.95702 62.6342 2.23003 61.1566 2.23003V1.52757L65.7135 0H66.0216C66.0216 0 65.8673 3.14648 65.8673 5.49916V9.74607C65.8673 9.74607 68.8234 7.39339 70.855 7.39339C73.3798 7.39339 75.72 8.43249 75.72 12.1292L75.7174 19.7074L76.3064 20.4428L78.2972 21.1318L78.301 21.9057H71.132V21.1115L73.1032 20.3684L73.1952 13.5954C73.1952 10.1741 71.2548 9.50162 69.0079 9.50162C67.099 9.50162 65.8673 10.907 65.8673 10.907L65.8677 13.1679V19.7074L66.4572 20.4428L68.4483 21.1318L68.4517 21.9057ZM33.1691 15.0621C33.1691 11.6403 31.2913 8.73784 28.3357 8.73784C25.6878 8.73784 24.364 11.0292 24.364 14.4514C24.364 17.8732 26.0262 20.867 29.1361 20.867C31.784 20.867 33.1691 18.4839 33.1691 15.0621ZM143.633 12.893C145.111 12.8317 145.634 12.5568 145.634 11.0596C145.634 9.77652 144.71 8.79916 142.74 8.79916C140.677 8.79916 139.106 10.6016 139.106 13.0452L143.633 12.893ZM106.805 12.893C108.283 12.8317 108.806 12.5568 108.806 11.0596C108.806 9.77652 107.882 8.79916 105.912 8.79916C103.849 8.79916 102.279 10.6016 102.279 13.0452L106.805 12.893Z" fill="#472480"/>
</svg>
