<svg width="34" height="34" viewBox="0 0 34 34" fill="none" xmlns="http://www.w3.org/2000/svg">
<path d="M34 28.6771C34 31.6169 31.6169 34 28.6771 34H5.3229C2.38313 34 0 31.6169 0 28.6771V6.91976L6.91976 0H28.6771C31.6169 0 34 2.38313 34 5.3229V28.6771Z" fill="#DE3737"/>
<path opacity="0.2" d="M0 11V7H4L0 11Z" fill="#772424"/>
<path d="M0 7H4.66671C5.95 7 7 5.9679 7 4.68462V0L0 7Z" fill="#FC6868"/>
<path fill-rule="evenodd" clip-rule="evenodd" d="M5 12V22.9999V23H6.86601V19.0273H10.6807C11.2422 19.0273 11.732 18.9351 12.1505 18.7503C12.5688 18.5659 12.9127 18.3126 13.1826 17.9906C13.4521 17.6689 13.6558 17.2863 13.7935 16.8431C13.9311 16.4 14 15.9252 14 15.4187C14 14.9122 13.9283 14.4508 13.7854 14.0338C13.6422 13.6171 13.4329 13.2583 13.1579 12.9576C12.8825 12.6569 12.5357 12.4221 12.1175 12.2532C11.699 12.0845 11.22 12 10.6808 12H5ZM6.86608 17.3496V13.646V13.646H10.0368C10.7192 13.646 11.2395 13.7832 11.5973 14.0574C11.955 14.332 12.134 14.7855 12.134 15.4186C12.134 16.0834 11.966 16.5716 11.6304 16.8827C11.2944 17.194 10.7634 17.3496 10.0368 17.3496H6.86608Z" fill="#FF7063"/>
<path fill-rule="evenodd" clip-rule="evenodd" d="M22.5324 12L20.7743 12.459L20.7742 15.2128C20.2686 15.0192 19.7526 14.9221 19.2258 14.9221C17.8494 14.9221 16.8009 15.2487 16.0807 15.9013C15.3601 16.5541 15 17.5282 15 18.8234V19.5577C15 20.0473 15.0726 20.5039 15.2177 20.927C15.363 21.3504 15.5807 21.715 15.8709 22.0209C16.1613 22.3268 16.5186 22.5666 16.9435 22.7399C17.3683 22.9133 17.8601 23 18.4194 23C18.8923 23 19.3359 22.8953 19.7499 22.6864C20.1638 22.4775 20.5323 22.2197 20.8548 21.9138C20.8763 22.0567 20.9084 22.2197 20.9516 22.4034C21.0161 22.5768 21.0807 22.7145 21.1452 22.8164H23C22.9138 22.6737 22.844 22.5334 22.7904 22.3957C22.7364 22.258 22.6881 22.1279 22.6451 22.0056C22.613 21.8731 22.586 21.7301 22.5645 21.5772C22.5428 21.4242 22.5324 21.2509 22.5324 21.057V12ZM19.9598 16.4826C20.2662 16.5338 20.5376 16.6256 20.7743 16.758V20.2921C20.6344 20.445 20.4758 20.593 20.2984 20.7357C20.121 20.8787 19.93 21.0087 19.7259 21.1259C19.5215 21.2432 19.309 21.3376 19.0888 21.4088C18.8682 21.4803 18.6452 21.516 18.4194 21.516C18.0751 21.516 17.7956 21.4524 17.5806 21.3247C17.3655 21.1973 17.196 21.0317 17.0726 20.8275C16.9489 20.6237 16.8654 20.3865 16.8226 20.1162C16.7795 19.846 16.7581 19.568 16.7581 19.2824V18.7163C16.7581 18.3797 16.7984 18.0687 16.879 17.783C16.9598 17.4976 17.094 17.2528 17.2823 17.0487C17.4704 16.8448 17.7123 16.6868 18.0081 16.5744C18.3037 16.4623 18.6667 16.4062 19.0968 16.4062C19.3655 16.4062 19.6533 16.4317 19.9598 16.4826Z" fill="#FF7063"/>
<path d="M25.1494 14.2871C25.1494 13.9969 25.1951 13.7141 25.2864 13.4391C25.3776 13.1645 25.5205 12.9207 25.7151 12.7079C25.9096 12.4955 26.1652 12.3243 26.4815 12.1945C26.7978 12.0649 27.175 12 27.6131 12C27.8198 12 28.0538 12.0182 28.3156 12.0545C28.5772 12.0909 28.8052 12.1349 29 12.1868V13.5248H28.27C27.8927 13.5248 27.61 13.613 27.4215 13.7893C27.2328 13.9658 27.1387 14.2094 27.1387 14.5205V15.1585H28.9089L28.3797 16.5587H27.1387V23H25.1496V16.5587H24V15.1585H25.1496V14.2871H25.1494Z" fill="#FF7063"/>
<path fill-rule="evenodd" clip-rule="evenodd" d="M5 12V22.9999V23H6.86601V19.0273H10.6807C11.2422 19.0273 11.732 18.9351 12.1505 18.7503C12.5688 18.5659 12.9127 18.3126 13.1826 17.9906C13.4521 17.6689 13.6558 17.2863 13.7935 16.8431C13.9311 16.4 14 15.9252 14 15.4187C14 14.9122 13.9283 14.4508 13.7854 14.0338C13.6422 13.6171 13.4329 13.2583 13.1579 12.9576C12.8825 12.6569 12.5357 12.4221 12.1175 12.2532C11.699 12.0845 11.22 12 10.6808 12H5ZM6.86608 17.3496V13.646V13.646H10.0368C10.7192 13.646 11.2395 13.7832 11.5973 14.0574C11.955 14.332 12.134 14.7855 12.134 15.4186C12.134 16.0834 11.966 16.5716 11.6304 16.8827C11.2944 17.194 10.7634 17.3496 10.0368 17.3496H6.86608Z" fill="white"/>
<path fill-rule="evenodd" clip-rule="evenodd" d="M22.5324 12L20.7743 12.459L20.7742 15.2128C20.2686 15.0192 19.7526 14.9221 19.2258 14.9221C17.8494 14.9221 16.8009 15.2487 16.0807 15.9013C15.3601 16.5541 15 17.5282 15 18.8234V19.5577C15 20.0473 15.0726 20.5039 15.2177 20.927C15.363 21.3504 15.5807 21.715 15.8709 22.0209C16.1613 22.3268 16.5186 22.5666 16.9435 22.7399C17.3683 22.9133 17.8601 23 18.4194 23C18.8923 23 19.3359 22.8953 19.7499 22.6864C20.1638 22.4775 20.5323 22.2197 20.8548 21.9138C20.8763 22.0567 20.9084 22.2197 20.9516 22.4034C21.0161 22.5768 21.0807 22.7145 21.1452 22.8164H23C22.9138 22.6737 22.844 22.5334 22.7904 22.3957C22.7364 22.258 22.6881 22.1279 22.6451 22.0056C22.613 21.8731 22.586 21.7301 22.5645 21.5772C22.5428 21.4242 22.5324 21.2509 22.5324 21.057V12ZM19.9598 16.4826C20.2662 16.5338 20.5376 16.6256 20.7743 16.758V20.2921C20.6344 20.445 20.4758 20.593 20.2984 20.7357C20.121 20.8787 19.93 21.0087 19.7259 21.1259C19.5215 21.2432 19.309 21.3376 19.0888 21.4088C18.8682 21.4803 18.6452 21.516 18.4194 21.516C18.0751 21.516 17.7956 21.4524 17.5806 21.3247C17.3655 21.1973 17.196 21.0317 17.0726 20.8275C16.9489 20.6237 16.8654 20.3865 16.8226 20.1162C16.7795 19.846 16.7581 19.568 16.7581 19.2824V18.7163C16.7581 18.3797 16.7984 18.0687 16.879 17.783C16.9598 17.4976 17.094 17.2528 17.2823 17.0487C17.4704 16.8448 17.7123 16.6868 18.0081 16.5744C18.3037 16.4623 18.6667 16.4062 19.0968 16.4062C19.3655 16.4062 19.6533 16.4317 19.9598 16.4826Z" fill="white"/>
<path d="M25.1494 14.2871C25.1494 13.9969 25.1951 13.7141 25.2864 13.4391C25.3776 13.1645 25.5205 12.9207 25.7151 12.7079C25.9096 12.4955 26.1652 12.3243 26.4815 12.1945C26.7978 12.0649 27.175 12 27.6131 12C27.8198 12 28.0538 12.0182 28.3156 12.0545C28.5772 12.0909 28.8052 12.1349 29 12.1868V13.5248H28.27C27.8927 13.5248 27.61 13.613 27.4215 13.7893C27.2328 13.9658 27.1387 14.2094 27.1387 14.5205V15.1585H28.9089L28.3797 16.5587H27.1387V23H25.1496V16.5587H24V15.1585H25.1496V14.2871H25.1494Z" fill="white"/>
</svg>
