<svg width="15" height="21" viewBox="0 0 15 21" fill="none" xmlns="http://www.w3.org/2000/svg">
<path fill-rule="evenodd" clip-rule="evenodd" d="M0 7.38282C0 3.30996 3.36242 0 7.5 0C11.6376 0 15 3.30996 15 7.38282C15 8.71176 14.6375 10.0284 13.9375 11.1604L8.05421 20.6971C7.91675 20.9309 7.65413 21.0293 7.41671 20.9925C7.24167 20.9679 7.09167 20.8694 6.99158 20.7094L1.12504 11.2588C0.387583 10.1022 0 8.76094 0 7.38282ZM3.75 7.38282C3.75 9.40079 5.40008 11.0742 7.5 11.0742C9.62496 11.0742 11.25 9.38848 11.25 7.38282C11.25 5.3525 9.56254 3.69141 7.5 3.69141C5.43746 3.69141 3.75 5.3525 3.75 7.38282Z" fill="#DE3737"/>
<path d="M7 0V3.69144C9.20004 3.69144 11 5.35255 11 7.38288C11 9.38857 9.26662 11.0743 7 11.0743V20.9998C7.22751 21.0047 7.46147 20.9041 7.59111 20.6973L13.8667 11.1605C14.6133 10.0285 15 8.71184 15 7.38288C15 3.30999 11.4134 0 7 0Z" fill="#DE3737"/>
</svg>
