<?xml version="1.0" encoding="UTF-8"?>
<svg width="61px" height="68px" viewBox="0 0 61 68" version="1.1" xmlns="http://www.w3.org/2000/svg" xmlns:xlink="http://www.w3.org/1999/xlink">
    <title>qualification</title>
    <g id="Page-1" stroke="none" stroke-width="1" fill="none" fill-rule="evenodd">
        <g id="Вступ-на-програми-молодшого-спеціаліста" transform="translate(-690.000000, -1352.000000)" fill="#DE3737" fill-rule="nonzero">
            <g id="Поруч-із-метро" transform="translate(598.000000, 1260.000000)">
                <g id="qualification" transform="translate(92.500000, 92.000000)">
                    <path d="M47.9848763,10 L59.0151237,10 C59.5589792,10 60,9.55234031 60,9 C60,8.44779304 59.5591106,8 59.0151237,8 L47.9848763,8 C47.4410208,8 47,8.44765969 47,9 C47.0001313,9.55234031 47.4410208,10 47.9848763,10 Z" id="Path"></path>
                    <path d="M59.0151237,12 L47.9848763,12 C47.4410208,12 47,12.4476597 47,13 C47,13.5523403 47.4408894,14 47.9848763,14 L59.0151237,14 C59.5589792,14 60,13.5523403 60,13 C60,12.4476597 59.5589792,12 59.0151237,12 Z" id="Path"></path>
                    <path d="M59.0151237,23 L47.9848763,23 C47.4410208,23 47,23.4476597 47,24 C47,24.552207 47.4408894,25 47.9848763,25 L59.0151237,25 C59.5589792,25 60,24.5523403 60,24 C60,23.4476597 59.5589792,23 59.0151237,23 Z" id="Path"></path>
                    <path d="M59.0151237,28 L47.9848763,28 C47.4410208,28 47,28.4476597 47,29 C47,29.552207 47.4408894,30 47.9848763,30 L59.0151237,30 C59.5589792,30 60,29.5523403 60,29 C60,28.447793 59.5589792,28 59.0151237,28 Z" id="Path"></path>
                    <path d="M59.0151237,39 L47.9848763,39 C47.4410208,39 47,39.4476597 47,40 C47,40.5523403 47.4408894,41 47.9848763,41 L59.0151237,41 C59.5589792,41 60,40.5523403 60,40 C60,39.4476597 59.5589792,39 59.0151237,39 Z" id="Path"></path>
                    <path d="M59.0151237,43 L47.9848763,43 C47.4410208,43 47,43.4476597 47,44 C47,44.5523403 47.4408894,45 47.9848763,45 L59.0151237,45 C59.5589792,45 60,44.5523403 60,44 C60,43.4476597 59.5589792,43 59.0151237,43 Z" id="Path"></path>
                    <path d="M43.2187393,5.30892218 L41.7291054,6.81551553 C41.3863431,5.96503892 40.5402177,5.36072443 39.5507679,5.36072443 L32.3425317,5.36072443 C31.0508153,5.36072443 30,6.38905994 30,7.65314302 L30,14.7071756 C30,15.9712587 31.0508153,16.9995942 32.3425317,16.9995942 L32.6619364,16.9995942 C33.2342665,16.9995942 33.6983778,16.5455468 33.6983778,15.9853251 C33.6983778,15.4251034 33.2344047,14.971056 32.6619364,14.971056 L32.3425317,14.971056 C32.193817,14.971056 32.0727445,14.8527089 32.0727445,14.7070404 L32.0727445,7.65314302 C32.0727445,7.50747455 32.1936788,7.38912738 32.3425317,7.38912738 L39.5507679,7.38912738 C39.6994825,7.38912738 39.820555,7.50747455 39.820555,7.65314302 L39.820555,8.74558888 L37.327512,11.2668571 L35.5380992,9.50071148 C35.1349389,9.10279447 34.4787149,9.10022464 34.0723757,9.4944898 C33.6658983,9.88889022 33.6631341,10.5310758 34.066018,10.9288576 L36.0194868,12.8570374 C36.368745,13.2017996 36.8334091,13.3912903 37.3290323,13.3912903 L37.3405038,13.3912903 C37.8404116,13.3883147 38.307287,13.1930081 38.6548867,12.8414832 L39.8204168,11.6628806 L39.8204168,14.7074462 C39.8204168,14.8529794 39.6994825,14.9714618 39.5506297,14.9714618 L37.4062921,14.9714618 C36.8339619,14.9714618 36.3698507,15.4255092 36.3698507,15.9857309 C36.3698507,16.5459526 36.8338237,17 37.4062921,17 L39.5506297,17 C40.8423461,17 41.8931614,15.9716645 41.8931614,14.7075814 L41.8931614,9.56644489 L44.7083733,6.71948525 C45.1064199,6.3169696 45.0956395,5.67491927 44.6843247,5.285388 C44.2730099,4.89585673 43.6167859,4.90640653 43.2187393,5.30892218 L43.2187393,5.30892218 Z" id="Path"></path>
                    <path d="M43.2187393,20.3089655 L41.7291054,21.8156056 C41.3863431,20.9651026 40.5402177,20.3607694 39.5507679,20.3607694 L32.3425317,20.3607694 C31.0508153,20.3607694 30,21.3891368 30,22.653259 L30,29.7075103 C30,30.9716326 31.0508153,32 32.3425317,32 L39.5507679,32 C40.8424843,32 41.8932996,30.9716326 41.8932996,29.7075103 L41.8932996,24.5666202 L44.7083733,21.7197076 C45.1064199,21.3171795 45.0956395,20.6751092 44.6843247,20.2855659 C44.2728717,19.895752 43.6167859,19.9064374 43.2187393,20.3089655 Z M39.8204168,23.7457388 L37.3273738,26.2670851 L35.5380992,24.5007495 C35.1350771,24.1028202 34.4788531,24.1002503 34.0723757,24.4945276 C33.6658983,24.8889403 33.6631341,25.5311458 34.066018,25.9289399 L36.0194868,27.8571794 C36.368745,28.2019524 36.8334091,28.391449 37.3290323,28.391449 L37.3405038,28.391449 C37.8404116,28.3884733 38.307287,28.1931606 38.6548867,27.8416248 L39.8204168,26.6629856 L39.8204168,29.7076456 C39.8204168,29.8531833 39.6994825,29.9716694 39.5506297,29.9716694 L32.3423935,29.9716694 C32.1936788,29.9716694 32.0726063,29.8533186 32.0726063,29.7076456 L32.0726063,22.6533943 C32.0726063,22.5077213 32.1935406,22.3893705 32.3423935,22.3893705 L39.5506297,22.3893705 C39.6993443,22.3893705 39.8204168,22.5077213 39.8204168,22.6533943 L39.8204168,23.7457388 Z" id="Shape"></path>
                    <path d="M43.2188776,36.3089866 L41.7291054,37.8155061 C41.3863431,36.9649948 40.5402177,36.3606557 39.5507679,36.3606557 L32.3425317,36.3606557 C31.0508153,36.3606557 30,37.3890331 30,38.6531677 L30,45.7074879 C30,46.9716226 31.0508153,48 32.3425317,48 L39.5507679,48 C40.8424843,48 41.8932996,46.9716226 41.8932996,45.7074879 L41.8932996,40.5665476 L44.7083733,37.7196071 C45.1064199,37.3170751 45.0956395,36.6749986 44.6843247,36.2854514 C44.2730099,35.895769 43.6169241,35.9064545 43.2188776,36.3089866 L43.2188776,36.3089866 Z M39.820555,39.7457934 L37.327512,42.2671644 L35.5380992,40.5008115 C35.1350771,40.1028783 34.4788531,40.1003083 34.0723757,40.4945896 C33.6658983,40.8890061 33.6631341,41.5312178 34.066018,41.9290158 L36.0194868,43.8574095 C36.368745,44.2021858 36.8334091,44.3916842 37.3288941,44.3916842 L37.3405038,44.3916842 C37.8404116,44.3887085 38.3071488,44.1933939 38.6547485,43.8418547 L39.8202786,42.663204 L39.8202786,45.7078937 C39.8202786,45.8535681 39.6993443,45.9719201 39.5504915,45.9719201 L32.3422552,45.9719201 C32.1935406,45.9719201 32.0724681,45.8535681 32.0724681,45.7078937 L32.0724681,38.6535735 C32.0724681,38.5080344 32.1934024,38.3895471 32.3422552,38.3895471 L39.5504915,38.3895471 C39.6992061,38.3895471 39.8202786,38.5078991 39.8202786,38.6535735 L39.8202786,39.7457934 L39.820555,39.7457934 Z" id="Shape"></path>
                    <path d="M43.2188776,51.3089151 L41.7291054,52.8155616 C41.3863431,51.965055 40.5402177,51.3607192 39.5507679,51.3607192 L32.3425317,51.3607192 C31.0508153,51.3607192 30,52.389091 30,53.6532187 L30,60.7075005 C30,61.9716282 31.0508153,63 32.3425317,63 L39.5507679,63 C40.8424843,63 41.8932996,61.9716282 41.8932996,60.7075005 L41.8932996,55.5665881 L44.7083733,52.7196632 C45.1064199,52.3171334 45.0956395,51.6750603 44.6843247,51.2855153 C44.2730099,50.895835 43.6169241,50.9063852 43.2188776,51.3089151 L43.2188776,51.3089151 Z M39.820555,54.7458384 L37.327512,57.2671957 L35.5380992,55.5008524 C35.1350771,55.1029213 34.4788531,55.1003514 34.0723757,55.4946305 C33.6658983,55.8890449 33.6631341,56.5312531 34.066018,56.9290489 L36.0197632,58.8572968 C36.3690214,59.2020712 36.8336855,59.3914334 37.3291705,59.3914334 L37.3407802,59.3914334 C37.840688,59.3884577 38.3074252,59.1931442 38.6550249,58.8416068 L39.820555,57.6629626 L39.820555,60.7076357 C39.820555,60.8531741 39.6996207,60.9716607 39.5507679,60.9716607 L32.3425317,60.9716607 C32.193817,60.9716607 32.0727445,60.8533093 32.0727445,60.7076357 L32.0727445,53.653354 C32.0727445,53.5078156 32.1936788,53.389329 32.3425317,53.389329 L39.5507679,53.389329 C39.6994825,53.389329 39.820555,53.5076803 39.820555,53.653354 L39.820555,54.7458384 Z" id="Shape"></path>
                    <path d="M59.0151237,54 L47.9848763,54 C47.4410208,54 47,54.4476597 47,55 C47,55.5523403 47.4408894,56 47.9848763,56 L59.0151237,56 C59.5589792,56 60,55.5523403 60,55 C60,54.4476597 59.5589792,54 59.0151237,54 Z" id="Path"></path>
                    <path d="M59.0151237,58 L47.9848763,58 C47.4410208,58 47,58.4476597 47,59 C47,59.552207 47.4408894,60 47.9848763,60 L59.0151237,60 C59.5589792,60 60,59.5523403 60,59 C60,58.4476597 59.5589792,58 59.0151237,58 Z" id="Path"></path>
                    <path d="M17.3855344,19.7216705 C17.2465549,19.6798074 17.1496664,19.5447821 17.1496664,19.3932773 L17.1496664,18.5693039 C20.5603543,17.0741908 22.9510655,13.6566947 22.9510655,9.68740216 C22.9510655,4.34579521 18.6228485,0 13.3027154,0 C7.98258222,0 3.65449759,4.34579521 3.65449759,9.68740216 C3.65449759,13.8078008 6.23091177,17.3334767 9.8503336,18.7311748 L9.8503336,19.3931444 C9.8503336,19.5446492 9.75331271,19.6796745 9.61446563,19.7215376 C6.89179212,20.5417899 4.4440332,22.253794 2.7220117,24.5423137 C0.941354106,26.908845 0,29.7313526 0,32.7050992 L0,35.727221 C0,36.2775555 0.444337139,36.7238301 0.992577958,36.7238301 C1.54081878,36.7238301 1.98515592,36.2776884 1.98515592,35.727221 L1.98515592,32.7050992 C1.98515592,30.168723 2.78766294,27.7615246 4.30584792,25.7438529 C5.77545628,23.7909031 7.86319226,22.330078 10.1849432,21.6306309 C11.1567404,21.3378545 11.8353572,20.4177952 11.8353572,19.3931444 L11.8353572,19.2630363 C12.3138435,19.3366623 12.8039777,19.3748043 13.3027154,19.3748043 C13.9396383,19.3748043 14.5617368,19.3108799 15.1645105,19.1920683 L15.1645105,19.3931444 C15.1645105,20.4176623 15.8432596,21.3377216 16.8150568,21.6306309 C19.1366754,22.330078 21.2245437,23.7909031 22.6941521,25.7438529 C24.2123371,27.7615246 25.0148441,30.168723 25.0148441,32.7050992 L25.0148441,42.7395005 C25.0148441,43.7371728 24.2065132,44.5487866 23.2128763,44.5487866 C22.2009736,44.5487866 21.3776858,43.7371728 21.3776858,42.7395005 L21.3677587,31.3975066 C21.3677587,30.8471721 20.9234216,30.4008975 20.3751808,30.4008975 C19.82694,30.4008975 19.3826028,30.8470392 19.3826028,31.3975066 L19.3826028,63.5529358 C19.3826028,64.905847 18.2863859,66.0066489 16.9388147,66.0066489 C15.5913759,66.0066489 14.4950266,64.905847 14.4950266,63.5529358 L14.4950266,44.8403669 C14.4950266,44.2900324 14.0506895,43.8438907 13.502581,43.8437578 C12.9544726,43.8437578 12.5101354,44.2897666 12.5100031,44.8401011 L12.5052381,63.5530687 C12.5052381,64.9059799 11.4090212,66.0067818 10.06145,66.0067818 C8.71401119,66.0067818 7.61766191,64.9059799 7.61766191,63.5530687 L7.61766191,31.2211497 C7.61766191,30.6708152 7.17332477,30.2245406 6.62508395,30.2245406 C6.07684313,30.2245406 5.63250599,30.6706823 5.63250599,31.2211497 L5.62932932,42.7395005 C5.62932932,43.7202946 4.78579027,44.5487866 3.78725605,44.5487866 C2.7936192,44.5487866 1.98528828,43.7371728 1.98528828,42.7395005 L1.98528828,40.2451204 C1.98528828,39.6947859 1.54095114,39.2485112 0.99271032,39.2485112 C0.444469501,39.2485112 0,39.694653 0,40.2451204 L0,42.7395005 C0,44.8361141 1.69899062,46.5420049 3.78712369,46.5420049 C4.45581336,46.5420049 5.08479462,46.3702994 5.63237363,46.0695491 L5.63237363,63.5530687 C5.63237363,66.005187 7.61925025,68 10.0613176,68 C11.4476707,68 12.6873673,67.3570349 13.5000662,66.3527177 C14.312765,67.3571678 15.5524617,68 16.9388147,68 C19.3810145,68 21.3677587,66.005187 21.3677587,63.5530687 L21.3677587,46.0676886 C21.9152054,46.369502 22.5440543,46.5420049 23.2130087,46.5420049 C25.3011417,46.5420049 27,44.836247 27,42.7395005 L27,32.7050992 C27,29.7314855 26.0587783,26.908845 24.2779883,24.5423137 C22.5558344,22.2539269 20.1080755,20.5419228 17.3855344,19.7216705 Z M13.3027154,17.381719 C9.0772108,17.381719 5.63952115,13.9300678 5.63952115,9.68740216 C5.63952115,5.44473652 9.0772108,1.99308535 13.3027154,1.99308535 C17.5282199,1.99308535 20.9659096,5.44473652 20.9659096,9.68740216 C20.9659096,13.9300678 17.5282199,17.381719 13.3027154,17.381719 Z" id="Shape"></path>
                    <path d="M16.5774285,12.2185026 C16.1067354,11.8725919 15.4348267,11.9607598 15.0766658,12.4155351 C14.8188985,12.7429568 14.4274635,12.9306068 14.0027543,12.9306068 C13.5760459,12.9306068 13.1834684,12.741439 12.9258439,12.4115337 C12.5696823,11.9553786 11.8983448,11.8645891 11.425938,12.2088441 C10.9538168,12.5530991 10.8598496,13.2018714 11.216154,13.6580265 C11.8822076,14.5108682 12.8978536,15 14.0027543,15 C15.1022283,15 16.1150182,14.5147316 16.7812146,13.6685128 C17.1395183,13.2135995 17.0481216,12.5644133 16.5774285,12.2185026 Z" id="Path"></path>
                </g>
            </g>
        </g>
    </g>
</svg>