<svg width="69" height="68" viewBox="0 0 69 68" fill="none" xmlns="http://www.w3.org/2000/svg">
<g id="smile">
<path id="Path" d="M46.5 31C49.2667 31 51.5 28.7667 51.5 26C51.5 23.2333 49.2667 21 46.5 21C43.7333 21 41.5 23.2333 41.5 26C41.5 28.7667 43.7333 31 46.5 31Z" fill="#DE3737"/>
<path id="Shape" fill-rule="evenodd" clip-rule="evenodd" d="M0.5 34C0.5 15.2151 15.698 0 34.483 0C53.2679 0 68.5 15.2151 68.5 34C68.5 52.7849 53.2681 68 34.483 68C15.698 68 0.5 52.7849 0.5 34ZM7.29989 34C7.29989 49.0281 19.472 61.2001 34.4999 61.2001C49.528 61.2001 61.7 49.028 61.7 34C61.7 18.972 49.5279 6.80006 34.4999 6.80006C19.472 6.80006 7.29989 18.9719 7.29989 34Z" fill="#DE3737"/>
<path id="Path_2" d="M22.5 31C25.2667 31 27.5 28.7667 27.5 26C27.5 23.2333 25.2667 21 22.5 21C19.7333 21 17.5 23.2333 17.5 26C17.5 28.7667 19.7333 31 22.5 31Z" fill="#DE3737"/>
<path id="Path_3" d="M33.9999 52C41.9873 52 48.7575 47.0115 51.5 40H16.5C19.2423 47.0115 26.0127 52 33.9999 52Z" fill="#DE3737"/>
</g>
</svg>
