<svg width="57" height="68" viewBox="0 0 57 68" fill="none" xmlns="http://www.w3.org/2000/svg">
<path fill-rule="evenodd" clip-rule="evenodd" d="M28.5 0C12.7537 0 0 1.78953 0 14.3157V48.3157C0 55.241 5.59306 60.8421 12.4688 60.8421L7.12504 66.2105V68H49.875V66.2105L44.5312 60.8421C51.4246 60.8421 57 55.241 57 48.3157V14.3157C56.9998 1.78953 44.2462 0 28.5 0ZM12.4688 53.6841C9.51186 53.6841 7.12504 51.2863 7.12504 48.3157C7.12504 45.3451 9.51186 42.9473 12.4688 42.9473C15.4257 42.9473 17.8125 45.3451 17.8125 48.3157C17.8125 51.2863 15.4255 53.6841 12.4688 53.6841ZM7.12504 32.2105H24.9374H24.9376V14.3157H7.12504V32.2105ZM44.5312 53.6841C41.5743 53.6841 39.1875 51.2863 39.1875 48.3157C39.1875 45.3451 41.5743 42.9473 44.5312 42.9473C47.4881 42.9473 49.875 45.3451 49.875 48.3157C49.875 51.2863 47.488 53.6841 44.5312 53.6841ZM32.0624 32.2105H49.875V14.3157H32.0624V32.2105Z" fill="#DE3737"/>
</svg>
