<?xml version="1.0" encoding="UTF-8"?>
<svg width="68px" height="68px" viewBox="0 0 68 68" version="1.1" xmlns="http://www.w3.org/2000/svg" xmlns:xlink="http://www.w3.org/1999/xlink">
    <title>sun</title>
    <g id="Page-1" stroke="none" stroke-width="1" fill="none" fill-rule="evenodd">
        <g id="Вступ-на-програми-молодшого-спеціаліста" transform="translate(-222.000000, -983.000000)" fill="#DE3737" fill-rule="nonzero">
            <g id="Зручний-графік" transform="translate(134.000000, 878.000000)">
                <g id="sun" transform="translate(88.000000, 105.000000)">
                    <circle id="Oval" cx="34" cy="34" r="22"></circle>
                    <g id="Group">
                        <path d="M33.9768717,8.86354379 C34.7927332,8.86354379 35.4541752,8.20210183 35.4541752,7.38624033 L35.4541752,1.47730346 C35.4541752,0.661441955 34.7927332,0 33.9768717,0 C33.1610102,0 32.4995682,0.661441955 32.4995682,1.47730346 L32.4995682,7.38637882 C32.4997067,8.20210183 33.1610102,8.86354379 33.9768717,8.86354379 Z" id="Path"></path>
                        <path d="M33.9768717,59.0903381 C33.1610102,59.0903381 32.4995682,59.75178 32.4995682,60.5676415 L32.4995682,66.4765784 C32.4995682,67.2924399 33.1610102,67.9538819 33.9768717,67.9538819 C34.7927332,67.9538819 35.4541752,67.2924399 35.4541752,66.4765784 L35.4541752,60.5675031 C35.4541752,59.7516415 34.7927332,59.0903381 33.9768717,59.0903381 Z" id="Path"></path>
                        <path d="M66.4765784,32.4997067 L60.5675031,32.4997067 C59.7516415,32.4997067 59.0901996,33.1611487 59.0901996,33.9770102 C59.0901996,34.7928717 59.7516415,35.4543136 60.5675031,35.4543136 L66.4765784,35.4543136 C67.2924399,35.4543136 67.9538819,34.7928717 67.9538819,33.9770102 C67.9538819,33.1610102 67.2924399,32.4997067 66.4765784,32.4997067 Z" id="Path"></path>
                        <path d="M8.86354379,33.9768717 C8.86354379,33.1610102 8.20210183,32.4995682 7.38624033,32.4995682 L1.47730346,32.4995682 C0.661441955,32.4997067 0,33.1610102 0,33.9768717 C0,34.7927332 0.661441955,35.4541752 1.47730346,35.4541752 L7.38637882,35.4541752 C8.20210183,35.4541752 8.86354379,34.7927332 8.86354379,33.9768717 Z" id="Path"></path>
                        <path d="M19.4022974,11.6881059 C19.6666802,12.1461018 20.1556986,12.4277963 20.6846029,12.4266986 C20.944,12.4276578 21.1991039,12.3593809 21.4231853,12.2287821 C22.129776,11.8207821 22.371723,10.9173931 21.9638615,10.2108024 L19.0093931,5.09362933 C18.5968228,4.38980855 17.6917719,4.15367821 16.9879511,4.56624847 C16.2906395,4.97494094 16.0513238,5.86821996 16.4508758,6.5707943 L19.4022974,11.6881059 Z" id="Path"></path>
                        <path d="M48.5515845,56.265776 C48.1388758,55.5619552 47.2338248,55.3259633 46.5300041,55.7386721 C45.8329695,56.1475031 45.5936538,57.0405051 45.9929287,57.7430794 L48.9473971,62.8602525 C49.21178,63.3182485 49.7007984,63.599943 50.2297026,63.5988452 C50.4890998,63.5998045 50.7442037,63.5315275 50.9682851,63.4009287 C51.6748758,62.9929287 51.9168228,62.0895397 51.5089613,61.3829491 L48.5515845,56.265776 Z" id="Path"></path>
                        <path d="M57.0043585,22.1588595 C57.2637556,22.1598289 57.5188595,22.0915519 57.7429409,21.9609532 L62.8601141,19.0064847 C63.5830468,18.6282607 63.8625255,17.7356741 63.4843014,17.0127413 C63.1060774,16.2898086 62.2134908,16.0103299 61.490558,16.388554 C61.4537189,16.4078045 61.4178493,16.4285784 61.3828106,16.4508758 L56.2656375,19.4053442 C55.5590468,19.8133442 55.3170998,20.7168717 55.7249613,21.4233238 C55.9887902,21.8803503 56.4764236,22.1619063 57.00422,22.1619063 L57.00422,22.1588595 L57.0043585,22.1588595 Z" id="Path"></path>
                        <path d="M10.2108024,45.9929287 L5.09362933,48.9473971 C4.3870387,49.3553971 4.14509165,50.2587862 4.55295316,50.9653768 C4.81678208,51.4224033 5.30441548,51.7039694 5.83221181,51.7039694 C6.09160896,51.7049287 6.34671283,51.6366517 6.5707943,51.506053 L11.6879674,48.5515845 C12.4109002,48.1733605 12.6903788,47.2807739 12.3121548,46.5578411 C11.9339308,45.8349084 11.0413442,45.5554297 10.3184114,45.9336538 C10.2815723,45.9529043 10.2457026,45.9736782 10.210664,45.9959756 L10.2108024,45.9929287 Z" id="Path"></path>
                        <path d="M5.09362933,19.0063462 L10.2108024,21.9608147 C10.4341914,22.0908595 10.6880489,22.1592749 10.9464766,22.1587243 C11.7623381,22.1587243 12.4236415,21.497279 12.4236415,20.6814175 C12.4236415,20.1537597 12.1420855,19.6661263 11.6850591,19.4021589 L6.56788595,16.4476904 C5.87929939,16.010053 4.96635438,16.2133605 4.5287169,16.9018086 C4.09107943,17.5902566 4.29438697,18.5033401 4.98283503,18.9409776 C5.01787373,18.9632749 5.05374338,18.9840489 5.09058248,19.0032994 L5.09362933,19.0063462 Z" id="Path"></path>
                        <path d="M62.8602525,48.9473971 L57.7430794,45.9929287 C57.0544929,45.5552912 56.1415479,45.7585988 55.7039104,46.4470468 C55.2662729,47.1354949 55.4695804,48.0485784 56.1580285,48.4862159 C56.1930672,48.5085132 56.2290754,48.5292872 56.265776,48.5485377 L61.3829491,51.5030061 C61.607169,51.6336049 61.8621344,51.7018819 62.1215316,51.7009226 C62.9373931,51.7009226 63.5986965,51.0394705 63.5986965,50.223609 C63.5986965,49.6958126 63.3171405,49.2081792 62.8601141,48.9443503 L62.8601141,48.9473971 L62.8602525,48.9473971 Z" id="Path"></path>
                        <path d="M46.5336049,12.2287821 C46.7578248,12.3593809 47.0127902,12.4276578 47.2721874,12.4266986 C47.8009532,12.4277963 48.2899715,12.1459633 48.5544929,11.6881059 L51.5089613,6.57093279 C51.9121141,5.86171079 51.6639348,4.95984521 50.9547128,4.55669246 C50.2521385,4.15741752 49.3591365,4.3965947 48.9503055,5.09376782 L45.9958371,10.2109409 C45.5874216,10.9165621 45.8281222,11.8198126 46.5336049,12.2287821 Z" id="Path"></path>
                        <path d="M21.420277,55.7250998 C20.7136864,55.3172383 19.8102974,55.5591853 19.4022974,56.265776 L16.4478289,61.3829491 C16.0399674,62.0895397 16.2819145,62.9929287 16.9885051,63.4009287 C17.2127251,63.5315275 17.4676904,63.5998045 17.7270876,63.5988452 C18.2558534,63.599943 18.7450102,63.31811 19.0093931,62.8602525 L21.9638615,57.7430794 C22.3710305,57.0360733 22.1281141,56.1328228 21.4211079,55.7256538 C21.420831,55.7253768 21.420554,55.7252383 21.420277,55.7250998 Z" id="Path"></path>
                    </g>
                </g>
            </g>
        </g>
    </g>
</svg>