<svg width="68" height="68" viewBox="0 0 68 68" fill="none" xmlns="http://www.w3.org/2000/svg">
<path id="time" fill-rule="evenodd" clip-rule="evenodd" d="M34 68C43.1909 68 51.1553 64.6311 57.8932 57.8932C64.6311 51.1553 68 43.1909 68 34C68 24.8091 64.6311 16.8447 57.8932 10.1068C51.1553 3.36895 43.1909 0 34 0C24.8091 0 16.8447 3.36895 10.1068 10.1068C3.36895 16.8447 0 24.8091 0 34C0 43.1909 3.35343 51.1708 10.0603 57.9397C16.8292 64.6466 24.8091 68 34 68ZM33.9536 62C26.4002 62 19.853 59.2123 14.3118 53.637C8.77059 48.0616 6 41.516 6 34C6 26.484 8.77059 19.9384 14.3118 14.363C19.853 8.78768 26.4002 6 33.9536 6C41.5069 6 48.0697 8.80308 53.6418 14.4092C59.2139 19.9538 62 26.484 62 34C62 41.516 59.2139 48.0616 53.6418 53.637C48.0697 59.2123 41.5069 62 33.9536 62ZM51 48.0585L48.0697 51L32 35.4652V18H36.2537V33.7187L51 48.0585Z" fill="#DE3737"/>
</svg>
