<?xml version="1.0" encoding="UTF-8"?>
<svg width="58px" height="68px" viewBox="0 0 58 68" version="1.1" xmlns="http://www.w3.org/2000/svg" xmlns:xlink="http://www.w3.org/1999/xlink">
    <title>timer</title>
    <g id="Page-1" stroke="none" stroke-width="1" fill="none" fill-rule="evenodd">
        <g id="Вступ-на-програми-молодшого-спеціаліста" transform="translate(-846.000000, -983.000000)" fill="#DE3737" fill-rule="nonzero">
            <g id="Привабливі-умови" transform="translate(752.000000, 878.000000)">
                <g id="timer" transform="translate(94.500000, 105.000000)">
                    <path d="M49.2194776,20.2330847 L53.3149232,16.1633863 L49.2850275,12.1574097 L44.9038698,16.511024 C40.9015286,13.6925144 36.2310684,11.9554268 31.3499969,11.4699224 L31.3499969,5.66415919 L37.0499908,5.66415919 L37.0499908,0 L19.9500092,0 L19.9500092,5.66415919 L25.6500031,5.66415919 L25.6500031,11.4699224 C20.7689316,11.9554268 16.0984714,13.6925144 12.0961302,16.511024 L7.71497245,12.1574097 L3.68507681,16.1633863 L7.78052238,20.2330847 C-2.88207464,31.4514862 -2.54430219,49.0875493 8.54013573,59.894664 C19.6245737,70.7017787 37.3754263,70.7017787 48.4598643,59.894664 C59.5443022,49.0875493 59.8820746,31.4514862 49.2194776,20.2330847 L49.2194776,20.2330847 Z M28.5,62.3057511 C15.9079213,62.3057511 5.70002463,52.1620293 5.70002463,39.6491144 C5.70002463,27.1361994 15.9079213,16.9924776 28.5,16.9924776 C41.0920787,16.9924776 51.2999754,27.1361994 51.2999754,39.6491144 C51.2858397,52.1562063 41.0862189,62.2917043 28.5,62.3057511 L28.5,62.3057511 Z" id="Shape"></path>
                    <path d="M28,23 L28,40 L11,40 C11,49.3888407 18.6111593,57 28,57 C37.3888407,57 45,49.3888407 45,40 C45,30.6111593 37.3888407,23 28,23 Z" id="Path"></path>
                </g>
            </g>
        </g>
    </g>
</svg>